<?xml version="1.0" encoding="UTF-8" standalone="no"?>
<svg
   xmlns:dc="http://purl.org/dc/elements/1.1/"
   xmlns:cc="http://creativecommons.org/ns#"
   xmlns:rdf="http://www.w3.org/1999/02/22-rdf-syntax-ns#"
   xmlns:svg="http://www.w3.org/2000/svg"
   xmlns="http://www.w3.org/2000/svg"
   viewBox="0 0 4666.6665 2666.6667"
   height="2666.6667"
   width="4666.6665"
   xml:space="preserve"
   id="svg2"
   version="1.1"><metadata
     id="metadata8"><rdf:RDF><cc:Work
         rdf:about=""><dc:format>image/svg+xml</dc:format><dc:type
           rdf:resource="http://purl.org/dc/dcmitype/StillImage" /></cc:Work></rdf:RDF></metadata><defs
     id="defs6" /><g
     transform="matrix(1.3333333,0,0,-1.3333333,0,2666.6667)"
     id="g10"><g
       transform="scale(0.1)"
       id="g12"><g
         transform="scale(2.14724)"
         id="g14"><path
           id="path16"
           style="fill:#ffffff;fill-opacity:0;fill-rule:nonzero;stroke:none"
           d="M 16300,0 H 0 V 9314.29 H 16300 V 0" /></g><g
         transform="scale(1.84288)"
         id="g18"><path
           id="path20"
           style="fill:#b75742;fill-opacity:1;fill-rule:nonzero;stroke:none"
           d="m 15497.5,5265.77 c 28.3,127.95 107.8,273.07 252,287.42 178.7,17.78 358,-183.13 447.7,-316.07 63.8,-94.53 102.8,-211.3 81.4,-323.35 -33.5,-175.38 -219.8,-299.1 -397.7,-284.5 -141.4,11.56 -267.7,99.46 -345.1,215.8 -77.1,115.96 -67.5,288.35 -38.3,420.7" /></g><g
         transform="scale(1.84653)"
         id="g22"><path
           id="path24"
           style="fill:#f7a491;fill-opacity:1;fill-rule:nonzero;stroke:none"
           d="m 15983.5,4643.84 141.6,71.7 c 0,0 149.7,-365.01 168.2,-471.59 6.7,-38.72 -20.5,-437.25 -31.8,-517.62 3.8,-155.21 -51.3,-190.62 -80.9,-238.44 0,0 -63.1,-32.6 -65.6,-27.84 -3.2,5.8 3,13.81 12.7,20.63 3.8,2.6 8.9,3.9 13,6.56 3.9,2.65 7.8,7.69 11.3,10.02 8.4,5.73 14.5,7.69 14.5,7.69 0,0 4.1,10.18 10.3,20.85 4.5,7.74 11.4,16.3 12.4,18.52 5.6,13.48 -0.9,8.88 -0.9,8.88 -6.5,-10.56 -42.1,-53.56 -42.1,-53.56 0,0 -67.9,-52.48 -68.8,-47.12 -0.4,2.55 1.5,11.49 12.4,25.51 2.9,3.79 11.1,8.45 15.1,13 3.2,3.36 5.9,8.12 9.9,12.07 4.2,4.28 10.3,6.88 14.6,11.27 6.4,6.55 8.9,15.32 13,20.74 16.6,21.55 22.6,38.13 15.7,31.25 -10.3,-10.29 -25.8,-52.32 -73,-85.84 -8,-5.47 -13.4,-7.47 -14.2,-4.11 -0.6,2.54 -0.3,12.34 5.7,21.01 4.1,5.85 12.5,9.37 18,16.84 3.2,4.39 5.1,10.4 8.3,15.11 13.1,18.79 18.9,8.94 31.1,82.26 -6.8,-2.98 -12.8,-7.58 -15.6,-9.96 -5.2,-4.44 -30,-47.01 -38.9,-37.75 -9,9.32 42.2,107.5 42.2,107.5 l 42.6,55.62 c -9.6,378.22 -21.1,468.77 -23.6,471.85 l -157.2,444.95" /></g><g
         transform="scale(1.7821)"
         id="g26"><path
           id="path28"
           style="fill:#f7a491;fill-opacity:1;fill-rule:nonzero;stroke:none"
           d="m 16300,3534.08 -94.3,-864.71 c 0,0 46,-182.87 40.5,-234.83 -5.6,-51.96 -102.5,-733.46 -102.5,-733.46 l 4.3,-37.49 2.4,-110.87 -362.4,-2.81 c 0,0 76.3,35.13 183.2,104.48 7.9,5.16 33.7,22.11 38.1,54.71 28.6,210.09 -35.5,910.16 -35.5,910.16 l -44.4,912.07 370.6,2.75" /></g><g
         transform="scale(1.7934)"
         id="g30"><path
           id="path32"
           style="fill:#b75742;fill-opacity:1;fill-rule:nonzero;stroke:none"
           d="m 16077.5,1761.63 -194,11.82 c 0,0 -11.3,777.07 -37.9,945.86 -26.5,168.78 -41.9,732.46 -15.1,949.81 23.1,187.02 108.7,487.29 108.7,487.29 l 300.2,-63.4 60.6,-15.72 -162.8,-1416.87 c 0,0 15,-95.68 22.6,-193.82 7.6,-98.08 -82.3,-704.97 -82.3,-704.97" /></g><g
         transform="scale(1.84007)"
         id="g34"><path
           id="path36"
           style="fill:#f7a491;fill-opacity:1;fill-rule:nonzero;stroke:none"
           d="m 16063.2,3268.57 c 19.6,-5.1 50,-723.88 66.3,-755.78 103.3,-201.95 127.9,-816 127.9,-816 l 42.6,-85.98 -9.8,-82.88 c 0,0 -77.1,-45.32 -131.2,-14.73 l 8.3,82.94 6.5,110.86 -260.9,765.03 -142.6,780.3 292.9,16.24" /></g><g
         transform="scale(1.76678)"
         id="g38"><path
           id="path40"
           style="fill:#355389;fill-opacity:1;fill-rule:nonzero;stroke:none"
           d="m 16292.2,1537.43 h -377.4 c -13.9,1.3 -17.3,13.02 -12.5,20.21 10,14.88 83.6,50.54 133.1,74.2 86.8,-9.4 239,26.15 252.7,46.81 7.9,-41.38 11.9,-139.41 4.1,-141.22" /></g><g
         transform="scale(1.84348)"
         id="g42"><path
           id="path44"
           style="fill:#355389;fill-opacity:1;fill-rule:nonzero;stroke:none"
           d="m 16269.6,1608.04 c 0,0 -29.6,-64.01 -64.4,-61.29 -34.7,2.71 -67.6,46.92 -67.6,46.92 0,0 -13,-62.11 -7,-96.34 6.1,-34.23 55.6,-69.33 89.5,-54.03 33.8,15.3 79.9,94.55 49.5,164.74" /></g><g
         transform="scale(1.83683)"
         id="g46"><path
           id="path48"
           style="fill:#f47458;fill-opacity:1;fill-rule:nonzero;stroke:none"
           d="m 15937.4,4149 c 0,0 8.1,-67.07 16.6,-80.47 23.1,-36.14 86.3,-149.6 121.6,-238.07 31.8,-79.76 42,-145.14 54.3,-218.91 38.1,-229.91 25.8,-931.17 25.8,-931.17 0,0 68.4,-151.35 96.2,-352.56 27.7,-201.16 48.1,-534.08 48.1,-534.08 l -141.4,-37.34 -287.5,893.33 c 0,0 -136.7,782.22 -181.1,885.66 -44.3,103.49 -127.8,523.56 -127.8,523.56 l 375.2,90.05" /></g><g
         transform="scale(1.82048)"
         id="g50"><path
           id="path52"
           style="fill:#f47458;fill-opacity:1;fill-rule:nonzero;stroke:none"
           d="m 16300,2897.53 c -0.1,-0.11 -0.1,-0.11 -0.1,0 h 0.1" /></g><g
         transform="scale(1.76872)"
         id="g54"><path
           id="path56"
           style="fill:#f7a491;fill-opacity:1;fill-rule:nonzero;stroke:none"
           d="m 15272.1,5840.56 c 3.3,30.98 88.9,55.93 114.1,63.35 25.2,7.43 8.8,1.39 36.8,-7.59 3.4,-1.09 88,-130.07 88,-130.07 26.7,-42.03 271.4,-416.05 353.9,-472.87 84.2,-58 419.8,-159.15 419.8,-159.15 l 15.3,-214.22 c 0,0 -463.3,158.81 -562.4,243.96 -82.1,70.5 -245.8,409.95 -323.9,535.08 V 5699 c -20.3,26.19 -145,110.59 -141.6,141.56" /></g><g
         transform="scale(1.83848)"
         id="g58"><path
           id="path60"
           style="fill:#f7cc7f;fill-opacity:1;fill-rule:nonzero;stroke:none"
           d="m 15829.1,4999.61 c 198.3,-2.83 274.6,27.85 428.4,-334.08 26.8,-62.94 42.1,-108.41 42.5,-109.5 0,0 -135.4,-60.81 -183.8,-80.33 0,0 -47.7,145.77 -67.3,128.85 -44.4,-38.18 -119.2,-476.75 -108.1,-536.63 0,0 -225.4,-48.47 -392.9,-13.33 0,0 -25.3,435.03 -33.7,454.56 -8.3,19.52 -59,104.92 -17.5,201.63 7.4,17.3 25.9,68.97 12.9,72.51 -101.5,27.79 -254.8,104.16 -254.8,104.16 l 72.4,183.9 c 0,0 224.4,-51.13 300.6,-60.7 66.4,-8.38 133.4,-10.17 200.2,-10.99 0.4,0 0.7,0 1.1,-0.05" /></g><g
         transform="scale(1.78872)"
         id="g62"><path
           id="path64"
           style="fill:#f7a491;fill-opacity:1;fill-rule:nonzero;stroke:none"
           d="m 16261.5,5300.31 c 0,0 5.7,-129.03 22.1,-176.49 16.4,-47.52 -34.5,-219.82 -137.3,-244.98 -102.8,-25.1 -1.8,204.67 -3.5,254.71 -1.7,49.98 -34.7,198.07 -34.7,198.07 l 153.4,-31.31" /></g><g
         transform="scale(1.78494)"
         id="g66"><path
           id="path68"
           style="fill:#f47458;fill-opacity:1;fill-rule:nonzero;stroke:none"
           d="m 16157.9,5268.19 c -8.1,40.84 -15.6,74.74 -15.6,74.74 l 153.7,-31.37 c 0,0 1.2,-26.45 4,-59.84 -57.6,-26.61 -106.9,-14.73 -142.1,16.47" /></g><g
         transform="scale(1.79725)"
         id="g70"><path
           id="path72"
           style="fill:#f7a491;fill-opacity:1;fill-rule:nonzero;stroke:none"
           d="m 16153.6,5625.88 c 0,0 60,-16.71 94.6,-75.74 34.6,-59.03 51.8,-228.62 -75.5,-300.96 -127.3,-72.33 -217.6,43.57 -213.8,152.01 3.9,108.44 34.4,251.9 194.7,224.69" /></g><g
         transform="scale(1.76394)"
         id="g74"><path
           id="path76"
           style="fill:#f7a491;fill-opacity:1;fill-rule:nonzero;stroke:none"
           d="m 16233.3,5539.2 c 9.3,-27.16 29.8,-44.79 45.6,-39.29 15.9,5.44 21.1,31.92 11.7,59.07 -9.4,27.21 -29.8,44.79 -45.6,39.35 -15.9,-5.51 -21.1,-31.92 -11.7,-59.13" /></g><g
         transform="scale(1.80186)"
         id="g78"><path
           id="path80"
           style="fill:#b75742;fill-opacity:1;fill-rule:nonzero;stroke:none"
           d="m 16094.3,5615.95 c 0,0 68.5,-176.9 135.5,-195.71 67,-18.87 61.7,-105.9 61.7,-105.9 0,0 8.5,201.13 -52.7,250.43 -61.2,49.29 -144.5,51.18 -144.5,51.18" /></g><g
         transform="scale(1.79955)"
         id="g82"><path
           id="path84"
           style="fill:#f7a491;fill-opacity:1;fill-rule:nonzero;stroke:none"
           d="m 16221.9,5392.53 c -10.4,-27.68 -3.6,-55.8 15.1,-62.8 18.8,-7 42.3,9.78 52.7,37.46 10.3,27.67 3.5,55.79 -15.2,62.79 -18.7,7 -42.3,-9.78 -52.6,-37.45" /></g><g
         transform="scale(1.6789)"
         id="g86"><path
           id="path88"
           style="fill:#184655;fill-opacity:1;fill-rule:nonzero;stroke:none"
           d="m 15689.2,6753.53 549.7,-659.56 0.5,-0.58 c 10.3,-12.3 29.8,-13.81 43.7,-3.37 13.9,10.44 16.9,28.88 6.6,41.19 -0.2,0.28 -0.5,0.64 -0.8,0.91 l -580.5,636.02 -0.2,0.21 c -4.1,4.54 -11.7,4.82 -16.8,0.63 -5,-4.08 -5.9,-10.91 -2.2,-15.45" /></g><g
         transform="scale(1.67682)"
         id="g90"><path
           id="path92"
           style="fill:#f47458;fill-opacity:1;fill-rule:nonzero;stroke:none"
           d="m 16173.2,6208.62 83,-105.13 0.5,-0.66 c 10.5,-13.32 29.3,-16.24 43.3,-7.25 -1.9,-2.98 -4.4,-5.7 -7.3,-8.01 -14.1,-11.19 -34.7,-8.78 -45.9,5.39 l -0.5,0.66 -86.4,109.43 c 4.3,1.94 8.8,3.8 13.3,5.57" /></g><g
         transform="scale(1.66568)"
         id="g94"><path
           id="path96"
           style="fill:#f7a491;fill-opacity:1;fill-rule:nonzero;stroke:none"
           d="m 16284.3,6297.22 c 0,0 -89.3,-79.16 -66.8,-112.27 24.7,-36.61 56.4,-56.33 58.2,-45.33 1.7,11 -19.2,64.37 -19.2,64.37 0,0 28.2,35.79 33.8,55.12 5.6,19.33 9.7,39.3 -6,38.11" /></g><g
         transform="scale(1.67474)"
         id="g98"><path
           id="path100"
           style="fill:#f7a491;fill-opacity:1;fill-rule:nonzero;stroke:none"
           d="m 16237.8,6221.16 c 0,0 55.8,-24.05 59,-17.15 3.2,6.9 -8.3,23.2 -8.3,23.2 0,0 -75.2,57.11 -77.9,36.62 -2.8,-20.5 27.2,-42.67 27.2,-42.67" /></g><g
         transform="scale(1.66358)"
         id="g102"><path
           id="path104"
           style="fill:#f7a491;fill-opacity:1;fill-rule:nonzero;stroke:none"
           d="m 16247.2,6277.02 c 0,0 48.6,55.13 50.5,36.74 2.3,-22.19 -38.3,-86.48 -58.2,-86.48 -19.9,0 -19.9,19.13 7.7,49.74" /></g><g
         transform="scale(1.23319)"
         id="g106"><path
           id="path108"
           style="fill:#f7a491;fill-opacity:1;fill-rule:nonzero;stroke:none"
           d="m 16300,10619.6 c -70.5,28.7 -98.4,76.3 -174.3,93.5 -5.2,-69.6 -147.1,-459.6 -159.6,-479.3 -50.3,-79.7 -130.3,-105.2 -130.3,-105.2 0,0 273.6,-374.82 301.4,-343.92 27.7,30.9 -8.7,33.59 -6.5,154.14 0.2,10.69 -44.4,159.48 34.9,341.58 68,156 112.5,247.3 134.4,339.2" /></g><g
         transform="scale(1.22383)"
         id="g110"><path
           id="path112"
           style="fill:#355389;fill-opacity:1;fill-rule:nonzero;stroke:none"
           d="m 15945.1,10201.1 318.2,-385.07 c 13.1,-13.17 27.5,-7.14 30.5,3.67 6.2,22.25 -20.8,126.35 -39.2,196.1 -82.5,80.9 -174.7,266.2 -165.9,297 -47.4,-25.6 -148.4,-102.4 -143.6,-111.7" /></g><g
         transform="scale(1.26667)"
         id="g114"><path
           id="path116"
           style="fill:#b75742;fill-opacity:1;fill-rule:nonzero;stroke:none"
           d="m 15118.2,12001.5 254.2,-407.7 c 0,0 680.7,-301.4 804.2,-527.9 123.4,-226.6 -436.6,-1111.3 -436.6,-1111.3 0,0 -67,13.41 -116.3,32.21 -37.6,14.29 -80.6,50.09 -80.6,50.09 l 250.5,875.1 -807,361.7 131.6,727.8" /></g><path
         id="path118"
         style="fill:#b75742;fill-opacity:1;fill-rule:nonzero;stroke:none"
         d="m 11914.4,8465.8 -945.7,2011.5 c -555.4,-261.1 -794,-923.1 -532.9,-1478.6 261.1,-555.4 923.1,-794 1478.6,-532.9" /><path
         id="path120"
         style="fill:#f47458;fill-opacity:1;fill-rule:nonzero;stroke:none"
         d="m 11093.2,8678 198,692 -622.8,-292.8 c 91.5,-179.5 240.1,-318.9 424.8,-399.2" /><path
         id="path122"
         style="fill:#f47458;fill-opacity:1;fill-rule:nonzero;stroke:none"
         d="m 11400.9,9306.5 -191.6,-669.6 c 165.3,-45.9 339.5,-42.1 501.4,10.8 l -309.8,658.8" /><path
         id="path124"
         style="fill:#f47458;fill-opacity:1;fill-rule:nonzero;stroke:none"
         d="m 11257.4,9489.9 c -226.7,103.2 -426.5,191 -633.5,267.3 -65.1,-184.9 -65.9,-382.1 -2.5,-566.3 l 636,299" /><path
         id="path126"
         style="fill:#f47458;fill-opacity:1;fill-rule:nonzero;stroke:none"
         d="m 10672.7,9870.2 c 190.2,-70.4 373.8,-149.9 576.9,-241.8 l -270.8,576 c -129.2,-81.8 -235.3,-197.6 -306.1,-334.2" /><path
         id="path128"
         style="fill:#f7cc7f;fill-opacity:1;fill-rule:nonzero;stroke:none"
         d="m 11409.4,8963 c 25.8,-3.9 50.5,17.2 55.1,47.3 4.6,30 -16.3,115.8 -42.4,117.9 -26.1,2 -46.6,-73.5 -51.2,-103.6 -4.6,-30 12.6,-57.6 38.5,-61.6" /><path
         id="path130"
         style="fill:#f7cc7f;fill-opacity:1;fill-rule:nonzero;stroke:none"
         d="m 11566.7,8696.3 c 25,7.7 38.1,37.5 29.1,66.6 -8.9,29 -65.2,97.2 -89.6,87.6 -24.3,-9.5 -9.9,-86.4 -0.9,-115.5 8.9,-29 36.4,-46.4 61.4,-38.7" /><path
         id="path132"
         style="fill:#f7cc7f;fill-opacity:1;fill-rule:nonzero;stroke:none"
         d="m 10927.3,8781.2 c 23.3,-11.9 53.4,0.3 67.3,27.4 13.9,27 21.1,115.1 -3,125.3 -24.1,10.1 -67.4,-55 -81.3,-82.1 -13.8,-27 -6.2,-58.6 17,-70.6" /><path
         id="path134"
         style="fill:#f7cc7f;fill-opacity:1;fill-rule:nonzero;stroke:none"
         d="m 10921.5,9036 c 10.1,-24.2 41,-34.3 69.1,-22.7 28,11.7 90.5,74.2 78.7,97.5 -11.8,23.4 -87,1.7 -115.1,-10 -28,-11.6 -42.7,-40.6 -32.7,-64.8" /><path
         id="path136"
         style="fill:#f7cc7f;fill-opacity:1;fill-rule:nonzero;stroke:none"
         d="m 10710.6,9346.6 c 10,-24.1 40.9,-34.3 69,-22.6 28,11.6 90.5,74.1 78.7,97.5 -11.8,23.3 -87,1.6 -115.1,-10 -28,-11.7 -42.7,-40.7 -32.6,-64.9" /><path
         id="path138"
         style="fill:#f7cc7f;fill-opacity:1;fill-rule:nonzero;stroke:none"
         d="m 10923.4,9477.3 c -5.5,-25.6 14.2,-51.5 43.9,-57.9 29.7,-6.4 116.6,9.4 120.2,35.4 3.6,25.9 -70.6,50.8 -100.3,57.2 -29.7,6.4 -58.3,-9.1 -63.8,-34.7" /><path
         id="path140"
         style="fill:#f7cc7f;fill-opacity:1;fill-rule:nonzero;stroke:none"
         d="m 10815,9920.6 c -14.8,-21.5 -6.5,-53 18.5,-70.2 25,-17.2 111.4,-35.7 124.6,-13.1 13.2,22.6 -45.8,73.9 -70.9,91.1 -25,17.3 -57.4,13.8 -72.2,-7.8" /><path
         id="path142"
         style="fill:#f7cc7f;fill-opacity:1;fill-rule:nonzero;stroke:none"
         d="m 11002.4,9908.4 c -23,-12.4 -30.1,-44.1 -15.7,-70.9 14.4,-26.8 82.7,-82.8 104.8,-68.8 22,14 -6.9,86.7 -21.3,113.5 -14.4,26.8 -44.7,38.5 -67.8,26.2" /><g
         transform="scale(1.67531)"
         id="g144"><path
           id="path146"
           style="fill:#9bc1f9;fill-opacity:1;fill-rule:nonzero;stroke:none"
           d="m 16300,2865.56 c 0,-390.07 -2665.4,-706.25 -5953.4,-706.25 -3288.01,0 -5953.48,316.18 -5953.48,706.25 0,390.02 2665.47,706.26 5953.48,706.26 3288,0 5953.4,-316.24 5953.4,-706.26" /></g><g
         transform="scale(1.32081)"
         id="g148"><path
           id="path150"
           style="fill:#3c8f7c;fill-opacity:1;fill-rule:nonzero;stroke:none"
           d="m 14494.8,3882.09 c 0,0 957.6,595.77 1074.7,804.66 117,208.88 -27.6,259.31 -42.2,365.45 -18.7,135 12.6,181.33 157,284.83 144.3,103.5 420.8,182.39 504,379.39 83.2,197.07 -86.7,792.09 -86.7,792.09 l -141.8,60.64 145.8,91.08 c 0,0 194.4,1059.84 63.5,1244.04 0,0 -280,-234.68 -451,-506.69 -171,-271.95 -286.9,-275.89 -286.9,-275.89 l 137.3,-133.85 -154.5,92.67 c 0,0 -241.8,-277.64 -246.8,-562.39 -5.1,-284.67 -64.6,-331.99 -64.6,-331.99 l 173.6,-116.22 -207.8,51.18 c 0,0 -122.9,-259.84 -264.6,-357.73 -184.6,-127.5 -420.6,-303.45 -429.4,-713.28 -8.8,-409.82 120.4,-1167.99 120.4,-1167.99" /></g><g
         transform="scale(1.5305)"
         id="g152"><path
           id="path154"
           style="fill:#50bfa5;fill-opacity:1;fill-rule:nonzero;stroke:none"
           d="m 13380,3460.5 c 0,0 1139.6,330.48 1319.3,517.54 179.6,187.13 49.2,288.53 65.9,407.77 21.3,151.59 66.5,191.31 242.4,255.87 175.8,64.55 477.2,59.59 619.4,244.95 142,185.36 147.6,882.13 147.6,882.13 l -240,101.93 289,60.37 c 0,0 476.4,897.21 399.4,1138.39 0,0 -405.6,19 -658.2,-218.52 -252.6,-237.51 -252.6,-237.51 -252.6,-237.51 l 123.5,-229.64 -195.2,151.05 c 0,0 -313.2,-146.21 -402.8,-451.47 -89.5,-305.32 -163.3,-336.95 -163.3,-336.95 l 140.1,-181.83 -193.9,122.9 c 0,0 -136.9,-298.08 -372.1,-299.51 -235.2,-1.44 -582.3,-26.79 -712.7,-465.73 C 13405.4,4483.23 13380,3460.5 13380,3460.5" /></g><g
         transform="scale(1.5305)"
         id="g156"><path
           id="path158"
           style="fill:#3c8f7c;fill-opacity:1;fill-rule:nonzero;stroke:none"
           d="m 14699.3,3978.04 c 179.6,187.13 49.2,288.53 65.9,407.77 21.3,151.59 66.5,191.31 242.4,255.87 175.8,64.55 477.2,59.59 619.4,244.95 142,185.36 147.6,882.13 147.6,882.13 l -240,101.93 289,60.37 c 0,0 476.4,897.21 399.4,1138.39 0,0 -415.7,-547.21 -797.8,-849.34 -382.1,-302.12 -35.6,-595.36 -391,-941.91 -355.4,-346.55 -364.3,-133.29 -808.6,-426.53 C 13781.3,4558.44 13380,3460.5 13380,3460.5 c 0,0 1139.6,330.48 1319.3,517.54" /></g><g
         transform="scale(1.67195)"
         id="g160"><path
           id="path162"
           style="fill:#50bfa5;fill-opacity:1;fill-rule:nonzero;stroke:none"
           d="m 12967.8,2468.79 c 0,0 1271.6,172.38 1479.8,289.6 208.2,117.23 70.6,190.32 95.9,269.15 32.1,100.18 84.1,124.77 281.1,160.41 197,35.65 531.2,37.44 698,155.09 166.9,117.65 241.4,550.38 241.4,550.38 l -215.6,88.16 247.2,31.88 c 0,0 -70.7,322.19 504.4,742.36 0,0 -444.7,29.73 -736,-118 -291.3,-147.79 -291.3,-147.79 -291.3,-147.79 l 122.5,-158.32 -205.8,108.91 c 0,0 -352.7,-84.27 -468.6,-284.1 -115.9,-199.82 -198.9,-217.83 -198.9,-217.83 l 143.6,-127.16 -206.1,90.14 c 0,0 -167.5,-193.07 -426.2,-184.1 -258.6,8.98 -641.5,6.64 -810.1,-280.57 -168.5,-287.27 -255.3,-968.21 -255.3,-968.21" /></g><g
         transform="scale(1.45006)"
         id="g164"><path
           id="path166"
           style="fill:#466eb6;fill-opacity:1;fill-rule:nonzero;stroke:none"
           d="m 7570.3,2447.28 c -0.21,-2.14 -0.28,-4.21 -0.28,-6.28 0,-298.26 1954.27,-539.98 4364.98,-539.98 2410.7,0 4365,241.72 4365,539.98 0,2.07 -0.1,4.14 -0.3,6.28 H 7570.3" /></g><g
         transform="scale(1.62024)"
         id="g168"><path
           id="path170"
           style="fill:#355389;fill-opacity:1;fill-rule:nonzero;stroke:none"
           d="m 5096.85,3055.29 c -0.26,-4.63 -0.42,-9.26 -0.42,-13.89 0,-656.63 2508,-1188.96 5601.77,-1188.96 3093.8,0 5601.8,532.33 5601.8,1188.96 0,4.63 -0.2,9.26 -0.4,13.89 H 5096.85" /></g><g
         transform="scale(1.57175)"
         id="g172"><path
           id="path174"
           style="fill:#466eb6;fill-opacity:1;fill-rule:nonzero;stroke:none"
           d="m 16300,3185.1 c 0,-232.16 -2378.7,-420.36 -5313.2,-420.36 -1726.83,0 -3261.23,65.22 -4231.67,166.19 -55.17,5.72 -108.48,11.58 -159.95,17.56 -463.03,53.7 -772.98,116.3 -879.97,183.87 -0.13,0.06 -0.21,0.13 -0.34,0.25 -27.13,17.18 -41.11,34.74 -41.11,52.49 0,46.57 95.75,91.37 272.57,133.23 135.37,32.13 318.29,62.41 542.09,90.54 940.6,118.08 2603.65,196.59 4498.38,196.59 2934.5,0 5313.2,-188.2 5313.2,-420.36" /></g><g
         transform="scale(1.21686)"
         id="g176"><path
           id="path178"
           style="fill:#50bfa5;fill-opacity:1;fill-rule:nonzero;stroke:none"
           d="m 15188,4018.46 c 0,0 -436.2,581.91 -381.4,784.32 54.9,202.4 176.5,183.91 244.5,237.9 86.5,68.71 30.7,157.87 11.1,315 -19.5,157.2 27.1,349.5 93.5,522.49 66.5,172.98 343.5,455.19 343.5,455.19 l 144.1,-148.83 -60.4,242.51 c 0,0 393.2,675.35 568.3,699.67 0,0 148.8,-304.55 87.5,-580.35 -61.3,-275.87 -61.3,-275.87 -61.3,-275.87 l -139.6,-73.39 135.5,22.11 c 0,0 77.9,-355.92 -80.6,-530.05 -158.3,-174.06 -115,-237.5 -115,-237.5 l 35,-59.91 c 0,0 -103.8,-161.15 -25.1,-342.11 78.6,-180.87 -27.4,-474.25 -254.5,-725.88 -227.1,-251.72 -545.1,-305.3 -545.1,-305.3" /></g><g
         transform="scale(1.20304)"
         id="g180"><path
           id="path182"
           style="fill:#184655;fill-opacity:1;fill-rule:nonzero;stroke:none"
           d="m 16087.5,5085.96 c 212.5,-153.61 188.9,-549.02 -52.7,-883.01 -241.4,-334.08 -609.5,-480.37 -822,-326.76 -212.4,153.61 -188.8,548.95 52.7,883.02 241.6,334.07 609.6,480.36 822,326.75" /></g><path
         id="path184"
         style="fill:#50bfa5;fill-opacity:1;fill-rule:nonzero;stroke:none"
         d="m 11467.1,4017 c 0,0 334.6,2294.3 128.9,2893.1 -205.7,598.8 -501.1,189.3 -501.1,189.3 0,0 -178.5,1274 -524.6,1387 -346.1,113 -333.5,-492 -333.5,-492 0,0 -669.69,1264.1 -913.69,1112.6 -454.48,-282.2 209.82,-1703.2 209.82,-1703.2 0,0 -372.46,486.2 -545.25,181.5 -260.59,-459.5 779.39,-1250.9 779.39,-1250.9 L 11467.1,4017" /><path
         id="path186"
         style="fill:#3c8f7c;fill-opacity:1;fill-rule:nonzero;stroke:none"
         d="m 9298.43,6227.6 c -145.84,372.7 203.23,236.7 203.23,236.7 0,0 -774.57,661.5 -513.97,1121 172.78,304.7 545.24,-181.5 545.24,-181.5 0,0 -664.3,1421 -209.82,1703.2 L 11453.6,4042.5 C 11194,4223 9524.22,5650.7 9298.43,6227.6" /><g
         transform="scale(1.3714)"
         id="g188"><path
           id="path190"
           style="fill:#86b1f2;fill-opacity:1;fill-rule:nonzero;stroke:none"
           d="m 15263.2,5424.44 c -149.7,72.55 -217.7,250.62 -154.7,405.28 165,405.27 248.7,836.07 248.7,1280.43 0,2082.88 -1863.4,3697.95 -3951.7,3361.95 -277.2,-44.6 -467.2,262.4 -314,489.9 48.5,72.1 125.5,121.4 211.2,135.2 214.5,34.7 433.2,52.2 649.9,52.2 528.8,0 1044.1,-101.3 1531.5,-301 496.4,-203.5 941.7,-500.3 1323.6,-882.22 1159.7,-1159.7 1492.3,-2885.41 887.5,-4375.05 -70,-172.45 -268.6,-245.95 -432,-166.69" /></g><g
         transform="scale(1.16352)"
         id="g192"><path
           id="path194"
           style="fill:#466eb6;fill-opacity:1;fill-rule:nonzero;stroke:none"
           d="m 12979.2,6811.65 c -993.5,636.26 -1455,1833.42 -1183.1,2957.81 48.6,201.47 260.5,312.24 452.5,243.24 166.3,-59.8 260.4,-234.4 218.9,-406.15 -148.9,-616.52 -9.1,-1256.04 383.4,-1754.53 713.6,-906.47 2002.9,-1037.88 2879.9,-352.46 60.8,47.61 136.7,73.74 213.7,73.74 157,0 249.4,-107.09 251.2,-108.29 1.6,-2.66 104.3,-100.38 93.4,-260.85 -6.6,-97.29 -54.4,-187.53 -131,-247.61 -939.8,-736.12 -2211.8,-764.14 -3178.9,-144.9" /></g><g
         transform="scale(1.54482)"
         id="g196"><path
           id="path198"
           style="fill:#f7cc7f;fill-opacity:1;fill-rule:nonzero;stroke:none"
           d="m 16300,3458.66 c 0,0 -102.1,-612.56 -904.9,-524.72 -819.5,89.72 -1084.7,-191.35 -1780.9,-161.05 -560.9,24.4 -1286.6,788.83 -1002.1,1738.33 284.4,949.43 3562.1,1286.88 3687.9,-1052.56" /></g><g
         transform="scale(1.54514)"
         id="g200"><path
           id="path202"
           style="fill:#f47458;fill-opacity:1;fill-rule:nonzero;stroke:none"
           d="m 16295.3,3498.85 c 4.7,-46.6 -1.5,-93.78 -17.5,-137.78 -60.3,-166.01 -265.4,-532.19 -889.8,-463.85 -819.4,89.64 -1081.2,-160.89 -1776.8,-126.07 -560.4,28.02 -1293.2,724.98 -1019.4,1577.79 271.2,844.78 3495.7,1194.07 3703.5,-850.09" /></g><g
         transform="scale(1.54469)"
         id="g204"><path
           id="path206"
           style="fill:#fae0b2;fill-opacity:1;fill-rule:nonzero;stroke:none"
           d="m 12595.4,4350.2 c 286,778.61 3156.5,1097.63 3642.8,-564.52 27.4,-93.35 47.6,-188.96 61.8,-285.81 -41.6,603.94 -368.2,1087.01 -1000.8,1354.71 -931.2,387.58 -2116.8,148.05 -2543.9,-259.86 -72.2,-66.94 -132.1,-150.26 -159.9,-244.52" /></g><g
         transform="scale(1.30471)"
         id="g208"><path
           id="path210"
           style="fill:#f48c7f;fill-opacity:1;fill-rule:nonzero;stroke:none"
           d="m 15697.3,3665.19 c 0,0 -610.4,299.31 -632.1,827.93 -21.6,528.63 444.8,979.38 839.8,1070.82 395,91.36 -77.7,-113.9 -246.2,-780.87 -168.5,-666.89 361.8,-1128.76 38.5,-1117.88" /></g><g
         transform="scale(1.53394)"
         id="g212"><path
           id="path214"
           style="fill:#f48c7f;fill-opacity:1;fill-rule:nonzero;stroke:none"
           d="m 16029,3502.36 c 153.8,4.82 271,142.44 248.1,294.53 -18.8,124.26 -93.5,281.96 -293.9,458.69 -484.9,427.85 -1936.4,780.67 -2061.7,463.19 -125.3,-317.55 645.8,-397.54 750.9,-858.84 81.3,-357.18 962.8,-369.96 1356.6,-357.57" /></g><g
         transform="scale(1.51661)"
         id="g216"><path
           id="path218"
           style="fill:#f48c7f;fill-opacity:1;fill-rule:nonzero;stroke:none"
           d="m 16168.1,3355.63 c 90.6,-18.46 131.9,-125.01 76.6,-199.06 -67,-89.54 -192,-176.77 -422.3,-151.58 -442.9,48.46 -946,8.43 -1350.7,-42.01 -404.6,-50.5 -724.9,-57.56 -710.1,77.68 14.8,135.23 776.7,345.9 937.7,460.63 151.7,108.13 1096.4,-69.96 1468.8,-145.66" /></g><g
         transform="scale(1.00366)"
         id="g220"><path
           id="path222"
           style="fill:#f7a491;fill-opacity:1;fill-rule:nonzero;stroke:none"
           d="m 15139.2,10270.2 c -20,-7.2 -91.4,-10 -110,-2.9 -18.5,7.1 -45.7,80 -45.7,80 0,0 8.9,21.4 11,37.7 20.5,-23.1 109.3,-14.5 129,-27.7 21.4,-14.3 35.8,-80 15.7,-87.1 z m 825.7,-178 -151.3,-458.43 -440.2,668.73 0.1,0.5 c 0,0 -164.3,87.1 -205.7,95.7 -37,7.7 -155.9,21 -174.8,1.4 -0.9,1.4 -2.1,2.5 -3.8,2.9 -15.7,4.3 -45.6,-48.6 -49.9,-61.4 -4.3,-12.9 27.1,-88.6 30,-94.3 2.8,-5.7 -8.6,-8.6 -23,-2.9 -14.2,5.7 -58.4,58.6 -58.4,58.6 0,0 -2.9,84.3 -30.1,84.3 -27.1,0 -4.3,-105.7 -4.3,-105.7 l 25.8,-35.7 -38.7,24.3 c 0,0 -25.7,57.1 -32.7,54.2 -7.2,-2.8 -17.2,-31.4 -2.9,-61.4 14.2,-30 45.7,-62.8 45.7,-62.8 l 58.6,-31.5 c 0,0 -68.7,7.2 -88.6,22.9 -20,15.7 -28.6,-5.7 -12.8,-24.3 15.6,-18.6 105.7,-51.4 162.8,-58.6 57.2,-7.1 235.7,-5.7 261.4,-1.4 20.9,3.5 59.8,8.9 78.9,-2.3 24.1,-74.6 230.6,-881.72 495.5,-980.06 0,0 123.5,13.94 269.2,330.79 145.8,316.84 224.3,507.54 224.3,507.54 l -335.1,128.93" /></g><g
         transform="scale(1.17462)"
         id="g224"><path
           id="path226"
           style="fill:#f7a491;fill-opacity:1;fill-rule:nonzero;stroke:none"
           d="m 16015.6,8849.82 c 16.9,11.24 92.7,3.91 110.2,23.69 1.8,-13.97 9.4,-32.24 9.4,-32.24 0,0 -23.2,-62.25 -39,-68.35 -15.9,-6.11 -77,-3.67 -94,2.44 -17.1,6.1 -4.9,62.25 13.4,74.46 z m -1005.3,-336.68 c 0,0 67.1,-162.95 191.7,-433.67 124.6,-270.73 230,-282.65 230,-282.65 226.3,84.03 402.7,773.64 423.3,837.38 16.4,9.58 49.7,4.99 67.6,2.01 21.9,-3.66 174.5,-4.88 223.3,1.22 48.8,6.1 125.7,34.18 139.2,50.05 13.4,15.87 6.1,34.17 -11,20.74 -17.1,-13.42 -75.7,-19.53 -75.7,-19.53 l 50.1,26.86 c 0,0 26.8,28.07 39,53.7 12.2,25.63 3.7,50.05 -2.4,52.49 -6.2,2.44 -28.1,-46.38 -28.1,-46.38 l -33,-20.75 22,30.51 c 0,0 19.5,90.32 -3.7,90.32 -23.1,0 -25.6,-72.01 -25.6,-72.01 0,0 -37.8,-45.17 -50.1,-50.04 -12.1,-4.89 -21.9,-2.45 -19.5,2.44 2.5,4.88 29.3,69.57 25.7,80.55 -3.7,10.99 -29.3,56.15 -42.8,52.49 -1.4,-0.38 -2.4,-1.3 -3.1,-2.49 -16.3,16.74 -117.8,5.37 -149.4,-1.17 -35.4,-7.33 -175.8,-81.78 -175.8,-81.78 l 0.1,-0.47 -376.1,-571.36 -129.4,391.72 -286.3,-110.18" /></g><g
         transform="scale(1.03629)"
         id="g228"><path
           id="path230"
           style="fill:#13375b;fill-opacity:1;fill-rule:nonzero;stroke:none"
           d="m 16300,8518.57 c 0,0 -192.7,103.94 -456.5,187.21 -353.5,111.46 -830.8,189.43 -1106.3,-32.33 -162,-130.36 1487.4,-334.65 1487.4,-334.65 l 75.4,179.77" /></g><g
         transform="scale(1.14988)"
         id="g232"><path
           id="path234"
           style="fill:#13375b;fill-opacity:1;fill-rule:nonzero;stroke:none"
           d="m 16300,7688.56 c 0,0 -138.1,210.46 -502.7,211.94 -142.2,0.52 -339.5,-24.27 -519.4,-56.62 -321.1,-57.74 -624.7,-158.97 -624.7,-158.97 l -31.3,-169.85 1678.1,173.5" /></g><g
         transform="scale(1.0848)"
         id="g236"><path
           id="path238"
           style="fill:#13375b;fill-opacity:1;fill-rule:nonzero;stroke:none"
           d="m 15074.3,7874.28 681,-346.33 544.7,420.26 -169.5,388.83 -974.8,-44.34 -81.4,-418.42" /></g><g
         transform="scale(1.16136)"
         id="g240"><path
           id="path242"
           style="fill:#184655;fill-opacity:1;fill-rule:nonzero;stroke:none"
           d="m 14260,9634.17 c -69.2,147.6 -68.3,424.23 -9.2,585.63 47.8,130.6 158.1,203.5 298.9,216.4 163.2,14.9 266.5,-18.9 392,-104 130.7,-88.7 287.1,-185 438.3,-225.7 197.2,-53.1 401.1,-93.3 580.7,-190.51 118.6,-64.19 228.3,-158.41 273.9,-285.29 65.4,-181.59 -16.6,-387.96 -145.6,-531.5 -194.5,-216.53 -498.6,-329.19 -787.2,-291.72 -224.7,29.16 -435,148.51 -579.9,322.04 -65.2,78.21 -114.7,136.44 -193.2,200.23 -100.4,81.68 -212.8,185.54 -268.7,304.42" /></g><g
         transform="scale(1.08713)"
         id="g244"><path
           id="path246"
           style="fill:#f47458;fill-opacity:1;fill-rule:nonzero;stroke:none"
           d="m 16143.4,10070.6 c 0,0 -267.2,31.3 -530.7,44.3 -235.2,11.7 -487.9,-27.5 -504.7,-44.3 -67,-67.1 -100.9,-652.33 -66,-761.06 35,-108.71 201.9,-392.11 167,-574.6 -35,-182.5 -105.1,-436.56 -105.1,-436.56 0,0 221.4,-131.73 503.8,-134.58 169.5,-1.66 404.6,27.96 551.9,132.92 0,0 -80.9,228.49 -69.2,407.12 11.6,178.64 108.7,481.46 159.1,590.17 50.5,108.72 -16.8,757.09 -106.1,776.59" /></g><g
         transform="scale(1.01462)"
         id="g248"><path
           id="path250"
           style="fill:#f47458;fill-opacity:1;fill-rule:nonzero;stroke:none"
           d="m 16300,10736.2 -107.1,56.7 c 0,0 -123.1,-32.8 -188.3,-123.3 -53.5,-74.3 -299.5,-753 -299.5,-753 0,0 324.5,-133.13 428.5,-128.99 l 166.4,416.09 v 532.5" /></g><g
         transform="scale(1.10655)"
         id="g252"><path
           id="path254"
           style="fill:#f47458;fill-opacity:1;fill-rule:nonzero;stroke:none"
           d="m 15754.5,9844.2 107.2,49.55 c 0,0 67.4,-14.93 152.5,-117.18 53.7,-64.59 285.8,-683.84 285.8,-683.84 0,0 -297.6,-122.07 -392.9,-118.28 l -152.6,381.49 v 488.26" /></g><g
         transform="scale(1.05361)"
         id="g256"><path
           id="path258"
           style="fill:#f7a491;fill-opacity:1;fill-rule:nonzero;stroke:none"
           d="m 16237.3,10783.3 c 0,0 14.2,-270.1 29.9,-356.3 16.2,-89.2 32.8,-497.85 -152.6,-543.16 -185.3,-45.31 -130.9,463.76 -134,553.86 -3,90.1 -39.9,399.4 -39.9,399.4 l 296.6,-53.8" /></g><g
         transform="scale(1.04987)"
         id="g260"><path
           id="path262"
           style="fill:#f47458;fill-opacity:1;fill-rule:nonzero;stroke:none"
           d="m 15997.5,10875.7 c 0,0 7.5,-62.6 16,-139.8 68.4,-53.6 163.1,-68.3 272.8,-6 4.7,2.7 9.2,5.6 13.7,8.5 -3.1,48.6 -4.9,83.4 -4.9,83.4 l -297.6,53.9" /></g><g
         transform="scale(1.0618)"
         id="g264"><path
           id="path266"
           style="fill:#f7a491;fill-opacity:1;fill-rule:nonzero;stroke:none"
           d="m 16036.9,11327.9 c 0,0 107.8,-30.1 170,-136.2 62,-106.1 93.1,-410.8 -135.8,-540.8 -228.7,-130.1 -391.1,78.3 -384.2,273.2 7,194.8 61.8,452.7 350,403.8" /></g><g
         transform="scale(1.02643)"
         id="g268"><path
           id="path270"
           style="fill:#f7a491;fill-opacity:1;fill-rule:nonzero;stroke:none"
           d="m 16178.2,11366.2 c 17.2,-49.6 54.5,-81.7 83.3,-71.7 29,10 38.5,58.2 21.4,107.8 -17.2,49.6 -54.5,81.8 -83.3,71.8 -29,-10 -38.5,-58.3 -21.4,-107.9" /></g><g
         transform="scale(1.06669)"
         id="g272"><path
           id="path274"
           style="fill:#184655;fill-opacity:1;fill-rule:nonzero;stroke:none"
           d="m 15931.1,11283.9 c 0,0 122.8,-317.2 242.9,-351.1 120.2,-33.8 110.6,-189.8 110.6,-189.8 0,0 15.4,360.7 -94.4,449.1 -109.8,88.4 -259.1,91.8 -259.1,91.8" /></g><g
         transform="scale(1.06423)"
         id="g276"><path
           id="path278"
           style="fill:#f7a491;fill-opacity:1;fill-rule:nonzero;stroke:none"
           d="m 16159.8,10895.9 c -18.6,-49.7 -6.4,-100.2 27.2,-112.7 33.6,-12.6 75.9,17.5 94.5,67.2 18.5,49.7 6.4,100.2 -27.3,112.8 -33.6,12.5 -75.9,-17.6 -94.4,-67.3" /></g><g
         transform="scale(1.00945)"
         id="g280"><path
           id="path282"
           style="fill:#f7a491;fill-opacity:1;fill-rule:nonzero;stroke:none"
           d="m 15577.2,8313.9 c 0,0 -84,71.62 -184.5,100.15 -100.6,28.54 -99.9,-45.57 -127.8,-159.29 -28.1,-113.82 -73,-187.92 -130.3,-297.69 -57.2,-109.86 6.2,-363.26 37.2,-367.03 74.8,-9.21 112.3,150.68 185.6,286.3 73.3,135.71 271.8,178.31 329.6,183.46 10.4,0.89 268.3,37.25 613,28.63 -69.9,138.89 -172.6,252.91 -277.8,374.56 -263.3,-86.19 -445,-149.09 -445,-149.09" /></g><g
         transform="scale(1.15414)"
         id="g284"><path
           id="path286"
           style="fill:#355389;fill-opacity:1;fill-rule:nonzero;stroke:none"
           d="m 16286.4,7548.77 c -28.2,155.96 -157.4,221.72 -307.9,220.42 -346.9,-2.94 -1328.4,-209.5 -1913.5,-382.01 32.7,-125.81 4.6,-207.17 43.8,-336.79 617,22.18 1775.5,98.17 2113.2,285.15 52.6,29.11 78,137.76 64.4,213.23" /></g><g
         transform="scale(1.12667)"
         id="g288"><path
           id="path290"
           style="fill:#f7a491;fill-opacity:1;fill-rule:nonzero;stroke:none"
           d="m 16257,7042 c -43.2,102.25 -87.1,169.97 -103.8,273.64 -19.7,122.57 -8.3,190.74 -159.2,135.35 -86.8,-31.77 -182.1,-30.53 -266.8,5.95 -55.7,23.96 -124.6,53.34 -202.8,86.36 -52.3,-105.71 -86.5,-217.99 -96.9,-338.16 186.1,-22.37 321.7,-43.59 328.6,-44.38 29.9,-3.64 231.3,-49.8 286.9,-176.28 55.5,-126.48 78.7,-283.22 144.8,-269.28 38.4,8.16 112.2,224.64 69.2,326.8" /></g><g
         transform="scale(1.07812)"
         id="g292"><path
           id="path294"
           style="fill:#86b1f2;fill-opacity:1;fill-rule:nonzero;stroke:none"
           d="m 14540.3,8420.05 c -146,6.59 -399,-16.6 -439.5,-180.87 -19.7,-79.4 -14.8,-191.81 16.4,-267.78 39,-94.7 131.6,-147.57 223.7,-188.94 175.7,-78.1 1269.4,-213.33 1833,-281.23 68.7,119.56 126.1,252.66 124,370.09 -541.3,228.27 -1478.1,536.12 -1757.6,548.73" /></g><path
         id="path296"
         style="fill:#3c8f7c;fill-opacity:1;fill-rule:nonzero;stroke:none"
         d="m 12352.9,5028.3 -3.1,16.8 c -7.5,35.8 5.9,73.9 34.7,97.5 0,0 0.7,0.1 0.6,0.9 25.5,19.8 40.4,50.3 39.1,82.5 v 16.6 c -1.3,32.2 -17.8,61.5 -43.5,80.4 -0.8,-0.1 -0.9,0.6 -1.7,0.5 -30.1,21.2 -45,58.8 -39.3,95.4 l 2.4,17.1 c 5,36.5 29.9,68.1 65.7,79.5 l 0.8,0.2 c 30.5,10.5 55.3,34.1 65.4,64.5 l 4.9,15.9 c 10.1,30.4 5.4,64.3 -12.9,90.1 -1,0.7 -1,0.7 -1.1,1.4 -21.6,30.8 -22.8,70.9 -5.2,103.5 l 8.3,14.9 c 17.6,32.6 51.7,53.3 89,52.4 0.8,0.1 0.8,0.1 1.6,0.2 31.8,-1.1 62.5,12.6 83.1,37.8 l 10.2,13 c 19.8,25.1 26.1,58.7 18,89.6 -0.2,0.7 -0.2,0.7 -0.3,1.5 -9.1,35.5 3.5,74.2 31.3,98.4 l 12.2,11 c 27.7,25 67.3,33.2 101.6,19.1 0.8,0.1 0.8,0.1 1.7,-0.5 29.9,-11.8 63.5,-9.4 90.4,7.5 l 14.9,9.1 c 26.8,16.9 44.4,45.5 47.1,77.6 0.6,1 0.6,1 0.5,1.7 3.3,37 28.2,68.6 62.8,82.2 l 15.5,6.1 c 34.6,13.6 74.5,7.6 102.1,-17.3 l 0.9,-0.6 c 23.8,-21.6 56.4,-30.5 87.7,-24.6 l 16.7,3.9 c 31.9,6.8 58.1,27.5 71.5,56.9 l 0.6,0.9 c 15.9,33.8 49.8,55.2 87.6,56 l 16.5,0.7 c 37.1,0.7 72.3,-18.8 90.3,-51.1 0.1,-0.7 0.1,-0.7 0.3,-1.5 15.5,-27.9 43,-48.1 74.7,-52.4 l 16.2,-2.5 c 32.6,-4.9 63.7,6.4 87.1,29 l 0.7,0.9 c 26.6,26.4 65.5,34.5 100.9,22.9 l 16,-5.7 c 35.4,-11.5 61.6,-41.4 67,-78.4 0.1,-0.7 0.1,-0.7 0.3,-1.5 5.1,-31.5 23.8,-59.6 52,-74.9 l 15,-8.2 c 28.1,-15.3 62.3,-16 91.3,-1.9 l 0.7,0.2 c 34.2,15.9 74.1,9.9 103,-13.1 l 12.9,-10.3 c 29.7,-22.9 43.8,-60.6 36.5,-97.5 l 0.2,-0.8 c -6.8,-31.3 1.1,-64.7 22.9,-88.2 l 11.1,-13 c 21.1,-23.7 52.6,-36 84.5,-33.1 0.8,0.1 1.6,0.2 1.6,0.2 37.4,3.1 72.6,-16.4 91.9,-47.6 l 9,-14.1 c 19.5,-31.9 20.7,-72 0.6,-104.3 0,0 0,0 -0.6,-0.9 -16.3,-26.8 -20.2,-60.7 -8.3,-90.9 l 6.1,-15.5 c 12,-30.2 37.5,-52.3 68.4,-60.7 0.7,0.1 0.7,0.1 1.5,0.3 35.9,-9.9 62.9,-40.4 70.4,-76.2 l 3.2,-16.8 c 3.4,-18.3 2.3,-37.5 -4,-54.5 l -186.4,-35 -1730.2,-327.1 -279.6,-52.5 c -2.6,5.1 -4.5,11 -5.5,16.4" /><path
         id="path298"
         style="fill:#50bfa5;fill-opacity:1;fill-rule:nonzero;stroke:none"
         d="m 12638,5064.4 c -82.9,441.6 216.9,868.8 670.1,953.9 451.8,84.8 885,-203.3 969.2,-643.9 l -1639.3,-310" /><path
         id="path300"
         style="fill:#f7cc7f;fill-opacity:1;fill-rule:nonzero;stroke:none"
         d="m 14022.3,5616.8 c 40.7,19.7 89.8,2.7 109.6,-38 19.8,-40.8 2.8,-89.9 -38,-109.6 -40.7,-19.8 -205.8,-49.4 -225.6,-8.7 -19.8,40.8 113.2,136.5 154,156.3" /><path
         id="path302"
         style="fill:#f7cc7f;fill-opacity:1;fill-rule:nonzero;stroke:none"
         d="m 13674.9,5786.9 c 10,44.2 53.9,71.9 98.1,61.9 44.2,-10 71.9,-53.9 61.9,-98.1 -10,-44.2 -90,-191.6 -134.2,-181.6 -44.2,10 -35.8,173.6 -25.8,217.8" /><path
         id="path304"
         style="fill:#f7cc7f;fill-opacity:1;fill-rule:nonzero;stroke:none"
         d="m 13263.8,5742.2 c -18.2,41.5 0.6,89.9 42.1,108.1 41.5,18.2 89.9,-0.6 108.1,-42.1 18.2,-41.5 41.6,-207.6 0.1,-225.8 -41.5,-18.2 -132.1,118.3 -150.3,159.8" /><path
         id="path306"
         style="fill:#f7cc7f;fill-opacity:1;fill-rule:nonzero;stroke:none"
         d="m 12964.4,5525 c -33.5,30.5 -35.9,82.4 -5.4,115.9 30.5,33.5 82.4,35.9 115.9,5.4 33.5,-30.5 122.3,-172.8 91.8,-206.3 -30.6,-33.5 -168.8,54.5 -202.3,85" /><path
         id="path308"
         style="fill:#f7cc7f;fill-opacity:1;fill-rule:nonzero;stroke:none"
         d="m 12810.7,5192.2 c -44.3,9.8 -72.2,53.6 -62.5,97.8 9.8,44.2 53.6,72.2 97.8,62.4 44.3,-9.8 192.1,-89 182.4,-133.2 -9.8,-44.3 -173.5,-36.8 -217.7,-27" /><g
         transform="scale(1.11255)"
         id="g310"><path
           id="path312"
           style="fill:#f47458;fill-opacity:1;fill-rule:nonzero;stroke:none"
           d="m 13145.4,5341.98 c -2560.7,1048.5 -3423.28,4235.21 -1761.6,6433.22 139.9,185 404.3,206.6 573,56.7 1.9,-2.4 117,-92.4 133.3,-257.6 9.8,-98.4 -17.7,-196 -77.3,-274.8 -1354.5,-1792.15 -636.3,-4381.04 1431.4,-5227.66 749.5,-306.96 1546.2,-334.01 2282.3,-110.11 37.4,11.42 76.2,17.26 115.2,17.26 261.9,0 356.9,-229.65 357.5,-230.28 100.8,-216.08 -13.4,-471.45 -241.6,-540.74 -898.3,-272.89 -1889.6,-243.77 -2812.2,134.01" /></g><g
         transform="scale(1.18667)"
         id="g314"><path
           id="path316"
           style="fill:#f7cc7f;fill-opacity:1;fill-rule:nonzero;stroke:none"
           d="m 15374,5404.01 c -604.7,121.26 -666.5,-159.52 -1455.6,-144.1 -666.6,12.97 -752.5,-292.92 -763.1,-388.31 l 1.2,-0.34 c -13.5,-58.23 -35.7,-101.21 -35.7,-101.21 -39,-87.72 -119.3,-395.22 462.7,-720.33 689.1,-384.94 600.8,-658.48 1184,-858.95 509,-174.95 1005.3,100.69 1259,547.15 273.5,481.26 195.1,1170.75 -275.5,1504.71 -112.5,79.8 -241.9,134.24 -377,161.38" /></g><path
         id="path318"
         style="fill:#13375b;fill-opacity:1;fill-rule:nonzero;stroke:none"
         d="m 14878.2,5873.1 -1.3,-0.2 c -1.4,-3.1 113.9,-78 358.9,-130.4 120.6,-19.5 148.9,-34.7 422.6,-45.4 l 12.6,-0.5 c 49.6,-2 51.1,-75.8 1.1,-79.3 -36.7,-2.5 -73.1,-5.3 -109.6,-7.3 -2.1,0 -468.8,-27.3 -749,104.9 -43.7,17.9 -64.6,67.8 -46.7,111.5 17.8,43.6 67.7,64.5 111.4,46.7" /><g
         transform="scale(1.27301)"
         id="g320"><path
           id="path322"
           style="fill:#f8a492;fill-opacity:1;fill-rule:nonzero;stroke:none"
           d="m 16299.1,12291.5 c 0.9,9.5 -260,51.4 -260,51.4 -28.9,3.6 -186.7,56.4 -186.7,56.4 0,0 -406.1,171.1 -429.8,178.9 l -313.8,301.8 -181.6,-167 c 0,0 383.7,-336.1 407.8,-349.2 22.9,-12.6 611,-95.2 649,-108.3 0,0 48,-29.2 78.8,-46.6 30.8,-17.4 67.7,-22.4 77.6,-24.4 22.8,-4.6 78.3,-2.1 78.3,-2.1 0,0 79.7,102.9 80.4,109.1" /></g><g
         transform="scale(1.27139)"
         id="g324"><path
           id="path326"
           style="fill:#f47458;fill-opacity:1;fill-rule:nonzero;stroke:none"
           d="m 16300,12322.1 c 0,0 -50.7,-95.6 -71.5,-107.7 -20.8,-12 -56.9,-6 -56.9,-6 l 128.4,113.7" /></g><g
         transform="scale(1.32677)"
         id="g328"><path
           id="path330"
           style="fill:#f7a491;fill-opacity:1;fill-rule:nonzero;stroke:none"
           d="m 16089.6,9751.41 c -70.6,-4.35 -113.2,24.33 -183.6,8.26 23.6,-60.43 61.6,-444.35 59.1,-465.84 -10.1,-87.04 -66.8,-140.61 -66.8,-140.61 0,0 380.1,-203.89 390.9,-166.86 10.8,37.04 -20.8,24.65 -67.4,126.54 -4.2,9.05 -101.4,115.73 -108.3,300.24 -5.8,158.07 -5.2,252.47 -23.9,338.27" /></g><g
         transform="scale(1.32958)"
         id="g332"><path
           id="path334"
           style="fill:#355389;fill-opacity:1;fill-rule:nonzero;stroke:none"
           d="m 15856.9,9125.06 417.5,-192.65 c 16.1,-5.74 25.6,5.01 23.8,15.17 -3.7,20.94 -67.5,96.56 -110.6,147.07 -100.7,34.3 -251.1,151.25 -256.1,180.29 -29.1,-40.11 -82.2,-144.05 -74.6,-149.88" /></g><g
         transform="scale(1.31437)"
         id="g336"><path
           id="path338"
           style="fill:#f47458;fill-opacity:1;fill-rule:nonzero;stroke:none"
           d="m 14565.9,11588.1 c -7.8,-98.4 -442.2,-25.4 -442.2,-25.4 -16.6,2.8 -27.5,-138.8 -27.6,-146.8 -1.8,-84.8 -41.2,-273 141.4,-437.8 106.1,-95.7 1420.1,-424.2 1449.3,-436.7 113.5,-395.3 243.5,-693.04 408,-1068.78 0,0 43,-13.42 98.3,-12.07 35.4,0.86 106.9,10.34 106.9,10.34 0,0 -162.6,1272.71 -293.1,1455.51 -55.5,77.7 -750.4,234.1 -1169.3,434.6 -191.2,91.5 -271.6,228.3 -271.7,227.1" /></g><g
         transform="scale(1.18971)"
         id="g340"><path
           id="path342"
           style="fill:#13375b;fill-opacity:1;fill-rule:nonzero;stroke:none"
           d="m 15221.4,14548.5 c -193.9,-53 -324.4,-226.2 -307.1,-420.9 -100.2,-49.9 -179.6,-141.3 -212.3,-245.8 -64.5,-205.9 -7.9,-497.8 215.4,-510.8 141.9,-95.3 396,-126.2 521.2,-12 197,-62 368.2,116.2 383.7,361.6 148.5,72.2 253.9,226.1 249.6,389.4 -1,39.2 -5.2,99.2 -2,108.7 -3.3,-12.1 230.1,240.3 -68.8,500.2 -305.1,265.2 -716.1,136.8 -779.7,-170.4" /></g><g
         transform="scale(1.19394)"
         id="g344"><path
           id="path346"
           style="fill:#355389;fill-opacity:1;fill-rule:nonzero;stroke:none"
           d="m 16076.9,13332.8 c 83.6,15.7 193.4,111.4 222.3,241 0.8,3.4 -303.5,329.1 -392,373.6 -8,4 -18.7,9.1 -27.3,8.5 46.5,-135.6 -16,-313.4 13.4,-455.7 2.1,6 173,-169.3 183.6,-167.4" /></g><g
         transform="scale(1.18314)"
         id="g348"><path
           id="path350"
           style="fill:#466eb6;fill-opacity:1;fill-rule:nonzero;stroke:none"
           d="m 15714.2,14073.7 c 0,0 -169.4,-33.4 -234.6,-66.9 -151.3,-77.4 -2,-486.5 11.5,-521.6 23.5,-61.9 238,-495.4 169.4,-769.2 0,0 313.3,-73.6 545.4,2.6 0,0 21.1,656.9 29.9,686.5 8.7,29.7 64.2,127.3 0.8,267.3 -4.6,10.2 -127.7,293.1 -211.8,410.9 -161.1,0.5 -310.6,-9.6 -310.6,-9.6" /></g><g
         transform="scale(1.1664)"
         id="g352"><path
           id="path354"
           style="fill:#f7a491;fill-opacity:1;fill-rule:nonzero;stroke:none"
           d="m 15948.9,14536 c 0,0 -3.5,-193.4 -10.4,-261.1 -7.2,-70.9 66.4,-286.7 214,-307 147.5,-20.2 1.7,243.2 -3.4,314 -5,70.7 9.7,320.9 9.7,320.9 l -209.9,-66.8" /></g><g
         transform="scale(1.15629)"
         id="g356"><path
           id="path358"
           style="fill:#f47458;fill-opacity:1;fill-rule:nonzero;stroke:none"
           d="m 16086.9,14600.7 c 1.6,-0.7 3,-1.5 4.7,-2.2 85,-37.5 154,-22.9 202.5,18.4 3,62.5 5.9,113.5 5.9,113.5 l -211.7,-67.4 c 0,0 -0.4,-26 -1.4,-62.3" /></g><g
         transform="scale(1.16415)"
         id="g360"><path
           id="path362"
           style="fill:#f7a491;fill-opacity:1;fill-rule:nonzero;stroke:none"
           d="m 15970.6,15066.7 c 0,0 -81.9,-32.7 -121.7,-121.6 -39.9,-89 -38.8,-332.3 151.2,-416.1 190,-83.9 299.9,94.1 278.3,247.5 -21.8,153.4 -86.1,352.6 -307.8,290.2" /></g><g
         transform="scale(1.16537)"
         id="g364"><path
           id="path366"
           style="fill:#f7a491;fill-opacity:1;fill-rule:nonzero;stroke:none"
           d="m 16293.7,14831.2 c 6.3,-39.8 -7.3,-75 -30.3,-78.6 -23,-3.6 -46.6,25.7 -52.8,65.5 -6.2,39.8 7.4,75 30.4,78.6 22.9,3.6 46.6,-25.8 52.7,-65.5" /></g><g
         transform="scale(1.14239)"
         id="g368"><path
           id="path370"
           style="fill:#13375b;fill-opacity:1;fill-rule:nonzero;stroke:none"
           d="m 16300,15362.9 c 0,0 -71.4,-267 -164.8,-304.5 -93.5,-37.6 -72.5,-163 -72.5,-163 0,0 -43.1,290.5 37.4,371.3 80.4,80.8 199.9,96.2 199.9,96.2" /></g><g
         transform="scale(1.13544)"
         id="g372"><path
           id="path374"
           style="fill:#f7a491;fill-opacity:1;fill-rule:nonzero;stroke:none"
           d="m 16280.8,15104.4 c 19.2,-38.8 13.7,-80.8 -12.2,-93.8 -26,-13.1 -62.6,7.8 -81.8,46.6 -19.2,38.7 -13.7,80.8 12.3,93.8 25.9,13.1 62.5,-7.8 81.7,-46.6" /></g><path
         id="path376"
         style="fill:#50bfa5;fill-opacity:1;fill-rule:nonzero;stroke:none"
         d="m 10617.4,4606.7 c -86.7,9 -170.5,18.2 -251.4,27.6 -727.77,84.4 -1214.93,182.8 -1383.09,289 1.97,0.3 3.06,0.4 3.06,0.4 0,0 -1.22,0 -3.6,0 -59.17,-0.4 -829.13,0.1 -846.13,310.2 -11.49,210.7 345.37,122.4 355.84,119.8 -13.94,7.3 -844.76,439.2 -698.29,746.9 78.89,165.5 864.42,-187.3 874.41,-191.7 -4.28,5.8 -212.36,289.6 10.55,365.9 225.21,77.1 850.83,-262.4 1167.44,-474.6 117.03,-78.5 200.71,-197.2 352.01,-442.3 166.9,-270.1 326.9,-571.8 419.2,-751.2" /><path
         id="path378"
         style="fill:#3c8f7c;fill-opacity:1;fill-rule:nonzero;stroke:none"
         d="m 8982.91,4923.3 c 1.97,0.3 3.06,0.4 3.06,0.4 0,0 -1.22,0 -3.6,0 -59.17,-0.4 -997.44,52.7 -1014.44,362.8 -11.49,210.7 283.39,176.3 293.86,173.7 -13.94,7.2 -614.47,332.7 -468,640.4 l 1552.38,-885 1019.83,-581.3 c -727.77,84.4 -1214.93,182.8 -1383.09,289" /><path
         id="path380"
         style="fill:#b75742;fill-opacity:1;fill-rule:nonzero;stroke:none"
         d="m 9950.45,7384.8 c -659.54,-1068.4 -456.87,-2389.7 452.65,-2951.2 909.6,-561.5 2181.6,-150.5 2841.1,917.9 10,16.2 -3283.79,2049.4 -3293.75,2033.3" /><path
         id="path382"
         style="fill:#fffc97;fill-opacity:1;fill-rule:nonzero;stroke:none"
         d="m 11764.6,6331.3 -29.2,18 10.6,-58.9 z" /><path
         id="path384"
         style="fill:#ffffe9;fill-opacity:1;fill-rule:nonzero;stroke:none"
         d="m 11746,6290.4 18.6,40.9 -29.2,18 10.6,-58.9 v 0" /><path
         id="path386"
         style="fill:#f7cc7f;fill-opacity:1;fill-rule:nonzero;stroke:none"
         d="m 11851.6,6178.5 294.3,-1649.4 c 410.1,161.4 765.8,457.3 1011.7,843.2 l -1306,806.2" /><path
         id="path388"
         style="fill:#f7cc7f;fill-opacity:1;fill-rule:nonzero;stroke:none"
         d="m 9995.55,5181.6 c 140.05,-217.8 321.75,-396.4 541.05,-531.8 95.3,-58.9 196.9,-108.4 302.6,-147.6 l 808.9,1776.7 -1652.55,-1097.3" /><path
         id="path390"
         style="fill:#f7cc7f;fill-opacity:1;fill-rule:nonzero;stroke:none"
         d="m 9704.77,6362.6 c -25.56,-364 46.58,-725.7 206.15,-1034.7 l 1552.38,1030.8 -1758.53,3.9" /><path
         id="path392"
         style="fill:#f7cc7f;fill-opacity:1;fill-rule:nonzero;stroke:none"
         d="m 10007.8,7316.7 c -146.89,-245.5 -242.29,-509.2 -284.26,-785.5 l 1562.16,-3.4 -1277.9,788.9" /><path
         id="path394"
         style="fill:#f7cc7f;fill-opacity:1;fill-rule:nonzero;stroke:none"
         d="m 11001.3,4451 c 317.2,-83.3 653.9,-75.7 983.1,22.4 L 11710.5,6008.9 11001.3,4451" /><path
         id="path396"
         style="fill:#fae0b2;fill-opacity:1;fill-rule:nonzero;stroke:none"
         d="m 11120.8,4510 554.2,1217.4 212.9,-1193.2 c -257.2,-65.5 -517.5,-73.7 -767.1,-24.2 z m -539.9,211.6 c -184.9,114.1 -341.7,260.7 -467.7,436.9 l 1336,887.1 -653.4,-1435.3 c -74.5,31.8 -146.4,69 -214.9,111.3 z m 2458.1,624.8 c -213.1,-306.7 -500.4,-548.4 -828.7,-698.3 l -242.5,1359.6 z m -3094.14,105.3 c -113.43,252.8 -168.61,537.5 -159.89,826.4 l 1399.73,-3.1 z m -120.81,1163.7 c 40.89,203 112.4,398.4 213.65,583.7 l 949.7,-586.3 z M 13246.4,5355 c 9.2,15 17.6,30.2 26.5,45.3 l -1537.3,948.5 -0.2,0.5 c -83.6,51.7 -1663.1,1026.7 -1754.21,1083 -202.39,-311.9 -317.26,-647.4 -353.57,-985.2 -47.3,-440 41.41,-876.1 253.55,-1240.2 h -0.01 c 146.44,-251.4 351.44,-468.6 611.14,-628.9 125.3,-77.3 256.8,-137.1 391.9,-180.6 388,-125 806.2,-113.6 1196.3,18 459.9,155.3 880.6,477.5 1165.9,939.6" /><g
         transform="scale(1.67531)"
         id="g398"><path
           id="path400"
           style="fill:#9bc1f9;fill-opacity:1;fill-rule:nonzero;stroke:none"
           d="m 15250.5,3266.09 -282.8,-137.53 c 209.9,-43.63 324.8,-90.91 324.8,-140.33 0,-217.81 -2231.8,-394.38 -4984.7,-394.38 -2685.2,0 -4874.46,167.97 -4980.67,378.38 l -629.78,116.76 c -197.3,-70.2 -304.23,-145.35 -304.23,-223.43 0,-390.07 2665.47,-706.25 5953.48,-706.25 3288,0 5953.4,316.18 5953.4,706.25 0,148.75 -387.6,286.7 -1049.5,400.53" /></g><path
         id="path402"
         style="fill:#3c8f7c;fill-opacity:1;fill-rule:nonzero;stroke:none"
         d="m 9735.13,4728 c -28.84,18.4 -801.08,232.6 -810.55,251.4 l -882.51,163.7 C 8259.53,4966 9683.88,4727.6 9735.13,4728" /><g
         transform="scale(1.50729)"
         id="g404"><path
           id="path406"
           style="fill:#184655;fill-opacity:1;fill-rule:nonzero;stroke:none"
           d="m 16300,3134.69 c 0,-159.09 -202.8,-288.07 -453.1,-288.07 -250.1,0 -453,128.98 -453,288.07 0,159.09 202.9,288.13 453,288.13 250.3,0 453.1,-129.04 453.1,-288.13" /></g><g
         transform="scale(1.39324)"
         id="g408"><path
           id="path410"
           style="fill:#184655;fill-opacity:1;fill-rule:nonzero;stroke:none"
           d="m 16300,3750.47 c 0,0 -0.4,-709.64 -657.7,-887.22 -657.3,-177.57 -1738.2,215.55 -1845.8,362.33 -88.2,120.36 -89.1,252.14 -74.9,394.04 12.2,122.88 43.2,50.68 458.4,202.48 415.2,151.88 466.3,21.96 868,253.73 401.8,231.76 1235.1,153.52 1252,-325.36" /></g><g
         transform="scale(1.39372)"
         id="g412"><path
           id="path414"
           style="fill:#3c8f7c;fill-opacity:1;fill-rule:nonzero;stroke:none"
           d="m 13943.2,3375.71 c -88.9,29.84 -160.9,94.71 -202.7,178.58 -0.3,0.43 -0.5,0.79 -0.7,1.22 -55.8,110.07 -42.6,254.14 372.4,405.96 415,151.75 499,96.22 900.6,327.83 401.7,231.68 1270.3,-52.16 1287.2,-530.88 0,0 0,-35.88 -9.7,-72.47 -109.6,-212.23 -306.4,-422.61 -659.5,-507.34 -486.3,-116.67 -1181.6,26.9 -1687.6,197.1" /></g><g
         transform="scale(1.38802)"
         id="g416"><path
           id="path418"
           style="fill:#f7cc7f;fill-opacity:1;fill-rule:nonzero;stroke:none"
           d="m 16221.5,3607.36 c 71.1,98.56 78.5,229.89 15.8,334 -190.5,316.27 -821.4,485.22 -1129.4,307.56 -260.6,-150.36 -392.5,-184.01 -559.5,-226.66 -166.9,-42.57 -842.8,-182.2 -691.5,-464.47 81.7,-152.45 363.1,-169.16 511.7,-207.99 145.6,-38.04 292.8,-69.89 441.4,-93.23 147.7,-23.2 331.4,-63.33 480.7,-40.42 106.3,16.36 622.9,-35.08 930.8,391.21" /></g><g
         transform="scale(1.35273)"
         id="g420"><path
           id="path422"
           style="fill:#b75742;fill-opacity:1;fill-rule:nonzero;stroke:none"
           d="m 15644.7,4190.05 c -306.8,-51.53 -526.7,-264.73 -491.2,-476.23 35.6,-211.5 313,-341.23 619.8,-289.71 306.8,51.53 526.7,264.73 491.2,476.23 -35.5,211.49 -313,341.23 -619.8,289.71" /></g><path
         id="path424"
         style="fill:#f47458;fill-opacity:1;fill-rule:nonzero;stroke:none"
         d="m 6935.58,9922 c -95.8,-93.6 -211.61,-57.3 -345.7,-54.3 -90.02,1.9 -179.58,-122.7 -200.04,-229.8 -51.82,-271.3 -216.33,-101.8 -413.85,-166.3 -475.76,-155.2 -296.56,-935.2 -4.8,-1009.2 98.71,-25 280.43,-106.8 328.24,-138.9 144.1,-96.8 422.95,-11.5 636.26,105.2 213.31,116.7 88.99,222.8 164.8,329.3 75.81,106.5 253.56,7.5 356.05,243.1 110.86,254.8 130.66,495 68.61,653.4 -102.68,262.1 -383.11,354.3 -504.81,316.3 -36.26,-11.3 -63.86,-28.4 -84.76,-48.8" /><path
         id="path426"
         style="fill:#f7a491;fill-opacity:1;fill-rule:nonzero;stroke:none"
         d="m 7868.67,4001.3 c -47.48,-214.8 -122.21,-402.6 -132.29,-424.7 -4.85,-10.6 -49.09,-48.4 -54.38,-59.2 13.91,-264.4 176.48,-426.8 330.32,-543.9 -29.62,134.2 -100.51,289.3 -89.66,318.5 17.28,46.5 85.66,259.2 224.82,524.9 -130.75,19.3 -174.73,100.7 -278.81,184.4" /><path
         id="path428"
         style="fill:#b75742;fill-opacity:1;fill-rule:nonzero;stroke:none"
         d="m 7274.38,7141.3 -819.7,-622.6 c 0,0 405.86,-390.4 558.14,-535.6 152.27,-145.1 965.99,-754.9 979.24,-788.1 9.84,-24.7 -145.07,-943 -232.28,-1282.4 86.64,-88.6 277.44,-175.4 390.43,-204 218.12,548 493.39,1459 493.39,1584.7 0,142.8 -1369.22,1848 -1369.22,1848" /><path
         id="path430"
         style="fill:#f7a491;fill-opacity:1;fill-rule:nonzero;stroke:none"
         d="m 4974.95,5899.2 c 26.79,-26.1 204.76,-372.7 272.46,-558.3 99.12,62.4 159.06,136.8 269.81,178.8 -87.37,126.4 -257.76,430.6 -271.76,503 -33.22,171.8 -72.22,197.1 -72.22,197.1 0,0 -575.89,-194.8 -614.25,-249.4 -38.36,-54.6 308.3,33.8 415.96,-71.2" /><path
         id="path432"
         style="fill:#f47458;fill-opacity:1;fill-rule:nonzero;stroke:none"
         d="m 5252.18,5984.6 c 44.68,-0.1 -3.87,201.8 -14.11,248.3 -11.52,52.4 -41.83,68 -49.38,69.9 -20.42,5.1 -660.44,-211.5 -768.57,-289.2 -7.31,-5.3 -20.45,-21.9 -22.46,-25.7 -59.24,-110.5 468.39,-131.5 544.32,-83.2 67.54,42.9 109.23,80.5 310.2,79.9" /><path
         id="path434"
         style="fill:#f47458;fill-opacity:1;fill-rule:nonzero;stroke:none"
         d="m 7447.77,6955 c 0,0 -713.7,291.6 -713.81,291.6 2.85,-1.2 -4.32,-29.1 -4.88,-31.2 -67.16,-261.3 -425.21,-160.6 -572.95,-614.3 -104.38,-320.6 -257.29,-1519.8 -257.29,-1519.8 0,0 -108.37,206.1 -445,585.4 -26.09,29.4 -357.76,-198.4 -357.76,-198.4 246.64,-653.8 852.31,-1185.2 934.3,-1147.6 554.04,254.2 1219.52,2259.8 1218.68,2259.7 62.97,122.6 198.71,374.6 198.71,374.6" /><path
         id="path436"
         style="fill:#f7a491;fill-opacity:1;fill-rule:nonzero;stroke:none"
         d="m 7414.06,8902.1 c 0,0 59.48,58.7 133.73,146.8 177.44,210.4 473.6,577.4 491.87,630.7 22.47,65.5 -26.53,1009.6 -32.06,1069.5 -5.53,59.8 -208.37,223.3 -176.4,270.3 31.97,47.1 311.93,85.4 358.91,76.2 46.98,-9.1 138.37,-0.8 175.7,-38.6 4.86,-4.9 -105.97,-248.3 -104.02,-282.6 13.36,-234.6 119.83,-955 119.83,-1161.6 0,-148.6 -704.63,-955.5 -704.63,-955.5 l -262.93,244.8" /><path
         id="path438"
         style="fill:#f47257;fill-opacity:1;fill-rule:nonzero;stroke:none"
         d="m 8190.11,11095.6 c -46.98,9.2 -326.94,-29.1 -358.91,-76.2 -9.59,-14.1 1.95,-38.6 22.96,-67.8 88.64,-7.4 181.68,-23.2 273.74,-23.2 67.97,0 133.92,12.3 199.39,28.5 21.42,56.9 40.83,97.7 38.52,100.1 -37.33,37.8 -128.72,29.5 -175.7,38.6" /><path
         id="path440"
         style="fill:#f7a491;fill-opacity:1;fill-rule:nonzero;stroke:none"
         d="m 6257.27,8758.7 c 0,0 -897.73,-22.3 -1094.83,-38.5 -197.11,-16.2 -912.27,43.3 -939.98,46.5 -27.71,3.3 -210.92,313.5 -241.37,280.2 -30.45,-33.3 101.95,-153.8 61,-185.1 -40.95,-31.3 -480.82,38.8 -474.98,6.2 10.92,-60.8 267.55,-53.1 267.28,-82.4 -0.25,-29.4 -268.58,16.5 -286.78,-32.3 -18.2,-48.8 258.12,-19.9 269.15,-41.7 11.02,-21.7 -256.28,-61.6 -228.93,-106.9 14.86,-24.7 236.84,41.1 235.75,7.5 -1.07,-33.5 -163.03,-109.9 -143.16,-136.7 19.86,-26.7 127.1,82.1 221.07,83.5 93.98,1.3 161.26,50.3 311.27,9.2 150,-41.2 661.31,-247.3 981.35,-232.2 320.05,15.2 1027.31,46.8 1027.31,46.8 l 35.85,375.9" /><path
         id="path442"
         style="fill:#355389;fill-opacity:1;fill-rule:nonzero;stroke:none"
         d="m 7574.99,7905.9 c 12.23,148.1 123.47,285.8 22.67,553.1 -5.74,149.7 228.68,329.9 262.94,394.4 0,0 -168.31,200.6 -304.31,238 0,0 -273.61,-198.9 -403.39,-266.6 -1.9,0.5 -45.92,-19.6 -65.27,-19.5 -125.32,0.9 -563.18,14.2 -644.91,-10.2 l 42.01,-592.3 c 23.55,-38.8 137.67,-93.3 172.26,-1015.4 3.01,-80.3 674.82,-307.5 791.63,-232.4 2.76,1.8 38.36,209.1 68.57,456.8 20.75,170 47.74,372.2 57.8,494.1" /><path
         id="path444"
         style="fill:#355389;fill-opacity:1;fill-rule:nonzero;stroke:none"
         d="m 6670.78,8779.4 c -80.77,38.6 -670.81,37.3 -670.81,37.3 0,0 -50.42,-418.6 15.56,-516.4 0,0 491.35,-66.2 476.48,-109.1 l 178.77,588.2" /><path
         id="path446"
         style="fill:#f47458;fill-opacity:1;fill-rule:nonzero;stroke:none"
         d="m 7734.15,3570.3 c -15.08,42 -186.38,-84.5 -226.64,-109.9 -45.29,-28.6 -49.73,-62.5 -48.92,-70.2 2.14,-20.4 408.37,-557.6 529.95,-634.1 11.48,-7.2 36.12,-8.2 43.48,-5.7 69.84,24.2 -27.57,455.6 -115.13,543.2 -56.59,56.6 -114.91,87.5 -182.74,276.7" /><path
         id="path448"
         style="fill:#f7a491;fill-opacity:1;fill-rule:nonzero;stroke:none"
         d="m 7836.05,11012 c -26.83,-39.5 118.8,-164.5 159.19,-233.6 l 91.45,124.6 c -45.07,8.8 -219.96,154.1 -250.64,109" /><path
         id="path450"
         style="fill:#f7a491;fill-opacity:1;fill-rule:nonzero;stroke:none"
         d="m 7014.96,9150.3 c 0,0 -50.77,-221.2 -94.23,-298.2 -43.45,-76.9 -10.26,-391 159.56,-467.1 169.82,-76.2 68.18,353.3 87,439.2 18.83,85.9 122.93,331.5 122.93,331.5 l -275.26,-5.4" /><path
         id="path452"
         style="fill:#f47458;fill-opacity:1;fill-rule:nonzero;stroke:none"
         d="m 7239.6,9031.8 c 26.87,67.8 50.62,123.9 50.62,123.9 l -275.26,-5.4 c 0,0 -10.38,-45.2 -25.77,-101.9 91.02,-64.3 179.77,-59.3 250.41,-16.6" /><path
         id="path454"
         style="fill:#f7a491;fill-opacity:1;fill-rule:nonzero;stroke:none"
         d="m 7180.4,9749.8 c 0,0 -109.53,-9.9 -188.46,-101.4 -78.93,-91.5 -163.04,-380.6 35.02,-546.9 198.05,-166.4 392.05,6.2 419.99,195.8 27.93,189.6 20.79,448.6 -266.55,452.5" /><path
         id="path456"
         style="fill:#f7a491;fill-opacity:1;fill-rule:nonzero;stroke:none"
         d="m 7504.33,9350.2 c -24.53,-43.4 -64.9,-67 -90.19,-52.7 -25.28,14.3 -25.9,61 -1.38,104.4 24.53,43.5 64.9,67 90.18,52.8 25.28,-14.3 25.91,-61.1 1.39,-104.5" /><path
         id="path458"
         style="fill:#f7a491;fill-opacity:1;fill-rule:nonzero;stroke:none"
         d="m 6953.54,9384.8 c 9.14,-51.5 -11.65,-98.2 -46.44,-104.4 -34.78,-6.2 -70.4,30.5 -79.54,82 -9.14,51.5 11.64,98.2 46.43,104.4 34.79,6.1 70.4,-30.6 79.55,-82" /><path
         id="path460"
         style="fill:#fae0b2;fill-opacity:1;fill-rule:nonzero;stroke:none"
         d="m 9591.12,11879.4 c 0,-513.4 -646.21,-929.6 -1443.36,-929.6 -797.14,0 -1443.36,416.2 -1443.36,929.6 0,513.4 646.22,929.6 1443.36,929.6 797.15,0 1443.36,-416.2 1443.36,-929.6" /><path
         id="path462"
         style="fill:#f7cc7f;fill-opacity:1;fill-rule:nonzero;stroke:none"
         d="m 8627.64,11922.7 c 0,-316.1 -328.84,-572.3 -734.49,-572.3 -405.65,0 -734.49,256.2 -734.49,572.3 0,316.1 328.84,572.4 734.49,572.4 405.65,0 734.49,-256.3 734.49,-572.4" /><path
         id="path464"
         style="fill:#f7a491;fill-opacity:1;fill-rule:nonzero;stroke:none"
         d="m 7836.05,11012 c -26.83,-39.5 118.8,-164.5 159.19,-233.6 l 91.45,124.6 c -45.07,8.8 -219.96,154.1 -250.64,109" /><path
         id="path466"
         style="fill:#3c8f7c;fill-opacity:1;fill-rule:nonzero;stroke:none"
         d="m 11351.1,12149.8 c -57.6,-194.6 -306.7,-292.5 -556.3,-218.6 -249.6,73.9 -405.3,291.5 -347.7,486.1 57.6,194.6 306.7,292.5 556.3,218.6 249.6,-73.9 405.3,-291.5 347.7,-486.1" /><path
         id="path468"
         style="fill:#184655;fill-opacity:1;fill-rule:nonzero;stroke:none"
         d="m 11307.7,12191.1 c 0,-58.2 -47.2,-105.5 -105.5,-105.5 -58.2,0 -105.4,47.3 -105.4,105.5 0,58.3 47.2,105.5 105.4,105.5 58.3,0 105.5,-47.2 105.5,-105.5" /><g
         transform="scale(1.428)"
         id="g470"><path
           id="path472"
           style="fill:#3c8f7c;fill-opacity:1;fill-rule:nonzero;stroke:none"
           d="m 16184,7846.06 c 113.4,-85.79 116,-273.17 6,-418.52 -110.1,-145.35 -291.1,-193.64 -404.4,-107.85 -113.3,85.79 -116,273.17 -6,418.52 110.1,145.35 291.2,193.63 404.4,107.85" /></g><g
         transform="scale(1.41956)"
         id="g474"><path
           id="path476"
           style="fill:#184655;fill-opacity:1;fill-rule:nonzero;stroke:none"
           d="m 16242.2,7874.32 c 38.4,-14.46 57.8,-57.31 43.4,-95.71 -14.6,-38.4 -57.4,-57.8 -95.8,-43.33 -38.4,14.46 -57.8,57.31 -43.3,95.71 14.4,38.4 57.3,57.8 95.7,43.33" /></g><g
         transform="scale(1.46753)"
         id="g478"><path
           id="path480"
           style="fill:#184655;fill-opacity:1;fill-rule:nonzero;stroke:none"
           d="m 16300,8327.41 c 0,-46.05 -43.5,-83.39 -97.2,-83.39 -53.8,0 -97.3,37.34 -97.3,83.39 0,46.06 43.5,83.39 97.3,83.39 53.7,0 97.2,-37.33 97.2,-83.39" /></g><g
         transform="scale(1.22017)"
         id="g482"><path
           id="path484"
           style="fill:#184655;fill-opacity:1;fill-rule:nonzero;stroke:none"
           d="m 16300,7713.13 c 0,-55.4 -52.4,-100.31 -117,-100.31 -64.6,0 -117,44.91 -117,100.31 0,55.41 52.4,100.32 117,100.32 64.6,0 117,-44.91 117,-100.32" /></g><path
         id="path486"
         style="fill:#184655;fill-opacity:1;fill-rule:nonzero;stroke:none"
         d="m 12496.5,6916.1 c 0,-90.1 -73,-163.2 -163.2,-163.2 -90.1,0 -163.1,73.1 -163.1,163.2 0,90.1 73,163.2 163.1,163.2 90.2,0 163.2,-73.1 163.2,-163.2" /><path
         id="path488"
         style="fill:#f7cc7f;fill-opacity:1;fill-rule:nonzero;stroke:none"
         d="m 13004.7,10060.4 c 93.8,75.1 136.8,241 142,343.9 6.7,133.8 -32.7,272.5 -110.9,390.6 -77.8,117.4 -189.4,207.5 -314.2,253.8 -96.1,35.6 -206.9,48.2 -308.2,19.3 -45.3,-12.9 -104.7,-33.4 -128.6,-75.3 -27.5,-48.3 -18.9,-112.1 10.8,-157 46.2,-69.8 135,-92.3 198.4,-50.3 0.1,0.1 0.3,0.2 0.4,0.3 l 319.6,-488 c -0.4,-0.2 -0.7,-0.4 -1,-0.6 -63.4,-42 -77.3,-132.5 -31.1,-202.3 34.1,-51.5 101,-85.2 162.6,-66.7 22,6.7 42,17.8 60.2,32.3" /><path
         id="path490"
         style="fill:#fae0b2;fill-opacity:1;fill-rule:nonzero;stroke:none"
         d="m 12801.3,10107.6 c -39.1,58.9 -28.1,135.1 24.3,170 0.4,0.2 0.7,0.4 1,0.6 5.2,3.4 8.8,8.7 10,14.7 1.3,6 0.1,12.3 -3.2,17.5 0,0 -319.6,488.1 -319.6,488.1 -3.5,5.3 -9,8.9 -15.2,10 -6.2,1.1 -12.6,-0.3 -17.7,-3.9 -52.6,-34.7 -127,-15 -166,43.9 -27.1,40.9 -31.2,95.5 -10,132.7 19.2,33.6 71.5,52.1 114.9,64.5 88.6,25.3 192.9,18.6 293.7,-18.8 120.3,-44.5 227.9,-131.5 302.9,-244.8 75.5,-114 113.6,-247.8 107.1,-376.6 -4.6,-92.2 -43.9,-255.4 -133.3,-327 -16.5,-13.2 -34.1,-22.7 -52.4,-28.2 -54,-16.2 -109.5,16.5 -136.5,57.3 v 0" /><path
         id="path492"
         style="fill:#fae0b2;fill-opacity:1;fill-rule:nonzero;stroke:none"
         d="m 12234.1,10030.1 c -130.1,69.4 -201.7,177.6 -214.9,324.4 173.4,161.6 368.3,290.7 584.7,387.3 130.1,-69.4 201.8,-177.5 214.9,-324.4 -173.4,-161.5 -368.3,-290.6 -584.7,-387.3" /><path
         id="path494"
         style="fill:#f7cc7f;fill-opacity:1;fill-rule:nonzero;stroke:none"
         d="m 12655.1,10645.9 c 0,0 -163.8,289.1 -177.2,282.2 -47.6,-24.1 177.2,-282.2 177.2,-282.2" /><path
         id="path496"
         style="fill:#f7cc7f;fill-opacity:1;fill-rule:nonzero;stroke:none"
         d="m 12674.3,10647.7 c 0,0 -64.5,325.9 -79.4,323.6 -52.8,-8 79.4,-323.6 79.4,-323.6" /><path
         id="path498"
         style="fill:#f7cc7f;fill-opacity:1;fill-rule:nonzero;stroke:none"
         d="m 12696.4,10641.2 c 0,0 59.3,326.9 44.5,330.3 -51.9,11.9 -44.5,-330.3 -44.5,-330.3" /><path
         id="path500"
         style="fill:#f7cc7f;fill-opacity:1;fill-rule:nonzero;stroke:none"
         d="m 12717.3,10622.5 c 0,0 203.4,262.7 191.9,272.5 -40.6,34.5 -191.9,-272.5 -191.9,-272.5" /><path
         id="path502"
         style="fill:#f7cc7f;fill-opacity:1;fill-rule:nonzero;stroke:none"
         d="m 12725.8,10603.3 c 0,0 276.2,184.7 268.4,197.6 -27.6,45.7 -268.4,-197.6 -268.4,-197.6" /><path
         id="path504"
         style="fill:#f7cc7f;fill-opacity:1;fill-rule:nonzero;stroke:none"
         d="m 12739.6,10522.7 c 0,0 230.8,-239 220.4,-250 -36.6,-38.7 -220.4,250 -220.4,250" /><path
         id="path506"
         style="fill:#f7cc7f;fill-opacity:1;fill-rule:nonzero;stroke:none"
         d="m 12747,10544.5 c 0,0 302.2,-138 296.5,-152 -19.9,-49.4 -296.5,152 -296.5,152" /><path
         id="path508"
         style="fill:#f7cc7f;fill-opacity:1;fill-rule:nonzero;stroke:none"
         d="m 12743.6,10572.3 c 0,0 331.8,17.1 333.2,2.1 5.2,-53.1 -333.2,-2.1 -333.2,-2.1" /><path
         id="path510"
         style="fill:#f7cc7f;fill-opacity:1;fill-rule:nonzero;stroke:none"
         d="m 12732.6,10590.3 c 0,0 309.3,121.3 315.5,107.5 21.7,-48.7 -315.5,-107.5 -315.5,-107.5" /><g
         transform="scale(1.64285)"
         id="g512"><path
           id="path514"
           style="fill:#f7cc7f;fill-opacity:1;fill-rule:nonzero;stroke:none"
           d="m 16048.7,2916.7 c 91.8,31.47 169.8,145.73 201.7,222.48 41.6,99.83 49.6,215.97 22.4,327.06 -27,110.36 -87.2,209.27 -169.4,278.48 -63.3,53.32 -144,93.07 -228.8,98.79 -38.1,2.56 -88.8,3.23 -118.4,-22.09 -34,-29.22 -44.9,-80.05 -34.6,-122.23 16.1,-65.62 77.4,-106.95 137,-92.4 0.2,0.06 0.3,0.12 0.5,0.12 l 109.5,-457.92 c -0.3,-0.07 -0.6,-0.13 -1,-0.19 -59.5,-14.61 -94.8,-79.55 -78.7,-145.17 11.8,-48.39 53.4,-92.34 105.3,-95.02 18.5,-0.97 36.8,2.01 54.5,8.09" /></g><g
         transform="scale(1.64091)"
         id="g516"><path
           id="path518"
           style="fill:#fae0b2;fill-opacity:1;fill-rule:nonzero;stroke:none"
           d="m 15925.8,3011.61 c -13.6,55.46 15.6,110.43 64.9,122.62 0.4,0.12 0.7,0.18 1,0.24 4.8,1.16 9,4.15 11.6,8.41 2.7,4.27 3.5,9.33 2.3,14.2 0,0 -109.7,458.53 -109.7,458.59 -1.2,4.94 -4.4,9.14 -8.8,11.7 -4.4,2.56 -9.6,3.23 -14.5,1.83 -49.5,-11.95 -100.7,23.34 -114.2,78.79 -9.5,38.52 2.3,81.18 28.6,103.67 23.8,20.35 68.6,20.17 105,17.67 74.3,-5 151.8,-38.58 218.3,-94.52 79.3,-66.79 137.4,-162.29 163.4,-268.94 26.3,-107.38 18.7,-219.51 -21.4,-315.73 -28.7,-68.87 -103.2,-182.22 -190.8,-212.26 -16.1,-5.55 -32.1,-7.99 -47.5,-7.13 -45.5,2.37 -78.8,42.47 -88.2,80.86 v 0" /></g><g
         transform="scale(1.61614)"
         id="g520"><path
           id="path522"
           style="fill:#fae0b2;fill-opacity:1;fill-rule:nonzero;stroke:none"
           d="m 15710.4,3155.29 c -36.1,39.85 -61.1,82.42 -75.1,127.72 -29.5,95.1 24.2,195.96 118.3,228.5 142,49.13 288.6,79.39 439.9,90.77 81.2,-89.72 106.5,-193.11 75.9,-310.12 -178.7,-76.66 -365,-122.26 -559,-136.87" /></g><g
         transform="scale(1.60686)"
         id="g524"><path
           id="path526"
           style="fill:#f7cc7f;fill-opacity:1;fill-rule:nonzero;stroke:none"
           d="m 16300,3534.34 c 0,0 -46.6,270.21 -58.9,268.65 -43.7,-5.53 58.9,-268.65 58.9,-268.65" /></g><g
         transform="scale(1.6124)"
         id="g528"><path
           id="path530"
           style="fill:#f7cc7f;fill-opacity:1;fill-rule:nonzero;stroke:none"
           d="m 16259.3,3518.16 c 0,0 40.7,270.22 28.5,272.64 -43,8.49 -28.5,-272.64 -28.5,-272.64" /></g><g
         transform="scale(1.62342)"
         id="g532"><path
           id="path534"
           style="fill:#f7cc7f;fill-opacity:1;fill-rule:nonzero;stroke:none"
           d="m 16164.2,3483.26 c 0,0 135.8,234.93 125.4,241.58 -36.7,23.47 -125.4,-241.58 -125.4,-241.58" /></g><g
         transform="scale(1.63378)"
         id="g536"><path
           id="path538"
           style="fill:#f7cc7f;fill-opacity:1;fill-rule:nonzero;stroke:none"
           d="m 16072.6,3441.16 c 0,0 227.4,144.82 221.3,155.47 -21.6,37.52 -221.3,-155.47 -221.3,-155.47" /></g><g
         transform="scale(1.63733)"
         id="g540"><path
           id="path542"
           style="fill:#f7cc7f;fill-opacity:1;fill-rule:nonzero;stroke:none"
           d="m 16039,3416.73 c 0,0 261,65.17 258.6,77.14 -8.5,42.33 -258.6,-77.14 -258.6,-77.14" /></g><g
         transform="scale(1.62103)"
         id="g544"><path
           id="path546"
           style="fill:#f7cc7f;fill-opacity:1;fill-rule:nonzero;stroke:none"
           d="m 16188.5,3385.19 c 0,0 111.5,-247.87 100.5,-253.42 -38.9,-19.74 -100.5,253.42 -100.5,253.42" /></g><g
         transform="scale(1.63045)"
         id="g548"><path
           id="path550"
           style="fill:#f7cc7f;fill-opacity:1;fill-rule:nonzero;stroke:none"
           d="m 16106.6,3380.3 c 0,0 193.4,-188.72 185.2,-197.86 -28.8,-32.39 -185.2,197.86 -185.2,197.86" /></g><g
         transform="scale(1.63748)"
         id="g552"><path
           id="path554"
           style="fill:#f7cc7f;fill-opacity:1;fill-rule:nonzero;stroke:none"
           d="m 16042.5,3387.95 c 0,0 257.5,-77.86 254.5,-89.71 -10.6,-41.83 -254.5,89.71 -254.5,89.71" /></g><g
         transform="scale(1.6387)"
         id="g556"><path
           id="path558"
           style="fill:#f7cc7f;fill-opacity:1;fill-rule:nonzero;stroke:none"
           d="m 16027.1,3402.09 c 0,0 268.8,7.75 269.7,-4.46 3.2,-43.02 -269.7,4.46 -269.7,4.46" /></g><g
         transform="scale(1.36964)"
         id="g560"><path
           id="path562"
           style="fill:#f7cc7f;fill-opacity:1;fill-rule:nonzero;stroke:none"
           d="m 16193,7252.14 c -128.9,68.28 -354.8,54.23 -475.5,13.28 -159,-49.13 -286.9,-151.35 -354.5,-268.54 -68.2,-116.89 -74.9,-238.82 -38.7,-339.5 27.8,-78.12 81.9,-150.19 154.4,-199.1 32.8,-21.83 75.9,-50.09 116.9,-46.66 47.1,4.16 90.3,36.94 113.1,76.15 35.4,60.53 19.4,133.62 -45.9,159.9 -0.2,0.07 -0.4,0.07 -0.6,0.15 89.3,144.19 201.5,281.31 335,405.14 0.4,-0.22 0.7,-0.44 1.1,-0.66 71.9,-37.67 173.3,-32.2 236.9,13.44 46.5,33.95 64.8,92.28 19.8,141.35 -16,17.37 -37.1,32.41 -62,45.05" /></g><g
         transform="scale(1.36716)"
         id="g564"><path
           id="path566"
           style="fill:#fae0b2;fill-opacity:1;fill-rule:nonzero;stroke:none"
           d="m 16243.5,7092.73 c -53.7,-39.27 -140,-44.69 -200,-12.94 -0.5,0.22 -0.7,0.44 -1.1,0.58 -5.9,3.22 -13.3,4.69 -20.4,4.17 -7.2,-0.58 -13.6,-3.14 -17.9,-7.17 0.3,0.52 -101.3,-94.06 -183,-197.41 -85,-102.04 -150.4,-212.78 -150.4,-212.34 -2.8,-4.68 -3.3,-10.1 -1.4,-14.85 2,-4.75 6.2,-8.56 11.6,-10.46 53.8,-21.5 67.7,-82.8 38.1,-134.44 -20.5,-36.06 -59.2,-62.46 -96,-65.68 -33.3,-2.78 -71.8,22.24 -103.1,43.52 -63.3,43.52 -117.1,109.72 -145.5,192.08 -33.8,97.65 -25.7,215.19 40.8,327.39 66.1,112.42 189.5,209.85 342,256.45 107.5,36.42 326.4,53.56 449.1,-10.9 22.5,-11.27 40.7,-24.43 54.1,-38.7 39.6,-42.57 19.7,-91.87 -16.9,-119.3 v 0" /></g><g
         transform="scale(1.37012)"
         id="g568"><path
           id="path570"
           style="fill:#fae0b2;fill-opacity:1;fill-rule:nonzero;stroke:none"
           d="m 16300,6699.87 c -51.4,-107 -132.5,-171.37 -237.6,-212.69 -133,91.82 -274,176.71 -426.9,258.67 10.5,111.6 78.2,212.83 212.7,281.95 207,-48.03 361.2,-169.84 451.8,-327.93" /></g><g
         transform="scale(1.32029)"
         id="g572"><path
           id="path574"
           style="fill:#f7cc7f;fill-opacity:1;fill-rule:nonzero;stroke:none"
           d="m 16300,7073.95 c -7.1,2.8 -185.5,-249.49 -165.9,-257.44 37.4,-19.01 159.8,258.58 165.9,257.44" /></g><g
         transform="scale(1.3194)"
         id="g576"><path
           id="path578"
           style="fill:#f7cc7f;fill-opacity:1;fill-rule:nonzero;stroke:none"
           d="m 16300,7091.98 c -7.3,6.07 -271.2,-201.68 -253.4,-215.4 27.9,-25.84 245.3,219.5 253.4,215.4" /></g><g
         transform="scale(1.31905)"
         id="g580"><path
           id="path582"
           style="fill:#f7cc7f;fill-opacity:1;fill-rule:nonzero;stroke:none"
           d="m 16299.8,7112.85 c 0.2,0.08 -88.8,-23.88 -172.7,-58.37 -84.5,-33.13 -163.8,-76.8 -160.6,-82.26 10.5,-19.86 87.9,22.74 169.1,62.24 80.1,40.79 164.1,78.39 164.2,78.39" /></g><g
         transform="scale(1.31971)"
         id="g584"><path
           id="path586"
           style="fill:#f7cc7f;fill-opacity:1;fill-rule:nonzero;stroke:none"
           d="m 16299.8,7132.62 c 0.2,-0.15 -91.3,10.08 -184.8,7.95 -93.4,-0.37 -188.9,-13.18 -189.6,-19.85 -3.4,-23.41 89.9,-10.08 184.4,-2.12 94.3,9.7 189.9,14.02 190,14.02" /></g><g
         transform="scale(1.32093)"
         id="g588"><path
           id="path590"
           style="fill:#f7cc7f;fill-opacity:1;fill-rule:nonzero;stroke:none"
           d="m 16299.8,7140.33 c 0.2,-0.22 -80.6,32.33 -167.6,54.44 -86.3,23.54 -178.8,36.63 -182.6,30.13 -14.2,-22.72 77.2,-34.15 167.9,-50.42 91.4,-14.69 182.3,-34.07 182.3,-34.15" /></g><g
         transform="scale(1.34582)"
         id="g592"><path
           id="path594"
           style="fill:#f7cc7f;fill-opacity:1;fill-rule:nonzero;stroke:none"
           d="m 16073.1,7049.82 c -5.1,1.56 148.5,256.12 171.3,249.07 55.6,-15.16 -178.4,-245.43 -171.3,-249.07" /></g><g
         transform="scale(1.33179)"
         id="g596"><path
           id="path598"
           style="fill:#f7cc7f;fill-opacity:1;fill-rule:nonzero;stroke:none"
           d="m 16216.5,7121.27 c -0.4,0 -2.5,278.05 17.6,279.17 65.9,3.45 -21,-278.87 -17.6,-279.17" /></g><g
         transform="scale(1.3232)"
         id="g600"><path
           id="path602"
           style="fill:#f7cc7f;fill-opacity:1;fill-rule:nonzero;stroke:none"
           d="m 16294.6,7153.86 c 5.4,2.72 -192.9,232.46 -182,238.36 60.8,31.59 185.6,-237.53 182,-238.36" /></g><g
         transform="scale(1.32225)"
         id="g604"><path
           id="path606"
           style="fill:#f7cc7f;fill-opacity:1;fill-rule:nonzero;stroke:none"
           d="m 16293.4,7143.65 c 6.4,6.2 -291.1,163.51 -286.5,168.8 45.1,47.04 293.1,-164.79 286.5,-168.8" /></g><g
         transform="scale(1.35494)"
         id="g608"><path
           id="path610"
           style="fill:#f7cc7f;fill-opacity:1;fill-rule:nonzero;stroke:none"
           d="m 16300,10241.5 c 0,-64.6 -45,-117 -100.6,-117 -55.6,0 -100.6,52.4 -100.6,117 0,64.5 99,281 99,281 0,0 102.2,-216.5 102.2,-281" /></g><g
         transform="scale(1.36647)"
         id="g612"><path
           id="path614"
           style="fill:#f7cc7f;fill-opacity:1;fill-rule:nonzero;stroke:none"
           d="m 16300,8498.04 c 0,-43.45 -30.3,-78.68 -67.7,-78.68 -37.4,0 -67.7,35.23 -67.7,78.68 0,43.46 66.6,189.13 66.6,189.13 0,0 68.8,-145.67 68.8,-189.13" /></g><g
         transform="scale(1.30015)"
         id="g616"><path
           id="path618"
           style="fill:#3c8f7c;fill-opacity:1;fill-rule:nonzero;stroke:none"
           d="m 15942.5,12011.5 -1274,-883.2 c -52.5,-36.5 -123.4,-31.6 -170.2,11.9 -0.6,0.6 -1.3,1.2 -1.9,1.8 -54,50.4 -114.3,122.4 -169.8,202.8 -55.5,80.4 -101.6,162.2 -129.7,230.5 -0.4,1 -0.8,1.9 -1.2,2.9 -24,59 -3.7,126.8 48.8,163.2 l 1274.1,883.4 c 78.5,54.4 186.5,34.7 240.8,-43.9 v 0 c 14,-20.3 42.7,-23.5 60.9,-6.8 l 246.2,226.8 233.5,-337.8 -298.7,-151 c -22,-11.1 -29.1,-39.1 -15.1,-59.3 0.1,-0.2 0.1,-0.3 0.1,-0.1 54.3,-78.6 34.7,-186.8 -43.8,-241.2" /></g><g
         transform="scale(1.30284)"
         id="g620"><path
           id="path622"
           style="fill:#3c8f7c;fill-opacity:1;fill-rule:nonzero;stroke:none"
           d="m 16149.9,12606 c -70.4,101.9 -96.2,174 -96.4,197 21.4,-8.3 79.7,-57.9 150.2,-159.7 70.4,-101.9 96.1,-174.1 96.3,-197.1 -21.3,8.3 -79.7,57.9 -150.1,159.8" /></g><g
         transform="scale(1.27513)"
         id="g624"><path
           id="path626"
           style="fill:#f7cc7f;fill-opacity:1;fill-rule:nonzero;stroke:none"
           d="m 16299.9,12493.1 v 0 c 0.1,-0.1 0.1,-0.1 0,0" /></g><g
         transform="scale(1.30015)"
         id="g628"><path
           id="path630"
           style="fill:#f7cc7f;fill-opacity:1;fill-rule:nonzero;stroke:none"
           d="m 15986.3,12252.7 c 0,0 0,0 -0.1,0.1 -14,20.2 -6.9,48.2 15.1,59.3 l 298.7,151 -31.9,46.2 c -136.2,-22.7 -355.1,-142.1 -356.7,-216.5 -2,-84.7 -57,-291.3 -364.2,-282 -287.1,8.6 -741,71.7 -798.9,79.9 l -503.8,-349.3 c -52.5,-36.4 -72.8,-104.2 -48.8,-163.2 0.4,-1 0.8,-1.9 1.2,-2.9 28.1,-68.3 74.2,-150.1 129.7,-230.5 55.5,-80.4 115.8,-152.4 169.8,-202.8 0.6,-0.6 1.3,-1.2 1.9,-1.8 46.8,-43.5 117.7,-48.4 170.2,-11.9 l 1274,883.2 c 78.5,54.4 98.1,162.6 43.8,241.2" /></g><g
         transform="scale(1.24217)"
         id="g632"><path
           id="path634"
           style="fill:#899dad;fill-opacity:1;fill-rule:nonzero;stroke:none"
           d="m 16296.9,12280 c 1.3,0.9 2.4,2.4 3.1,4.1 l -8,-5.6 c 1.8,0.1 3.5,0.6 4.9,1.5" /></g><g
         transform="scale(1.20698)"
         id="g636"><path
           id="path638"
           style="fill:#899dad;fill-opacity:1;fill-rule:nonzero;stroke:none"
           d="m 16294.3,13329.6 c -1.6,-1.1 -2.8,-2.8 -3.6,-4.8 l 9.3,6.4 c -2.2,0 -4.1,-0.5 -5.7,-1.6" /></g><g
         transform="scale(1.18468)"
         id="g640"><path
           id="path642"
           style="fill:#ebeced;fill-opacity:1;fill-rule:nonzero;stroke:none"
           d="m 16269.9,12474.5 c -30,-20.8 -137.6,82.8 -240.3,231.3 -102.6,148.6 -161.5,285.9 -131.5,306.7 30.1,20.9 137.7,-82.7 240.3,-231.2 102.7,-148.6 161.6,-285.9 131.5,-306.8" /></g><g
         transform="scale(1.2525)"
         id="g644"><path
           id="path646"
           style="fill:#fae0b2;fill-opacity:1;fill-rule:nonzero;stroke:none"
           d="m 16103.8,12659.5 c -102.6,148.5 -181.3,272.1 -175.6,276.1 l -924.6,-641.1 c -28.5,-19.7 31.7,-156.1 134.3,-304.7 102.7,-148.6 209,-253 237.4,-233.3 l 924.7,641.1 c -5.7,-4 -93.5,113.3 -196.2,261.9" /></g><g
         transform="scale(1.30573)"
         id="g648"><path
           id="path650"
           style="fill:#184655;fill-opacity:1;fill-rule:nonzero;stroke:none"
           d="m 16114.1,12578.1 c -70.2,101.6 -95.9,173.7 -96.2,196.6 21.4,-8.3 79.6,-57.8 149.9,-159.4 70.2,-101.7 95.9,-173.7 96.1,-196.6 -21.3,8.3 -79.5,57.7 -149.8,159.4 z m 70.9,49.1 c -75.5,109.2 -158.4,182.8 -185.1,164.3 -26.7,-18.5 12.8,-122.1 88.3,-231.4 75.6,-109.2 158.4,-182.8 185.1,-164.3 26.7,18.5 -12.8,122.1 -88.3,231.4" /></g><g
         transform="scale(1.30475)"
         id="g652"><path
           id="path654"
           style="fill:#184655;fill-opacity:1;fill-rule:nonzero;stroke:none"
           d="m 15947.7,12745.2 c -1.5,-3.8 8.9,-196.3 213.3,-362.3 13.2,-10.8 30.9,-13.9 47.1,-8.7 29.1,9.3 73.1,24.6 80.6,33.1 11.3,12.9 -41.7,20.7 -41.7,20.7 l -77.8,79.2 -95.1,145 -51.4,112.1 -7.7,39 c 0,0 -47.7,-7.9 -67.3,-58.1" /></g><g
         transform="scale(1.33703)"
         id="g656"><path
           id="path658"
           style="fill:#f7cc7f;fill-opacity:1;fill-rule:nonzero;stroke:none"
           d="m 16203.7,11634.7 c -96.1,214.5 -215.9,525.3 -334.8,532.9 -8.2,0.5 -17.1,0.4 -26.7,-0.5 l 30.7,-53.5 c 34.1,-70.3 60.8,-114.9 100.3,-233.2 39.5,-118.2 50.3,-243.4 38,-367.4 -3.3,-33.6 1.6,-69.4 24.5,-100.3 65.4,-88 264.3,7.5 168,222" /></g><path
         id="path660"
         style="fill:#184655;fill-opacity:1;fill-rule:nonzero;stroke:none"
         d="m 11046.2,6353.5 c -217.8,-417.4 60.2,-888.3 60.8,-892.4 104.4,-185.2 273.7,-345.3 516.8,-454.4 70.1,-30.7 141.5,-54.8 217.6,-70.2 l 30.5,140.7 c -62.5,-5.1 -246.9,38.3 -383.7,126.4 -119.5,73.4 -223.4,176.5 -294.2,301.8 -127.9,218.2 -170.9,533.8 -50,769.8 -29.6,31.5 -63.4,58.3 -97.8,78.3" /><g
         transform="scale(1.04744)"
         id="g662"><path
           id="path664"
           style="fill:#355389;fill-opacity:1;fill-rule:nonzero;stroke:none"
           d="m 16300,4934.59 c 0,640.9 -671.7,1160.45 -1500.2,1160.45 -602.6,0 -1122,-274.96 -1360.6,-671.45 -1237.8,-53.55 -2193.3,-400.59 -2193.3,-820.95 0,-196.28 194.5,-334.05 347.4,-419.49 282.6,-157.72 608.1,-240.11 923.9,-299.49 392.9,-73.99 790.7,-121.73 1189.5,-148.66 383.1,-25.77 774.5,-45.91 1157.5,-13.74 305.7,25.58 608.7,99.29 877.1,251.75 222.9,126.6 404.8,316.78 492.6,560.42 46.3,128.4 66.1,265.02 66.1,401.16" /></g><g
         transform="scale(1.00948)"
         id="g666"><path
           id="path668"
           style="fill:#466eb6;fill-opacity:1;fill-rule:nonzero;stroke:none"
           d="m 12352,5049.51 c 0,0 1769.3,146.31 1938.8,206.14 169.5,59.83 126.9,450.53 787.4,585.55 660.6,134.92 1061.9,-85.29 1141.9,-433.29 79.9,-348.1 -389,-632.21 -559.4,-397.83 -170.5,234.38 -220.3,502.73 -603.8,453.8 -383.6,-48.94 -674.8,-379.8 -674.8,-379.8 L 12352,5049.51" /></g><path
         id="path670"
         style="fill:#3c8f7c;fill-opacity:1;fill-rule:nonzero;stroke:none"
         d="m 12582.2,5155.7 -119.2,-61.5 c -16,-8.2 -18.7,-29.9 -5.3,-41.9 l 89.4,-79.7 c 14.8,-13.2 9.7,-37.4 -9.1,-43.5 l -115.2,-37.4 c -20.2,-6.5 -24.1,-33.3 -6.7,-45.4 l 157.9,-109.1 6.5,-4.3 -192.2,-109.1 c -15.5,-8.8 -17.5,-30.4 -3.8,-41.9 l 121.8,-102.4 c 14.4,-12.2 11.3,-35.2 -5.9,-43 l -167.6,-75.9 c -10.9,-4.9 -17,-16.7 -14.6,-28.5 l 18.4,-90 c 3.5,-17.5 -11.5,-33.3 -29.1,-30.5 -562.2,91.2 -687.2,524.6 -694.7,552.6 -0.3,0.9 -0.4,1.8 -0.6,2.8 -9.7,61.4 -11.4,118.2 -6.2,169.9 47.7,485.5 691.2,564.1 933.9,576.5 26.2,1.3 37.2,-33 15.2,-47.2 l -25.9,-16.6 c -18.2,-11.7 -14.5,-39.5 6.2,-46 v 0 c 19.4,-6.1 24.3,-31.2 8.6,-44.2 l -56.4,-46.5 c -12.8,-10.6 -12.4,-30.2 0.8,-40.2 l 97.5,-73.8 c 15,-11.4 13,-34.6 -3.7,-43.2" /><g
         transform="scale(1.16256)"
         id="g672"><path
           id="path674"
           style="fill:#f47458;fill-opacity:1;fill-rule:nonzero;stroke:none"
           d="m 16261,3109.78 c 23.3,-23.48 17.1,-10.32 39,-33.37 -541,-313.88 -846.8,-431.38 -950.9,-259.61 -65,31.75 67.2,240.34 144.2,288.59 210.1,131.87 601.6,29.94 767.7,4.39" /></g><g
         transform="scale(1.15702)"
         id="g676"><path
           id="path678"
           style="fill:#f47458;fill-opacity:1;fill-rule:nonzero;stroke:none"
           d="m 15804,4490.16 c 73.4,-260.58 87.9,-397.57 -46.7,-629.46 2.6,-0.78 5,-1.29 7.8,-1.73 63.9,-15.99 128.3,-19.62 194.5,-7.6 17,3.28 84.3,-1.73 117.4,2.93 0,0 0,-0.34 0.3,0.09 7.9,0.95 13.8,2.59 16.7,4.93 184.7,156.61 206,339.92 191.1,581.84 0.8,43.21 -279.6,135.52 -481.1,49" /></g><g
         transform="scale(1.1308)"
         id="g680"><path
           id="path682"
           style="fill:#f47458;fill-opacity:1;fill-rule:nonzero;stroke:none"
           d="m 16179.9,4597.64 c -141.4,67.12 -372.1,-58.37 -482.7,-125.84 142.8,-163.51 165.2,-312.7 116.3,-525.47 61.5,-12.29 272.2,-44.39 317.2,2.12 1.5,1.33 2.6,2.66 3.8,4.25 143.7,171.11 165.5,324.19 146.3,437.92 -19,115.76 -85.9,203.13 -100.9,207.02" /></g><g
         transform="scale(1.18017)"
         id="g684"><path
           id="path686"
           style="fill:#f47458;fill-opacity:1;fill-rule:nonzero;stroke:none"
           d="m 16283.3,4201.08 c -124.2,187.6 -325.7,162.18 -329,157.18 -2,-0.08 -3.7,-0.08 -5.6,-0.5 19.8,-317.5 -51.4,-413.84 -201.8,-571.19 4.8,-2.71 9.5,-5.34 14.7,-7.88 0,0 0,-0.34 0.3,0.08 46.9,-24.32 150.9,-59.06 197.2,-36.43 94.7,44.23 159.2,94.98 208,157.18 55.6,71.43 132.9,249.28 123.3,286.06 -1.2,5.08 -3.4,10.25 -7.1,15.5" /></g><g
         transform="scale(1.20112)"
         id="g688"><path
           id="path690"
           style="fill:#f47458;fill-opacity:1;fill-rule:nonzero;stroke:none"
           d="m 16300,3456.35 c -22.3,-347.51 -280.4,-390.63 -502.5,-474.47 -16.3,-6.08 -32.4,-8.58 -47,-7.75 -32,2 -53.6,20.73 -39.3,55.28 44.1,105.82 116.1,220.55 116.4,377.49 0.3,0.33 0.2,0.66 0.1,1 165.1,-57.45 307.4,-17.4 472.3,48.45" /></g><g
         transform="scale(1.19666)"
         id="g692"><path
           id="path694"
           style="fill:#f47458;fill-opacity:1;fill-rule:nonzero;stroke:none"
           d="m 16066.3,4128.59 c 0,-0.34 -0.3,-0.34 -0.3,-0.67 -93.2,-264.91 -109.2,-278.7 -351.2,-421.01 16.1,-48.46 99.4,-186.52 145.6,-176.66 58.5,15.38 113.6,32.76 165.7,54.74 154.1,65.76 253.8,172.73 259.2,189.28 l 0.3,0.08 c 14.4,36.1 -66.8,250.87 -219.3,354.24" /></g><g
         transform="scale(1.20528)"
         id="g696"><path
           id="path698"
           style="fill:#f47458;fill-opacity:1;fill-rule:nonzero;stroke:none"
           d="m 16169.1,3747.34 -0.4,-0.09 c -177.5,-170.33 -176.8,-138.47 -416.4,-216.62 -8.6,-2.83 -13.7,-12.37 -15.5,-25.89 -6,-38.33 13.4,-105.29 47,-115.49 191,-65.21 409.5,-41.07 456.8,24.14 59.4,79.65 1.4,261.85 -71.5,333.95" /></g><g
         transform="scale(1.16085)"
         id="g700"><path
           id="path702"
           style="fill:#b75742;fill-opacity:1;fill-rule:nonzero;stroke:none"
           d="m 16300,3108.66 c -192,24.12 -526.2,91.31 -719.6,3.97 -31.6,-14.3 -78.1,-41.61 -109.4,-59.27 -81.7,45.4 8.1,263.34 341.3,227.76 125.9,-13.35 373.7,-131.28 487.7,-172.46" /></g><g
         transform="scale(1.04927)"
         id="g704"><path
           id="path706"
           style="fill:#b75742;fill-opacity:1;fill-rule:nonzero;stroke:none"
           d="m 16300,3976.96 c -199.8,-137.34 -276.9,-232.36 -597.7,-231.98 460.1,77.49 399.5,271.34 568.4,234.36 7.9,-1.81 16.6,-1.43 29.3,-2.38" /></g><g
         transform="scale(1.06383)"
         id="g708"><path
           id="path710"
           style="fill:#b75742;fill-opacity:1;fill-rule:nonzero;stroke:none"
           d="m 15826,3596.91 c 131.5,61.29 249.1,112.24 346.8,274.3 42,69.65 72.3,53.67 127.2,59.5 -108.9,-173.15 -264.7,-291.68 -474,-333.8" /></g><g
         transform="scale(1.1451)"
         id="g712"><path
           id="path714"
           style="fill:#b75742;fill-opacity:1;fill-rule:nonzero;stroke:none"
           d="m 16038.7,3642.03 c 25.8,77.37 128,192.82 198.3,243.9 11.5,-7.33 50.6,-32.4 63,-40.34 -81.2,-37.2 -210.7,-137.72 -261.3,-203.56" /></g><g
         transform="scale(1.12378)"
         id="g716"><path
           id="path718"
           style="fill:#b75742;fill-opacity:1;fill-rule:nonzero;stroke:none"
           d="m 16300,3948.82 c -34,-75.02 -83.1,-211.43 -72.3,-286.36 -35.7,41.56 -5.4,223 23.3,300.87 11.6,-2.68 35.8,-11.58 49,-14.51" /></g><g
         transform="scale(1.13315)"
         id="g720"><path
           id="path722"
           style="fill:#b75742;fill-opacity:1;fill-rule:nonzero;stroke:none"
           d="m 16300,3939.27 c -49.8,-59.21 -148.5,-220.53 -165.3,-290.25 -16.2,49.07 14,121.08 37.4,170.23 44.4,115.96 88.9,126.02 127.9,120.02" /></g><g
         transform="scale(1.1933)"
         id="g724"><path
           id="path726"
           style="fill:#b75742;fill-opacity:1;fill-rule:nonzero;stroke:none"
           d="m 16163.3,3466.27 c -82.2,48.69 -91.7,107.85 -60.1,162.57 l 0.4,0.09 c 11.4,19.69 24.8,32.09 24.8,32.09 -177.7,49.2 -6,196.35 -155.8,211.35 -129.1,9.22 -173.1,324.23 -185.6,440.71 0,1.93 -0.2,2.93 -0.2,2.93 0,0 -0.2,-1.09 -0.9,-3.18 -0.9,-3.44 -3,-9.47 -5.6,-17.27 -19.5,-56.14 -84.2,-211.68 -206.9,-237.65 -62.9,-13.33 -126,35.94 -178.2,97.96 -69.7,83.63 -122.6,195.93 -123,196.68 -19.5,-205.23 -187.9,-347.52 -321.8,-429.31 l -6.8,-235.57 c 38.5,-85.39 220.6,-95.37 285.4,-58.83 127.7,-21.7 181.3,2.43 250.8,3.86 25.8,0.75 61.8,-3.27 91.1,0 53.8,-21.96 76,6.11 136.8,11.39 25.4,-45.08 116.6,-90 167.5,-110.19 -0.9,-35.7 13.3,-79.87 42.1,-103.41 0,-149.34 -69.8,-254.43 -120.3,-373.92 -16.7,-34.95 7,-53.22 42.6,-54.56 148.3,97.12 460.4,383.22 323.7,464.26" /></g><g
         transform="scale(1.10699)"
         id="g728"><path
           id="path730"
           style="fill:#f47458;fill-opacity:1;fill-rule:nonzero;stroke:none"
           d="m 16216,3999.68 c -499.1,-543.73 -2046.8,-83.83 -2057.2,-78.41 19.9,12.56 862,407.87 945.5,431.17 39.4,-219.6 384.2,-83.74 278.8,93.68 217.1,61.25 417.1,115.18 683.2,138.3 8.9,0.82 20.9,-3.16 25.8,-8.67 207.9,-240.2 180.7,-527.2 123.9,-576.07" /></g><g
         transform="scale(1.04909)"
         id="g732"><path
           id="path734"
           style="fill:#184655;fill-opacity:1;fill-rule:nonzero;stroke:none"
           d="m 16278.8,4608.56 c 21.2,-116.1 -48.5,-228.87 -155.5,-251.75 -107.1,-22.97 -211,52.53 -232.1,168.63 -21.2,116.1 48.5,228.86 155.5,251.84 107.1,22.97 211,-52.62 232.1,-168.72" /></g><g
         transform="scale(1.00455)"
         id="g736"><path
           id="path738"
           style="fill:#f47458;fill-opacity:1;fill-rule:nonzero;stroke:none"
           d="m 15102.8,4320.13 c 219.3,217.12 557.2,465.49 835.4,349.41 164.3,-66.89 261.1,-262 260.5,-261.11 14.5,-25.88 45.6,-33.94 69.3,-18.22 24.1,15.93 32,51.07 15.3,77.75 -130.3,205.57 -295.3,334.88 -526.1,310.69 -300.8,-31.96 -624.2,-335.57 -813.3,-586.63 -12,-15.83 9.4,-35.84 22.1,-20.61 0,0 88.3,100.44 136.8,148.72" /></g><g
         transform="scale(1.61209)"
         id="g740"><path
           id="path742"
           style="fill:#3c8f7c;fill-opacity:1;fill-rule:nonzero;stroke:none"
           d="m 16193.5,6030.8 4,-4.41 c 8.6,-9.3 11.6,-23.07 7.2,-35.23 0,0 -0.2,-0.19 0,-0.37 -4,-10.55 -3,-22.27 3.2,-31.58 l 3,-4.96 c 6.2,-9.37 16.4,-15.07 27.4,-16.06 0.2,0.18 0.4,-0.07 0.6,0.12 12.8,-0.87 24,-9.37 28.9,-21.28 l 2.4,-5.52 c 5,-11.79 3.3,-25.62 -5.2,-35.48 l -0.2,-0.19 c -7.2,-8.62 -10.3,-20.1 -7.9,-30.95 l 1.4,-5.65 c 2.5,-10.85 10,-20.09 20.1,-24.5 0.4,0 0.4,0 0.6,-0.18 11.9,-5.28 19.5,-17 20.1,-29.84 l 0.3,-5.96 c 0.6,-12.84 -5.9,-25.12 -17.1,-31.57 -0.2,-0.19 -0.2,-0.19 -0.4,-0.37 -9.7,-5.4 -16.3,-15.01 -17.9,-26.18 l -0.7,-5.71 c -1.4,-11.04 2.8,-22.2 10.8,-29.89 0.2,-0.19 0.2,-0.19 0.3,-0.38 9.1,-8.93 12.4,-22.7 8.4,-34.92 l -1.6,-5.46 c -3.7,-12.47 -14,-22.02 -26.8,-24 -0.2,-0.19 -0.2,-0.19 -0.6,-0.13 -11,-1.92 -20.5,-8.68 -25.5,-18.55 l -2.8,-5.39 c -5,-9.87 -5,-21.53 0,-31.58 -0.1,-0.37 -0.1,-0.37 0.1,-0.56 5.7,-11.59 4,-25.49 -3.9,-35.79 l -3.5,-4.59 c -7.8,-10.29 -20.7,-15.69 -33.5,-13.27 l -0.3,0.06 c -11,2.11 -22.3,-1.06 -30.5,-8.5 l -4.3,-4.16 c -8.3,-7.75 -12.3,-18.6 -11,-29.83 l -0.1,-0.37 c 1.5,-12.91 -4.8,-25.38 -15.9,-32.38 l -4.8,-3.23 c -10.9,-6.82 -24.9,-7.38 -36,-1.06 -0.2,0.19 -0.2,0.19 -0.4,0.44 -9.6,5.46 -21.5,6.51 -31.6,2.11 l -5.3,-2.17 c -10.6,-4.41 -17.8,-13.4 -20.7,-24.32 v -0.37 c -3.2,-12.65 -13.3,-22.08 -25.9,-25 l -5.8,-1.24 c -12.6,-2.92 -25.8,1.24 -34.1,11.29 -0.1,0.18 -0.1,0.18 -0.3,0.43 -7.2,8.44 -17.9,13.4 -29,12.84 l -5.9,-0.24 c -11.2,-0.5 -21.4,-6.46 -27.5,-15.88 l -0.2,-0.19 c -7.3,-10.86 -20.3,-16.25 -33,-14.64 l -5.7,0.75 c -12.9,1.48 -23.9,10.1 -28.4,22.45 l -0.2,0.19 c -3.6,10.54 -12,19.04 -22.7,22.08 l -5.6,1.86 c -10.6,3.29 -22.2,1.24 -31.2,-5.33 -0.2,-0.19 -0.3,-0.38 -0.3,-0.38 -10.6,-7.63 -24.6,-8.18 -36,-2.41 l -5.2,2.6 c -11.5,5.96 -19.1,17.68 -19,30.89 0,0 0,0 0,0.37 0.1,10.92 -4.9,21.71 -13.8,28.54 l -4.6,3.53 c -9,6.83 -20.6,8.81 -31.3,5.71 -0.2,-0.12 -0.2,-0.12 -0.4,-0.31 -12.4,-3.54 -26,0.68 -34.6,9.93 l -4,4.46 c -4.4,4.84 -7.5,10.73 -8.7,16.94 l 49.2,43.98 455.6,408.84 73.8,66 c 1.6,-1.05 3.3,-2.48 4.5,-3.9" /></g><g
         transform="scale(1.60412)"
         id="g744"><path
           id="path746"
           style="fill:#50bfa5;fill-opacity:1;fill-rule:nonzero;stroke:none"
           d="m 16195.3,5998.36 c 104.7,-116.95 92.4,-298.92 -27.6,-406.39 -119.7,-107.1 -301.3,-99.44 -406.2,17.02 l 433.8,389.37" /></g><g
         transform="scale(1.56599)"
         id="g748"><path
           id="path750"
           style="fill:#f7cc7f;fill-opacity:1;fill-rule:nonzero;stroke:none"
           d="m 16268.2,5718.67 c -8.8,-13.6 -26.9,-17.5 -40.6,-8.69 -13.6,8.82 -17.5,26.95 -8.7,40.62 8.8,13.6 53.9,53.25 67.5,44.44 13.6,-8.81 -9.4,-62.77 -18.2,-76.37" /></g><g
         transform="scale(1.57668)"
         id="g752"><path
           id="path754"
           style="fill:#f7cc7f;fill-opacity:1;fill-rule:nonzero;stroke:none"
           d="m 16294.9,5692.15 c 5.1,-15.29 -3.1,-31.84 -18.4,-36.92 -15.3,-5.07 -31.8,3.17 -36.9,18.46 -5.1,15.28 -7.9,74.84 7.4,79.92 15.2,5.13 42.8,-46.18 47.9,-61.46" /></g><g
         transform="scale(1.58925)"
         id="g756"><path
           id="path758"
           style="fill:#f7cc7f;fill-opacity:1;fill-rule:nonzero;stroke:none"
           d="m 16283.8,5725.65 c 13.1,-9.18 16.2,-27.25 7,-40.33 -9.2,-13.09 -27.2,-16.24 -40.3,-7.05 -13,9.19 -50.5,55.06 -41.3,68.15 9.2,13.02 61.5,-11.58 74.6,-20.77" /></g><g
         transform="scale(1.59494)"
         id="g760"><path
           id="path762"
           style="fill:#f7cc7f;fill-opacity:1;fill-rule:nonzero;stroke:none"
           d="m 16274.2,5835 c 15.6,-3.07 25.8,-18.25 22.7,-33.86 -3,-15.61 -18.2,-25.77 -33.8,-22.7 -15.6,3.08 -68.2,29.72 -65.2,45.34 3.1,15.61 60.7,14.29 76.3,11.22" /></g><g
         transform="scale(1.59509)"
         id="g764"><path
           id="path766"
           style="fill:#f7cc7f;fill-opacity:1;fill-rule:nonzero;stroke:none"
           d="m 16258.4,5962.48 c 15,5.14 31.4,-2.95 36.5,-18 5.1,-15.1 -2.9,-31.47 -18,-36.55 -15.1,-5.14 -73.9,-8.27 -79.1,6.84 -5.1,15.11 45.5,42.63 60.6,47.71" /></g><g
         transform="scale(1.61298)"
         id="g768"><path
           id="path770"
           style="fill:#184655;fill-opacity:1;fill-rule:nonzero;stroke:none"
           d="m 16260.9,3255.9 c 39.1,-167.71 -143,-353.51 -406.7,-415.01 -263.7,-61.44 -509.1,24.61 -548.3,192.31 -39.1,167.7 143,353.51 406.7,415.01 263.6,61.5 509.2,-24.61 548.3,-192.31" /></g><g
         transform="scale(1.25075)"
         id="g772"><path
           id="path774"
           style="fill:#f8a492;fill-opacity:1;fill-rule:nonzero;stroke:none"
           d="m 16215.7,12321.2 c -16,12.7 -40.4,27.8 -47.8,44.4 -7.3,16.7 99,-9.7 93.2,6.8 -5.9,16.6 -59.8,38.5 -79.7,38.5 -20,0 -110.2,2.5 -110.2,2.5 l -251.9,68.6 c 0,0 -513.9,141.3 -545.8,150.8 l -436.1,398.9 -212,-162.5 c 0,0 474.9,-440.2 507.5,-457 27.4,-14.1 878.8,-116.6 878.8,-116.6 0,0 90.8,-95.8 143.3,-101.2 52.6,-5.5 145,102.4 145,102.4 0,0 -68.2,11.8 -84.3,24.4" /></g><g
         transform="scale(1.1564)"
         id="g776"><path
           id="path778"
           style="fill:#86b1f2;fill-opacity:1;fill-rule:nonzero;stroke:none"
           d="m 16040,14237.8 c -49.2,68.2 -119.4,119.7 -208.7,94.1 -55.4,-15.8 -99.7,-62 -117.8,-116.1 -21.6,-64.4 -3,-165.9 32,-220.9 79.5,-125 182.6,-232 283.2,-340.9 107.6,80.4 245.4,190.7 271.3,275.4 -0.5,0.7 -194.9,218.4 -260,308.4" /></g><g
         transform="scale(1.27493)"
         id="g780"><path
           id="path782"
           style="fill:#f8a492;fill-opacity:1;fill-rule:nonzero;stroke:none"
           d="m 16194.6,12164.1 c 0,0 -10.7,63.8 -1.8,83.5 8.8,19.8 13.2,9.1 15.5,1.2 2.4,-7.8 6.4,-35.6 6.4,-35.6 0,0 -6.9,52 -1.6,67.6 5.2,15.6 18.9,17.7 24.2,12.8 5.2,-4.9 14.9,-52.7 14.9,-52.7 0,0 -19.3,74.4 -7,84.7 12.1,10.4 54.8,-58.8 45.5,-93.2 -9.2,-34.4 -96.1,-68.3 -96.1,-68.3" /></g><g
         transform="scale(1.61045)"
         id="g784"><path
           id="path786"
           style="fill:#3c8f7c;fill-opacity:1;fill-rule:nonzero;stroke:none"
           d="m 16196.8,6747.73 c -103.6,-116 -302.1,-97.97 -465.1,10.87 -162.1,110.18 -253.3,287.36 -184.8,426.94 67.8,138.86 301.8,173.81 499.6,40.27 198,-133.16 253.5,-363.12 150.3,-478.08" /></g><g
         transform="scale(1.60452)"
         id="g788"><path
           id="path790"
           style="fill:#50bfa5;fill-opacity:1;fill-rule:nonzero;stroke:none"
           d="m 16218.8,6819.14 c -81.5,-105.57 -252.4,-98.32 -395.9,-7 -142.9,92.28 -224.3,245.78 -169.4,366.75 54.2,120.36 247.9,153.55 417.9,46.06 170.2,-107.14 228.6,-300.98 147.4,-405.81" /></g><g
         transform="scale(1.55851)"
         id="g792"><path
           id="path794"
           style="fill:#96d9c9;fill-opacity:1;fill-rule:nonzero;stroke:none"
           d="m 16240.9,7119.69 c -14.1,-4.34 -32.4,3.17 -41.2,16.8 -8.8,13.64 -4.8,28.48 9.3,33.09 14,4.81 73.5,6.46 82.3,-7.85 8.7,-14.05 -36.5,-37.58 -50.4,-42.04" /></g><g
         transform="scale(1.56598)"
         id="g796"><path
           id="path798"
           style="fill:#96d9c9;fill-opacity:1;fill-rule:nonzero;stroke:none"
           d="m 16297.1,7000.72 c -2.7,-13.46 -17.7,-19.25 -33.5,-13.23 -15.8,6.02 -26.6,21.58 -24.1,35.04 2.5,13.43 27.2,55.67 43.5,49.63 16.3,-6.08 17,-58.03 14.1,-71.44" /></g><g
         transform="scale(1.57999)"
         id="g800"><path
           id="path802"
           style="fill:#96d9c9;fill-opacity:1;fill-rule:nonzero;stroke:none"
           d="m 16293.3,6912.67 c 6.7,-15.02 0.3,-28.85 -14.1,-31.02 -14.3,-2.16 -31.2,7.97 -38,22.71 -6.6,14.76 -17.4,69.76 -3.1,72.36 14.6,2.69 48.7,-48.96 55.2,-64.05" /></g><g
         transform="scale(1.59155)"
         id="g804"><path
           id="path806"
           style="fill:#96d9c9;fill-opacity:1;fill-rule:nonzero;stroke:none"
           d="m 16286.9,6913.58 c 12.1,-13.4 13.1,-30.55 2.5,-38.19 -10.6,-7.64 -28.8,-3.08 -40.7,10.07 -11.7,13.27 -45,67.35 -34.8,75.35 10.6,8.24 61.1,-33.63 73,-47.23" /></g><g
         transform="scale(1.59677)"
         id="g808"><path
           id="path810"
           style="fill:#96d9c9;fill-opacity:1;fill-rule:nonzero;stroke:none"
           d="m 16271.1,7010.34 c 16.4,-6.28 28.9,-23.15 27.6,-37.4 -1.2,-14.25 -15.4,-20.44 -31.6,-14.11 -16.1,6.61 -73.4,42.06 -72.8,56.01 0.8,14.35 60.2,2.04 76.8,-4.5" /></g><g
         transform="scale(1.55339)"
         id="g812"><path
           id="path814"
           style="fill:#96d9c9;fill-opacity:1;fill-rule:nonzero;stroke:none"
           d="m 16217.1,7338.4 c -17.4,2.08 -29.8,-7.92 -27.9,-22.11 1.9,-14.18 17.1,-27.27 34.3,-29.49 17,-1.98 76.5,3.33 75.1,17.56 -1.4,14.61 -64.2,32.22 -81.5,34.04" /></g><g
         transform="scale(1.55698)"
         id="g816"><path
           id="path818"
           style="fill:#96d9c9;fill-opacity:1;fill-rule:nonzero;stroke:none"
           d="m 16245.8,7411.38 c -13.6,12.14 -34.1,15.19 -45.5,6.93 -11.4,-8.27 -9.5,-24.51 4.1,-36.4 13.6,-11.64 72.3,-47 83.8,-39.39 11.8,7.9 -28.5,56.87 -42.4,68.86" /></g><g
         transform="scale(1.56497)"
         id="g820"><path
           id="path822"
           style="fill:#96d9c9;fill-opacity:1;fill-rule:nonzero;stroke:none"
           d="m 16293.5,7411.44 c -3.9,14.83 -21.4,28 -39.1,29.18 -17.6,1.18 -28.4,-9.91 -24.2,-24.54 4.3,-14.59 35.4,-68.14 52.5,-69.72 17.3,-1.56 14.9,50.25 10.8,65.08" /></g><g
         transform="scale(1.57964)"
         id="g824"><path
           id="path826"
           style="fill:#96d9c9;fill-opacity:1;fill-rule:nonzero;stroke:none"
           d="m 16295.9,7293.37 c 4.1,12.72 -6.6,29.9 -23.9,38.09 -17.4,8.19 -34.6,4.24 -38.3,-8.53 -3.7,-12.82 -0.5,-66.14 16.3,-74.24 16.8,-8.13 41.9,31.93 45.9,44.68" /></g><g
         transform="scale(1.59202)"
         id="g828"><path
           id="path830"
           style="fill:#96d9c9;fill-opacity:1;fill-rule:nonzero;stroke:none"
           d="m 16287.6,7138.33 c 12.2,6.2 12.4,22.84 0.2,37.06 -12.2,14.24 -32,20.44 -44.1,13.95 -12.1,-6.46 -42.6,-43.63 -30.5,-57.39 11.9,-13.67 62.2,0.27 74.4,6.38" /></g></g></g></svg>