<?xml version="1.0" encoding="UTF-8" standalone="no"?>
<svg
   xmlns:dc="http://purl.org/dc/elements/1.1/"
   xmlns:cc="http://creativecommons.org/ns#"
   xmlns:rdf="http://www.w3.org/1999/02/22-rdf-syntax-ns#"
   xmlns:svg="http://www.w3.org/2000/svg"
   xmlns="http://www.w3.org/2000/svg"
   viewBox="0 0 4000 2666.6667"
   height="2666.6667"
   width="4000"
   xml:space="preserve"
   id="svg2"
   version="1.1"><metadata
     id="metadata8"><rdf:RDF><cc:Work
         rdf:about=""><dc:format>image/svg+xml</dc:format><dc:type
           rdf:resource="http://purl.org/dc/dcmitype/StillImage" /></cc:Work></rdf:RDF></metadata><defs
     id="defs6" /><g
     transform="matrix(1.3333333,0,0,-1.3333333,0,2666.6667)"
     id="g10"><g
       transform="scale(0.1)"
       id="g12"><g
         transform="scale(1.84049)"
         id="g14"><path
           id="path16"
           style="fill:#ffffff;fill-opacity:0;fill-rule:nonzero;stroke:none"
           d="M 16300,0 H 0 V 10866.7 H 16300 V 0" /></g><g
         transform="scale(1.74673)"
         id="g18"><path
           id="path20"
           style="fill:#ebf3fa;fill-opacity:1;fill-rule:nonzero;stroke:none"
           d="m 1776.22,1289.15 c 0,0 -1805.7059,1938.71 -305.37,4037.72 1331.18,1862.34 2883.23,1735.04 4021.93,979.28 485.02,-321.88 1883.29,-39.67 3073.4,1855.34 C 10189.2,10745.8 15815,9178.4 14789.2,5202.41 14292.8,3278.3 16300,3208.39 15277.3,1285.09 l -13501.08,4.06" /></g><g
         transform="scale(1.03613)"
         id="g22"><path
           id="path24"
           style="fill:#a8d29f;fill-opacity:1;fill-rule:nonzero;stroke:none"
           d="m 15429.3,12191.5 c -1,-17 -1.6,-25.9 -1.6,-25.9 0,0 -2.8,8.6 -8.2,25.2 -44.4,136.8 -261.2,812.1 -458.5,1564.1 -273,1040.4 -508.5,2227.3 -198.6,2337.1 587.2,208 695.5,-1454.3 697.2,-2680.9 0.9,-604.3 -24.1,-1102.7 -30.3,-1219.6" /></g><g
         transform="scale(1.15884)"
         id="g26"><path
           id="path28"
           style="fill:#a8d29f;fill-opacity:1;fill-rule:nonzero;stroke:none"
           d="m 14309.2,12108.4 c -189.7,-420.9 -354.3,-775 -448.8,-987 -41.1,-92.5 -68.9,-157.9 -79.7,-190.1 9.3,52.4 34,193 69.3,393 0,0.1 0,0.1 0,0.2 53.1,299.7 130.1,732.6 214.6,1202.7 205.1,1142.6 454.8,2504 513,2698.6 102.9,343.3 576.8,1074.2 895.8,438.3 207.2,-413.3 -592.5,-2287.3 -1164.2,-3555.7" /></g><g
         transform="scale(1.15025)"
         id="g30"><path
           id="path32"
           style="fill:#a8d29f;fill-opacity:1;fill-rule:nonzero;stroke:none"
           d="m 14454.5,11593.8 c -197.5,-208.5 -363.6,-377.5 -456.3,-471 -50.7,-51.2 -79.5,-79.7 -79.5,-79.7 0,0 50.6,107.8 136.7,280.1 81.4,162.7 194.5,382.8 326.8,623.6 433.2,789.4 1070.9,1801.2 1466.5,1742.7 451.3,-66.6 -678.2,-1339.9 -1394.2,-2095.7" /></g><path
         id="path34"
         style="fill:#82b378;fill-opacity:1;fill-rule:nonzero;stroke:none"
         d="m 15986.7,12631.9 c -3.2,-0.1 -6.6,-0.4 -10.1,-0.7 -46,141.8 -270.6,841.5 -475.1,1620.7 95.4,-142.9 267.8,-334.4 516.6,-356.3 1,-626.1 -24.9,-1142.5 -31.4,-1263.7" /><g
         transform="scale(1.0173)"
         id="g36"><path
           id="path38"
           style="fill:#82b378;fill-opacity:1;fill-rule:nonzero;stroke:none"
           d="m 16300,13793 c -216.1,-479.4 -403.6,-882.7 -511.3,-1124.3 -8.1,67.4 -11.7,145.6 -11.7,231.1 0,0.2 0,0.2 0,0.3 60.4,341.4 148.2,834.5 244.4,1370 37.6,-186.9 115.9,-394 278.6,-477.1" /></g><g
         transform="scale(1.02002)"
         id="g40"><path
           id="path42"
           style="fill:#82b378;fill-opacity:1;fill-rule:nonzero;stroke:none"
           d="m 16300,13074.1 c -222.7,-235.1 -410,-425.8 -514.6,-531.1 10.1,60.5 33.6,139.1 64.6,225.9 91.8,183.5 219.3,431.7 368.4,703.2 3.5,-113.8 19.6,-283.4 81.6,-398" /></g><path
         id="path44"
         style="fill:#a8d29f;fill-opacity:1;fill-rule:nonzero;stroke:none"
         d="m 15969.5,12667.3 c -3,-17 -4.6,-25.9 -4.6,-25.9 -2.2,1.2 -0.7,10 4.6,25.9" /><g
         transform="scale(1.0374)"
         id="g46"><path
           id="path48"
           style="fill:#ed7d2b;fill-opacity:1;fill-rule:nonzero;stroke:none"
           d="m 15687.8,10523 c -367.5,-1040.97 -824.9,-2175.92 -824.9,-2175.92 l -1033.6,309.72 c 0,0 121,770.95 298.6,1628.8 207.2,1000.3 325.5,2009.5 750.5,2272 116.9,72.3 243.3,105.8 366.8,114.9 62.3,4.7 124.4,2.6 184.9,-5.4 14.5,-1.9 28.7,-4.1 43,-6.6 35.9,-6.4 71.2,-14.8 105.6,-25 13.4,-3.8 26.7,-8.1 39.9,-12.7 45.8,-15.6 90,-34.3 132.1,-55.6 179,-91.1 323.1,-228 379.6,-375.9 169.7,-444.9 -164.8,-881.9 -442.5,-1668.3" /></g><g
         transform="scale(1.32917)"
         id="g50"><path
           id="path52"
           style="fill:#ffb93e;fill-opacity:1;fill-rule:nonzero;stroke:none"
           d="m 11850,7217.8 c -211.9,-642.88 -274.9,-1348.36 -187.9,-2101.08 14.6,-125.49 84.5,-234.58 185.5,-301.39 45.3,-29.94 96.8,-51.46 152.3,-62.29 124.5,0.67 370.1,226.98 510.6,515.8 38.6,79.45 69.4,163.57 87.3,249.11 140.9,668.08 401.6,1472.57 725.2,1883.73 330.8,420.47 776.4,923.07 1389.1,1268.73 0,0 0.1,0.09 0.2,0.12 59.2,33.87 1449.3,1046.23 1449.3,1046.23 138.4,146.23 -25.5,310.04 -25.5,310.04 0,0 -132,-115.76 -534.8,-347.71 -402.7,-231.86 -1110,39.9 -1110.3,39.93 -198.2,89.61 -433.4,80.5 -628.1,-37.71 -300.5,-182.38 -700.6,-470.03 -1080.1,-884.16 C 12355.9,8331.19 12042,7799.82 11850,7217.8" /></g><g
         transform="scale(1.23437)"
         id="g54"><path
           id="path56"
           style="fill:#ffa412;fill-opacity:1;fill-rule:nonzero;stroke:none"
           d="m 13565.3,5941.72 c 151.7,719.39 432.5,1585.66 780.8,2028.39 356.2,452.77 836.1,993.96 1495.9,1366.17 0,0 0,0.1 0.2,0.13 11.5,8.36 457.8,337.5 -36.9,635.54 -484.1,291.65 -2460.2,-1881.21 -2334,-4298.47 41.5,85.55 74.7,176.12 94,268.24" /></g><path
         id="path58"
         style="fill:#a8d29f;fill-opacity:1;fill-rule:nonzero;stroke:none"
         d="m 14508.1,10807.3 c -77.2,-121.3 -171.9,-238.7 -283.7,-348.7 -423.5,-417.2 -1088.3,-726.6 -1944.1,-718.6 0,0 -359.3,342.5 -533.5,778.3 l 0.2,0.2 c -120.8,302.3 -209,747.4 -0.2,1077.8 134.6,212.9 307.7,313.6 483.2,366.7 298.1,90.7 602.9,43.9 736.1,176.7 131.3,130.9 318.2,243.9 523.5,309 33.5,10.7 67.5,20.1 102,27.9 h 0.1 c 14.3,3.4 28.5,6.5 42.9,9.3 0.3,0.2 0.6,0.2 0.9,0.2 316.4,61.8 654.4,1.2 889.5,-280.9 54.5,-65.4 104,-144.4 146.1,-239.4 150.6,-338.5 85.9,-767.7 -163,-1158.5" /><path
         id="path60"
         style="fill:#d1f2c9;fill-opacity:1;fill-rule:nonzero;stroke:none"
         d="m 12019,11645.3 c 0,0 -282.4,-221.7 -195.9,-467 86.6,-245.3 309.8,-132 379.6,37.9 69.8,169.9 2,511.5 -183.7,429.1" /><path
         id="path62"
         style="fill:#95c38b;fill-opacity:1;fill-rule:nonzero;stroke:none"
         d="m 14525,12205.3 c 54.5,-65.4 104,-144.5 146.1,-239.5 150.6,-338.5 357.3,-1236.2 108.5,-1627.1 l -333.8,-305.3 c -423.5,-417.2 -1309.7,-301.4 -2165.5,-293.3 0,0 -359.2,342.5 -533.5,778.3 l 0.2,0.1 c 0,0 1058.6,-418.8 2055.6,455.5 452.9,397.3 646.2,852.5 722.4,1231.3" /><path
         id="path64"
         style="fill:#a8d29f;fill-opacity:1;fill-rule:nonzero;stroke:none"
         d="m 12910.4,12651.7 c -174.8,104.1 -351.6,-42.1 -556.8,-122.3 -205.4,-80.4 -600.4,-78.8 -600.4,-78.8 0,0 162.5,233.9 428.8,466.3 266.3,232.3 728.4,-265.2 728.4,-265.2" /><path
         id="path66"
         style="fill:#82b378;fill-opacity:1;fill-rule:nonzero;stroke:none"
         d="m 12910.4,12651.7 c -164.2,134.9 -468,212.2 -616.2,151.5 -148.2,-60.6 -541,-352.6 -541,-352.6 0,0 162.5,233.9 428.8,466.3 266.3,232.3 728.4,-265.2 728.4,-265.2" /><path
         id="path68"
         style="fill:#95c38b;fill-opacity:1;fill-rule:nonzero;stroke:none"
         d="m 12966.1,12139.7 c 131.3,130.9 318.2,243.9 523.5,309 -349,-130.9 -541.5,-573.3 -674,-522 -142,55.1 -569.3,37.1 -585.6,36.3 298.1,90.7 602.9,43.9 736.1,176.7" /><path
         id="path70"
         style="fill:#95c38b;fill-opacity:1;fill-rule:nonzero;stroke:none"
         d="m 13634.6,12485.9 c -11,-3.1 -25.2,-6.2 -42.9,-9.3 14.3,3.4 28.5,6.5 42.9,9.3" /><path
         id="path72"
         style="fill:#82b378;fill-opacity:1;fill-rule:nonzero;stroke:none"
         d="m 12840.3,11935.6 v 0 c -112,247.3 -51.4,554.1 19,767.8 56.1,170.2 163.7,399.9 216.5,509.1 11.1,23.1 44.6,20.7 52.7,-3.6 l 21.3,-64.5 c 21.3,-64.5 13.5,-135.2 -21.7,-193.3 -108.2,-178.9 -325.5,-596.9 -227.6,-941 11,-38.8 -40.4,-118.8 -60.2,-74.5" /><path
         id="path74"
         style="fill:#2b478b;fill-opacity:1;fill-rule:nonzero;stroke:none"
         d="m 15144.2,10820.8 -34.8,14 c 154.1,229.4 393.3,386.7 581.6,459.4 164.9,63.7 296.9,84.7 344,90.8 11.5,1.5 22.9,-2.9 30.4,-11.7 l 29.2,-34 c 14.5,-16.9 4.5,-43.8 -17.5,-46.9 -168.5,-24.1 -700,-125.1 -932.9,-471.6" /><path
         id="path76"
         style="fill:#699dee;fill-opacity:1;fill-rule:nonzero;stroke:none"
         d="m 14488.5,10755.3 c 176.7,441.6 425.5,342 732.5,219.1 306.9,-122.8 555.7,-222.4 378.9,-664 -126.7,-316.5 -478.2,-473.5 -785.1,-350.6 -306.9,122.8 -453,479 -326.3,795.5" /><path
         id="path78"
         style="fill:#92beff;fill-opacity:1;fill-rule:nonzero;stroke:none"
         d="m 14674.6,10846.6 c 11.1,79.1 138.5,162.4 217.7,151.4 79.1,-11.1 115.9,-99.5 104.9,-178.7 -11.1,-79.1 -120.1,-147.2 -199.3,-136.1 -79.1,11.1 -134.3,84.2 -123.3,163.4" /><g
         transform="scale(1.21563)"
         id="g80"><path
           id="path82"
           style="fill:#fcecdb;fill-opacity:1;fill-rule:nonzero;stroke:none"
           d="m 15423.5,8756.01 779.8,-5554.71 c 96.7,-688.94 -438.2,-1304.26 -1133.9,-1304.26 h -1174.9 c -593.3,0 -1055.1,515.21 -990.6,1104.94 l 659.9,5167.11 1859.7,586.92" /></g><g
         transform="scale(1.15026)"
         id="g84"><path
           id="path86"
           style="fill:#fcecdb;fill-opacity:1;fill-rule:nonzero;stroke:none"
           d="m 11972.1,9253.61 c 0,0 1997.5,-681.06 4327.9,0 l -686.6,-7267.28 h -4348.8 l 707.5,7267.28" /></g><path
         id="path88"
         style="fill:#efcbab;fill-opacity:1;fill-rule:nonzero;stroke:none"
         d="M 13771.1,10644.1 14719,3874.3 c 117.6,-839.6 -532.7,-1589.5 -1378.4,-1589.5 h -1428.2 c -721.2,0 -1282.6,627.8 -1204.2,1346.6 l 679,7012.7 c 0,0 334.5,-65.3 1148.3,-65.3 805.9,0 1235.6,65.3 1235.6,65.3" /><g
         transform="scale(1.1067)"
         id="g90"><path
           id="path92"
           style="fill:#ed7d2b;fill-opacity:1;fill-rule:nonzero;stroke:none"
           d="m 16284.9,8937.66 c 0,88.82 -72,160.79 -160.8,160.79 -88.8,0 -160.8,-71.97 -160.8,-160.79 0,-59.37 32.3,-111.14 80.2,-138.98 68.2,-541.34 -39.4,-983.73 -307.8,-1254.81 -244.1,-246.32 -614.2,-337.67 -1070.3,-264.02 -401.1,64.69 -665,508.53 -815.8,869.43 -108.6,259.6 -175.5,515.22 -209.9,667.02 33.9,29.46 55.4,72.83 55.4,121.36 0,88.82 -71.9,160.79 -160.7,160.79 -88.8,0 -160.9,-71.97 -160.9,-160.79 0,-59.91 32.8,-112.05 81.4,-139.7 86.4,-396.76 406.6,-1574.59 1181.2,-1699.65 112.8,-18.16 221.1,-27.19 324.6,-27.19 371.5,0 680.8,116.38 905.6,343.45 307.7,310.74 433.7,804.01 360.5,1399.3 35.5,29.54 58.1,74 58.1,123.79" /></g><g
         transform="scale(1.42462)"
         id="g94"><path
           id="path96"
           style="fill:#ed7d2b;fill-opacity:1;fill-rule:nonzero;stroke:none"
           d="m 14774.1,5682.64 c 84.5,-28.01 175.9,-47.31 272.6,-56.44 366.6,-34.67 807,76.87 1214.8,415.62 0,0 38.5,305 -48.3,582.48 h -0.2 c -60.3,192.47 -192,440.71 -421.6,517.67 -147.9,49.56 -270.5,30.22 -375.5,-12.93 -178.6,-73.09 -306.7,-214.77 -422.6,-203.12 -114.3,11.44 -248.3,-7.44 -372.3,-56.51 -20.3,-7.93 -40.4,-16.7 -60,-26.46 l -0.1,-0.07 c -8.2,-3.93 -16.2,-8 -24.2,-12.29 -0.2,-0.07 -0.3,-0.21 -0.5,-0.27 -176.1,-94.14 -314.7,-255.51 -317.2,-482.94 -0.7,-52.72 6.5,-110.07 23.5,-172.12 60.1,-221.46 259.1,-402.28 531.6,-492.62" /></g><g
         transform="scale(1.39601)"
         id="g98"><path
           id="path100"
           style="fill:#ffb583;fill-opacity:1;fill-rule:nonzero;stroke:none"
           d="m 15962,7203.65 c 0,0 227,4.11 282.5,-150.63 55.5,-154.8 -99.1,-188.39 -201.2,-133.02 -102,55.44 -205.1,249.9 -81.3,283.65" /></g><g
         transform="scale(1.42462)"
         id="g102"><path
           id="path104"
           style="fill:#ea6c2d;fill-opacity:1;fill-rule:nonzero;stroke:none"
           d="m 14219,6347.45 c -0.7,-52.72 6.6,-110.14 23.5,-172.26 60.1,-221.46 312.1,-733.46 584.5,-823.8 0,0 540.3,-248.2 849.3,-132.73 344.9,128.94 557.2,401.51 585.2,823.16 0,0 38.5,305 -48.3,582.48 h -0.2 c 0,0 -344.5,-615.33 -1165.4,-585.56 -372.9,13.61 -643.9,156.6 -828.6,308.71" /></g><g
         transform="scale(1.35068)"
         id="g106"><path
           id="path108"
           style="fill:#a8d29f;fill-opacity:1;fill-rule:nonzero;stroke:none"
           d="m 15630.9,7587.38 c 45.6,124.83 195.5,123.74 332.5,167.8 137.2,44.03 336.6,207.87 336.6,207.87 0,0 -178.8,51.42 -409.6,59.21 -230.7,7.79 -259.5,-434.88 -259.5,-434.88" /></g><g
         transform="scale(1.35068)"
         id="g110"><path
           id="path112"
           style="fill:#82b378;fill-opacity:1;fill-rule:nonzero;stroke:none"
           d="m 15630.9,7587.38 c 27.6,136.04 149.5,300.56 249.6,331 100.1,30.43 419.5,44.67 419.5,44.67 0,0 -178.8,51.42 -409.6,59.21 -230.7,7.79 -259.5,-434.88 -259.5,-434.88" /></g><g
         transform="scale(1.34735)"
         id="g114"><path
           id="path116"
           style="fill:#ea6c2d;fill-opacity:1;fill-rule:nonzero;stroke:none"
           d="m 15853.1,7323.12 c -120.8,12.1 -262.5,-7.87 -393.6,-59.75 231.3,77.93 512.1,-67.02 558.1,13.81 49.3,86.76 273.8,254.35 282.4,260.71 -188.9,-77.29 -324.3,-227.09 -446.9,-214.77" /></g><g
         transform="scale(1.27263)"
         id="g118"><path
           id="path120"
           style="fill:#95c38b;fill-opacity:1;fill-rule:nonzero;stroke:none"
           d="m 16272.9,7646.4 c 7.3,3.14 16.3,7.7 27.1,13.75 -9.2,-4.4 -18.1,-8.96 -27.1,-13.75" /></g><g
         transform="scale(1.32335)"
         id="g122"><path
           id="path124"
           style="fill:#82b378;fill-opacity:1;fill-rule:nonzero;stroke:none"
           d="m 16291.6,7403.33 v 0 c -46.3,175.01 -206.8,308.13 -333.2,388.98 -100.8,64.33 -253.1,137.8 -326.4,172 -15.5,7.22 -31.8,-8.09 -25.7,-24.06 l 16.1,-42.29 c 16.2,-42.36 49.9,-75.58 92.7,-90.85 131.3,-46.89 419.6,-171.49 514,-390.63 10.6,-24.63 70.9,-44.43 62.5,-13.15" /></g><g
         transform="scale(1.26017)"
         id="g126"><path
           id="path128"
           style="fill:#233862;fill-opacity:1;fill-rule:nonzero;stroke:none"
           d="m 16056.8,2294.69 c 0,0 -184.8,-138.48 -467.9,-65.31 0,0 -228.3,52.06 -278.4,-61.82 0,0 350.1,-177.83 438.8,-226.47 66.7,-36.67 136.4,-94.6 185.7,-139.27 38.9,-35.39 99.6,-30.63 132.9,10.23 15.4,18.97 33,41.51 52.4,67.69 53.9,73.09 179.7,309.41 179.7,309.41 l -243.2,105.54" /></g><g
         transform="scale(1.45322)"
         id="g130"><path
           id="path132"
           style="fill:#2b478b;fill-opacity:1;fill-rule:nonzero;stroke:none"
           d="m 13829.7,2050.82 c 0,0 97.6,-224.94 322.8,-183.59 0,0 459.5,379.5 774.8,773.73 102.3,128.06 189.5,257.71 240.7,376.27 209.1,483.96 773.3,1205.8 1132,1571.68 l -897.5,324.66 c 0,0 -287.5,-578.23 -669.9,-1288.59 -275.7,-511.76 -600.6,-1092.12 -902.9,-1574.16" /></g><g
         transform="scale(1.45322)"
         id="g134"><path
           id="path136"
           style="fill:#233862;fill-opacity:1;fill-rule:nonzero;stroke:none"
           d="m 14732.6,3624.98 194.7,-984.02 c 102.3,128.06 189.5,257.71 240.7,376.27 209.1,483.96 773.3,1205.8 1132,1571.68 l -897.5,324.66 c 0,0 -287.5,-578.23 -669.9,-1288.59" /></g><g
         transform="scale(1.40796)"
         id="g138"><path
           id="path140"
           style="fill:#233862;fill-opacity:1;fill-rule:nonzero;stroke:none"
           d="m 15963.3,1919.08 c 0,0 10.1,-185.3 -214.5,-210.01 0,0 -128.4,-0.72 -128.7,-118.62 l 652.8,-2.05 c 0,0 18.9,47.58 23.5,149.43 3.6,78.27 -75.8,282.75 -75.8,282.75 l -257.3,-101.5" /></g><g
         transform="scale(1.48703)"
         id="g142"><path
           id="path144"
           style="fill:#2b478b;fill-opacity:1;fill-rule:nonzero;stroke:none"
           d="m 15340,4801.85 c 0,0 -390.7,-429.31 -638.8,-1202.8 -134.9,-420.9 247.4,-1478.99 321.9,-1846.63 0,0 256.5,-21.72 431.8,46.06 0,0 13.4,759.3 -89.2,1344.56 -57.4,327.5 514.5,700.46 764.3,1292.31 170,402.61 -36.8,395.75 -290.9,405.44 l -499.1,-38.94" /></g><g
         transform="scale(1.50104)"
         id="g146"><path
           id="path148"
           style="fill:#ffb07b;fill-opacity:1;fill-rule:nonzero;stroke:none"
           d="m 15643.7,6654.67 c 215.3,-121.58 656.3,-9.46 656.3,-9.46 0,0 -179.1,204.72 -97.7,534.39 l -169.1,-85.88 -181.6,-92.24 c 0,0 -11.8,-58.23 -19.9,-162.8 -2.1,-26.93 -4,-57.01 -5.3,-89.88 -110.6,-33.52 -182.7,-94.13 -182.7,-94.13" /></g><g
         transform="scale(1.54785)"
         id="g150"><path
           id="path152"
           style="fill:#2a4e96;fill-opacity:1;fill-rule:nonzero;stroke:none"
           d="m 14404.8,4634.5 c 0,-36.69 42.3,-54.27 51.3,-56.08 84.2,-15.37 319.4,-106.85 531.3,-127.85 178.4,-18.67 344,-0.97 526,35.6 24.1,4.84 80.6,20.09 84.7,43.15 5,25.27 701.9,1420.75 160.2,2020.17 -12.7,14.06 -119.7,-11.27 -217.5,-34.48 -90.3,-21.42 -173.2,-9.48 -247.2,20.2 l -91.6,-48.26 c -112.7,-62.74 -325.8,-285.75 -350.7,-460.71 -12.7,-88.96 -63.6,-154.86 -78.3,-233.1 -5.5,-29 -11.1,-57.24 -16.8,-84.82 -11.1,-54.08 -22.5,-105.5 -34.3,-154.41 -31.8,-132.31 -65.5,-246.28 -98.5,-344.67 -35.1,-104.47 -69.6,-191.43 -100.4,-264.11 -40,-94.26 -73.7,-164.75 -94.8,-218.69 -14.9,-37.99 -23.4,-67.78 -23.4,-91.94" /></g><g
         transform="scale(1.49587)"
         id="g154"><path
           id="path156"
           style="fill:#1e3d70;fill-opacity:1;fill-rule:nonzero;stroke:none"
           d="m 14929.6,4890.66 c 1017.9,479.59 1370.4,1400.52 1370.4,1400.52 0,0 -827,-305.1 -1031,-384.52 -11.5,-55.96 -23.4,-109.17 -35.5,-159.77 -33,-136.91 -67.8,-254.84 -102,-356.65 -36.3,-108.1 -72,-198.08 -103.9,-273.29 -41.3,-97.53 -76.2,-170.47 -98,-226.29" /></g><g
         transform="scale(1.32868)"
         id="g158"><path
           id="path160"
           style="fill:#ffb07b;fill-opacity:1;fill-rule:nonzero;stroke:none"
           d="m 16031,5791.41 c 0,0 -159.3,65.33 -195.9,60.13 -36.6,-5.26 -137.9,20.1 -132.2,-13.09 4,-22.88 134.8,-47.04 134.8,-47.04 0,0 -146.1,32.89 -134.8,-1.28 7.8,-23.48 38.8,-117.04 87.1,-147.59 57.8,-36.58 162.4,-18.89 285,-1.21 225,32.59 -44,150.08 -44,150.08" /></g><g
         transform="scale(1.51374)"
         id="g162"><path
           id="path164"
           style="fill:#2a4e96;fill-opacity:1;fill-rule:nonzero;stroke:none"
           d="m 14093.3,4984.69 c -32.2,83.83 -46.9,121.82 -46.9,121.82 0,0 656.9,535.36 723.8,581.27 45.6,31.31 499.6,370.67 721,635.19 109.8,131.19 282.9,191.18 450.4,156.03 l 137.8,-28.87 c 166.6,-34.94 220.6,-245.68 91.5,-356.4 -363.8,-311.81 -977.3,-673.5 -1091.7,-748.74 -283.9,-186.76 -912,-448.43 -912,-448.43 0,0 -48.7,22.26 -73.9,88.13" /></g><g
         transform="scale(1.49009)"
         id="g166"><path
           id="path168"
           style="fill:#ea8e50;fill-opacity:1;fill-rule:nonzero;stroke:none"
           d="m 15947.9,6888.91 c 213.4,-11.97 352.1,164.16 352.1,164.16 0,0 -96.4,53.44 -149.1,92.76 L 15968,7052.9 c 0,0 -11.9,-58.65 -20.1,-163.99" /></g><g
         transform="scale(1.51751)"
         id="g170"><path
           id="path172"
           style="fill:#ffb07b;fill-opacity:1;fill-rule:nonzero;stroke:none"
           d="m 15570.5,6979.52 c 0,0 317.4,-227.78 456.2,-27.93 138.9,199.85 273.3,305.05 76.5,458.92 -196.7,153.88 -289.5,105.27 -352.1,49.83 -62.6,-55.43 -259.5,-416.42 -180.6,-480.82" /></g><g
         transform="scale(1.53507)"
         id="g174"><path
           id="path176"
           style="fill:#233862;fill-opacity:1;fill-rule:nonzero;stroke:none"
           d="m 15537.8,7553.44 c 11.2,75.94 36.6,129.38 36.6,129.38 0,0 19.6,-81.56 168.8,-70.31 149,11.25 385.3,-14.67 464,-184.53 5,-10.81 9.5,-21.94 13.5,-33.33 14.2,37.67 17.7,94.1 17.7,94.1 28.2,-73.13 0,-164.6 0,-164.6 h -0.1 c 0.5,-2.67 0.8,-5.35 1.2,-8.01 32.9,-27.82 60.5,-114.28 60.5,-114.28 -9.9,24.1 -34.1,39.85 -55.7,49.55 0.7,-132.18 -53,-261.41 -147,-299.87 -137.6,-56.25 -136.5,-13.34 -274.9,-105.11 0,0 -37.1,46.04 -11.8,76.99 25.3,30.93 120.9,75.93 67.5,120.94 -53.4,45 -73.1,-5.63 -92.8,25.31 -19.7,30.94 78.8,120.94 -47.8,205.32 -126.6,84.38 -211,202.51 -199.7,278.45" /></g><g
         transform="scale(1.07865)"
         id="g178"><path
           id="path180"
           style="fill:#2c3a64;fill-opacity:1;fill-rule:nonzero;stroke:none"
           d="m 8939.83,16038.6 c -0.78,21.2 -17.18,249.5 -364.95,261.4 0,0 171.01,-20.4 200.57,-95.6 0,0 -116.45,92.9 -211.28,63 -94.83,-29.8 -150.53,-196 -151.08,-250.6 -0.56,-54.7 52.13,-230.8 112.3,-245.8 22.8,-5.7 49.07,-4.2 72.9,-0.1 -16.01,-25 -31.7,-52.6 -46.7,-83.4 -138.78,-284.8 4.33,-563.2 121.82,-532.5 75.34,19.7 96.66,-108.8 96.66,-108.8 l 732,592.6 c 0,0 -268.86,556.3 -562.24,399.8" /></g><path
         id="path182"
         style="fill:#2b478b;fill-opacity:1;fill-rule:nonzero;stroke:none"
         d="m 9917.85,8247.8 -167.71,-62.5 c 0,0 -728.47,1010.4 -818.16,1899.3 -16.02,158.7 -10.68,312.5 23.97,454.4 0,0 -7.13,40.7 -19.58,112.6 -5.75,33.5 -12.87,73.9 -20.95,120.2 -23.69,135.7 -56.28,321.4 -93.53,532.8 -85.71,486.5 -196.76,1108.4 -283.02,1565.6 l 45.18,14.5 488.97,157.8 101.05,320.9 364.08,95.9 c 0,0 81.34,-159.1 154.05,-910.7 13.42,-98.6 25.6,-207.3 34.78,-325.2 28.34,-359.9 30.39,-806.2 -34.65,-1316.6 -16.7,-130.6 -37.79,-265.5 -63.94,-404 -19.17,-101.6 -22.05,-240.1 -13.97,-399 36.7,-726.7 303.43,-1856 303.43,-1856" /><path
         id="path184"
         style="fill:#233862;fill-opacity:1;fill-rule:nonzero;stroke:none"
         d="m 9726.98,12223.4 -790.61,-1571.8 c -5.75,33.5 -12.87,73.9 -20.95,120.2 -23.69,135.7 -56.28,321.4 -93.53,532.8 -85.71,486.5 -196.76,1108.4 -283.02,1565.6 l 45.18,14.5 488.97,157.8 101.05,320.9 364.08,95.9 c 0,0 81.34,-159.1 154.05,-910.7 13.42,-98.6 25.6,-207.3 34.78,-325.2" /><path
         id="path186"
         style="fill:#2b478b;fill-opacity:1;fill-rule:nonzero;stroke:none"
         d="m 9379.17,13257.6 -18.31,156.9 c -306.62,-81.4 -1125.89,227.6 -1125.89,227.6 0,0 -297.05,-261.1 -258.05,-887 19.04,-305.5 53.81,-1603.7 90.13,-1987.8 13.12,-139.3 24.62,-238.4 29.32,-277.9 0.09,-0.2 0.09,-0.3 0.09,-0.4 1.44,-12.1 -2.78,-23.5 -8.91,-34 -53.47,-90.8 -97.74,-185.2 -134.05,-281.9 -356.46,-949.9 54.9,-2119.7 54.9,-2119.7 l 106.75,43 c 0,0 234.09,1301.9 424.29,1877 32.29,97.5 63.24,174.2 91.61,220 82.69,133.5 159.44,351.5 229.11,610.9 131.65,490.5 237.63,1128.4 308.16,1620.8 9.72,-0.4 210.85,832.5 210.85,832.5" /><path
         id="path188"
         style="fill:#ffb27d;fill-opacity:1;fill-rule:nonzero;stroke:none"
         d="m 11794.9,13458.1 c -66,-58.4 -241.2,142.1 -265.3,168.8 -1.3,2.5 -2.5,3.8 -2.5,3.8 l 53.3,148.5 c 0,0 229.7,8.9 267.8,-29.2 38,-38.1 19,-229.8 -53.3,-291.9" /><path
         id="path190"
         style="fill:#ffb27d;fill-opacity:1;fill-rule:nonzero;stroke:none"
         d="m 11580.4,13779.2 -22.9,-153.6 c 0,0 -10.1,0 -27.9,1.3 -55.9,3.8 -191.7,11.4 -345.2,27.9 -231,22.8 -505.2,63.5 -614.3,130.7 -166.3,101.5 -439.2,412.5 -616.88,723.5 -5.08,7.6 -8.88,15.2 -12.69,22.8 -92.65,165 -157.39,328.8 -162.46,459.5 -3.81,79.9 5.07,148.5 21.57,208.1 21.58,78.7 57.12,140.9 93.92,187.9 5.09,7.6 10.16,15.2 17.78,21.6 60.92,72.3 120.56,102.8 120.56,102.8 30.5,12.7 63.5,-2.6 97.7,-39.4 v -1.3 c 28,-29.2 58.4,-73.6 87.6,-129.4 1.3,-1.3 2.6,-2.6 2.6,-3.8 6.3,-11.5 12.7,-24.1 20.3,-38.1 2.5,-2.5 3.8,-6.4 5,-8.9 14,-29.2 28,-59.6 41.9,-91.4 156.1,-340.1 322.4,-855.4 460.8,-1009 59.6,-66 332.5,-195.5 549.5,-291.9 156.1,-68.6 283.1,-119.3 283.1,-119.3" /><g
         transform="scale(1.00015)"
         id="g192"><path
           id="path194"
           style="fill:#ffb27d;fill-opacity:1;fill-rule:nonzero;stroke:none"
           d="m 9963.41,15158.9 c -96.24,-44.6 -212.48,-75 -353.08,-82.7 -527.08,-28.9 -646.74,433.2 -668.5,739.8 75.97,27.6 142.52,25 180.85,22.9 37.37,-2 76.39,-5.9 108.56,-9.8 64.48,33.6 180.3,197.2 247.26,470.9 l 22.72,-10.5 380.32,-178.8 c 0,0 -40.38,-123.8 -70.22,-242.2 -23.28,-92.7 -39.99,-182.2 -26.02,-207.3 29.98,-12.2 47.92,-19.8 47.92,-19.8 0,0 0,-0.2 0.13,-0.5 3.84,-9.7 86.53,-220.4 130.06,-482" /></g><path
         id="path196"
         style="fill:#f99746;fill-opacity:1;fill-rule:nonzero;stroke:none"
         d="m 10096.8,14815.4 c -4,-10.6 -8.3,-20.8 -13.1,-31.4 -133.53,-287.5 -380.69,-1478.6 -380.69,-1478.6 35.19,-214.2 -1609.42,42 -1613.67,237 -57.92,206.7 205.53,538.9 354.09,705.5 18.62,21 35.33,43.5 49.84,67.1 36.7,59.5 59.98,126.6 67.37,196.7 29.17,276.4 18.08,535.4 20.53,692.9 l 0.01,0.1 c 29.03,21.5 57.1,41.3 83.25,60.2 39.98,29.2 75.31,56.4 101.33,84.1 28.62,30.1 46.55,60.9 48.61,95.7 1.5,26.3 0.68,53.2 -2.06,80.2 -1.24,12.8 -2.88,25.5 -4.8,38.2 -20.53,133.8 -76.4,255.1 -76.4,255.1 141.45,57.2 392.98,23.2 392.98,23.2 0,0 -0.27,-14 -0.41,-36.9 -0.82,-91.8 0,-327.8 29.44,-372.4 36.83,-55.6 710.64,-299.2 746.25,-223.7 35.04,74.2 -60.94,421.8 -64.5,435 -0.13,0.2 -0.13,0.4 -0.13,0.4 225.66,-88.6 306.26,-163 306.26,-163 -135.9,-88.1 61,-386.5 -44.2,-665.4" /><path
         id="path198"
         style="fill:#ed985f;fill-opacity:1;fill-rule:nonzero;stroke:none"
         d="m 9883.08,16113.1 c 0,0 -40.44,-123.7 -70.24,-242.2 -222.34,62 -289.86,295.7 -310.17,421 l 380.41,-178.8" /><g
         transform="scale(1.04317)"
         id="g200"><path
           id="path202"
           style="fill:#ffb27d;fill-opacity:1;fill-rule:nonzero;stroke:none"
           d="m 9519,15320.8 c 0,0 -509.93,118 -431.56,434.4 78.39,316.5 65.36,544.8 394.26,482.8 328.91,-61.9 361.98,-198.3 361.5,-310.3 -0.48,-112 -189.52,-629.5 -324.2,-606.9" /></g><g
         transform="scale(1.05067)"
         id="g204"><path
           id="path206"
           style="fill:#2c3a64;fill-opacity:1;fill-rule:nonzero;stroke:none"
           d="m 9801.33,15992.3 c -54.44,113.9 -118.49,107.8 -158.56,87.6 -237.86,220.1 -471.19,40.3 -471.19,40.3 -89.81,-217 -284.45,-305.6 -284.45,-305.6 0,0 77.77,-79.7 303.19,-77.9 68.86,0.5 138.1,32.1 201.08,75.7 -121.5,-122.4 -263.98,-196.9 -263.98,-196.9 282.19,54 471.37,380.7 490.79,415.4 23.89,-35.3 69.67,-110.4 73.48,-173.9 5.23,-86.2 -24.46,-253.7 24.93,-260.1 0,0 166.37,224.6 84.71,395.4" /></g><path
         id="path208"
         style="fill:#f99746;fill-opacity:1;fill-rule:nonzero;stroke:none"
         d="m 10141.1,15480.9 c 0,0 128.1,-223.4 147.2,-280.9 0,0 -166.1,6.4 -233.1,-121.4 0,0 -16.1,372.2 85.9,402.3" /><path
         id="path210"
         style="fill:#ed7d2b;fill-opacity:1;fill-rule:nonzero;stroke:none"
         d="m 9260.2,13705.6 c -324.38,3.4 -599.06,340.3 -766.93,609.4 36.7,59.5 59.98,126.6 67.37,196.7 29.17,276.4 18.08,535.4 20.53,692.9 l 0.01,0.1 c 29.03,21.5 57.1,41.3 83.25,60.2 39.98,29.2 75.31,56.4 101.33,84.1 265.63,-449 934.24,-1648.1 494.44,-1643.4" /><path
         id="path212"
         style="fill:#233862;fill-opacity:1;fill-rule:nonzero;stroke:none"
         d="M 8629.01,7966.2 H 7784.3 c 0,0 -20.25,128.8 23.87,226.4 42.28,93.7 108.5,136.3 92.64,249.7 53.68,-55.2 141.16,-117.1 263.28,-100.7 14.96,-24.3 96.59,-154.1 146.57,-190 55.2,-39.7 301.35,-25.5 318.35,-185.4" /><path
         id="path214"
         style="fill:#233862;fill-opacity:1;fill-rule:nonzero;stroke:none"
         d="m 10442.7,7966.2 h -844.69 c 0,0 -31.58,134.7 23.87,226.4 49.09,81.1 30.28,127.3 -6.08,194.5 38.27,-15.7 87.77,-30 142.27,-26.8 42.09,2.4 86.59,21.5 125.62,44.1 36.36,-41.4 192.01,-217.8 240.71,-252.8 55.2,-39.7 301.3,-25.5 318.3,-185.4" /><path
         id="path216"
         style="fill:#2b478b;fill-opacity:1;fill-rule:nonzero;stroke:none"
         d="m 11287.1,13998.3 -41.4,10.2 c 137.3,282.2 381.5,496.7 581.8,608.2 175.4,97.6 320.5,141.8 372.6,156.1 12.7,3.5 26.1,0.4 36,-8.3 l 38.2,-33.7 c 18.9,-16.6 11.9,-48.5 -12.4,-55.4 -185.6,-53.6 -767.5,-250.9 -974.8,-677.1" /><path
         id="path218"
         style="fill:#f46c0f;fill-opacity:1;fill-rule:nonzero;stroke:none"
         d="m 10559.9,13821.5 c 129.3,524.4 424.8,451.5 789.3,361.6 364.5,-89.9 659.9,-162.8 530.6,-687.2 -92.7,-375.8 -463.3,-607.6 -827.8,-517.7 -364.5,89.9 -584.8,467.4 -492.1,843.3" /><path
         id="path220"
         style="fill:#ff9045;fill-opacity:1;fill-rule:nonzero;stroke:none"
         d="m 10754.9,13953.4 c 0,90.8 130.2,204.5 221,204.5 90.7,0 146,-93.7 146,-184.4 0,-90.8 -111.9,-184.4 -202.6,-184.4 -90.8,0 -164.4,73.5 -164.4,164.3" /><path
         id="path222"
         style="fill:#ffb27d;fill-opacity:1;fill-rule:nonzero;stroke:none"
         d="m 10486.3,13529.1 -44.4,-162.4 c 0,0 -55.9,10.1 -144.7,26.6 -26.7,5.1 -41.9,8.9 -41.9,8.9 -71.1,14 -156.1,33 -248.8,53.3 h -1.2 c -158.69,38.1 -336.38,83.8 -486.15,134.6 -105.35,36.8 -196.73,76.1 -258.93,115.5 -6.34,3.8 -11.41,7.6 -17.76,12.7 -148.5,107.8 -324.93,425.1 -462,765.3 -19.03,46.9 -36.81,93.9 -54.58,139.6 -63.46,170.1 -114.22,337.6 -144.68,482.3 -19.05,86.3 -31.73,165 -34.28,229.7 -1.27,22.9 -2.54,44.4 -1.27,64.8 2.54,368 185.31,418.8 185.31,418.8 3.81,1.3 7.62,2.5 12.69,3.8 31.73,5.1 64.73,-16.5 99.01,-58.4 43.15,-52 88.84,-137 135.8,-239.8 72.34,-163.8 148.5,-375.7 219.58,-586.5 39.34,-115.4 77.41,-230.9 115.49,-337.5 21.58,-64.8 43.16,-125.7 63.46,-181.5 39.35,-106.7 74.89,-193 106.62,-247.5 20.31,-35.6 78.69,-85.1 156.11,-140.9 134.54,-97.8 331.27,-215.8 502.58,-312.2 71.1,-40.7 138.4,-77.5 194.2,-107.9 90.1,-49.5 149.8,-81.3 149.8,-81.3" /><path
         id="path224"
         style="fill:#f99746;fill-opacity:1;fill-rule:nonzero;stroke:none"
         d="m 8978.01,15523.8 c -244.34,67.4 -432.82,-123.4 -432.82,-123.4 3.07,367.5 185.99,417.8 185.99,417.8 73.59,30.5 158.87,-97 246.83,-294.4" /><path
         id="path226"
         style="fill:#ffb27d;fill-opacity:1;fill-rule:nonzero;stroke:none"
         d="m 10486.3,13529.1 c 0,0 79.7,-1.7 124.8,25.8 45.1,27.6 172.8,65.1 230.4,58.9 0,0 21.3,-8.8 13.7,-28.8 -7.5,-20.1 -101.4,-36.3 -101.4,-73.9 0,0 117.7,3.8 152.8,18.8 35,15 170.2,-19.5 196.5,-35.1 26.4,-15.5 -171.5,-134.7 -259.1,-182.8 -87.7,-48.1 -402.1,54.7 -402.1,54.7 l 44.4,162.4" /><path
         id="path228"
         style="fill:#fcecdb;fill-opacity:1;fill-rule:nonzero;stroke:none"
         d="m 10426.7,2276 c -28.8,0 -53.4,23.5 -58.4,55.5 l -285.8,1879.3 -411.12,2702.9 -114.97,755.8 292.83,9.7 50.81,-438.8 356.75,-3083.3 211.5,-1827.6 c 3.2,-28.3 -16.3,-53.5 -41.6,-53.5" /><path
         id="path230"
         style="fill:#fcecdb;fill-opacity:1;fill-rule:nonzero;stroke:none"
         d="m 7430.15,7669.5 -130.32,-856.6 v -0.1 L 6939.93,4446.7 6618.14,2331.5 c -4.84,-32 -29.45,-55.5 -58.23,-55.5 -25.36,0 -44.97,25.2 -41.63,53.5 l 277.48,2397.9 296.75,2564.8 44.81,387 292.83,-9.7" /><path
         id="path232"
         style="fill:#efcbab;fill-opacity:1;fill-rule:nonzero;stroke:none"
         d="m 7299.83,6812.9 c 17.11,368.1 -207.32,479.3 -207.32,479.3 l 44.81,387 292.83,-9.7 -130.32,-856.6" /><path
         id="path234"
         style="fill:#efcbab;fill-opacity:1;fill-rule:nonzero;stroke:none"
         d="m 9900.05,7240.4 c -189.72,-97.1 -228.67,-326.7 -228.67,-326.7 l -114.97,755.8 292.83,9.7 50.81,-438.8" /><path
         id="path236"
         style="fill:#fcecdb;fill-opacity:1;fill-rule:nonzero;stroke:none"
         d="M 10722.9,7669.5 H 6263.59 c -68.07,0 -123.77,55.7 -123.77,123.7 v 49.2 c 0,68.1 55.7,123.8 123.77,123.8 h 4459.31 c 68.1,0 123.8,-55.7 123.8,-123.8 v -49.2 c 0,-68 -55.7,-123.7 -123.8,-123.7" /><g
         transform="scale(1.55788)"
         id="g238"><path
           id="path240"
           style="fill:#82b378;fill-opacity:1;fill-rule:nonzero;stroke:none"
           d="m 16197.2,1464.75 h -694.7 c -37.2,31.58 25.8,103.28 91.6,108.1 28.6,2.11 64.7,-3.86 106,-12.59 9.6,126.97 64.2,697.81 269.9,674.83 231.3,-25.67 0,-251.36 -65.4,-384.94 -48.4,-98.98 -99.5,-240.91 -122.9,-307.92 18.8,-4.05 38.2,-8.03 58.1,-11.69 30.6,94.17 144.8,410.82 289.8,392.4 170.4,-21.64 101.9,-148.6 -18.8,-223.96 -88.6,-55.46 -197.4,-134.22 -249,-172.29 43.8,-7.12 89.5,-11.94 135.8,-10.85 119,2.83 177.1,-32.28 199.6,-51.09" /></g><path
         id="path242"
         style="fill:#82b378;fill-opacity:1;fill-rule:nonzero;stroke:none"
         d="m 4388.02,2281.9 h 1082.23 c 58,49.2 -40.12,160.9 -142.66,168.4 -44.52,3.3 -100.84,-6 -165.18,-19.6 -14.88,197.8 -99.93,1087.1 -420.46,1051.3 -360.4,-40 0,-391.6 101.88,-599.7 75.47,-154.2 155.09,-375.3 191.46,-479.7 -29.25,-6.3 -59.55,-12.5 -90.49,-18.2 -47.77,146.7 -225.51,640 -451.53,611.3 -265.38,-33.7 -158.71,-231.5 29.39,-348.9 137.99,-86.4 307.45,-209.1 387.97,-268.4 -68.23,-11.1 -139.42,-18.6 -211.66,-16.9 -185.38,4.4 -275.86,-50.3 -310.95,-79.6" /><g
         transform="scale(1.1252)"
         id="g244"><path
           id="path246"
           style="fill:#ffb93e;fill-opacity:1;fill-rule:nonzero;stroke:none"
           d="m 12771.8,3491.04 c 41.3,-206.9 91.8,-385.98 150.6,-540.8 455.4,-1199.97 1404.7,-941.26 2331.4,-941.26 1046.2,0 1044.2,700.77 1044.2,1648.07 0,947.21 -579.6,1699.97 -1625.7,1699.97 -1046.2,0 -2085.4,-936.99 -1900.5,-1865.98" /></g><g
         transform="scale(1.16946)"
         id="g248"><path
           id="path250"
           style="fill:#ffa412;fill-opacity:1;fill-rule:nonzero;stroke:none"
           d="m 16293.7,3222.34 c 6.3,923.33 -665.1,1665.22 -1561.6,1911.4 -914.7,251.31 -1674.4,-363.33 -1673,-1258.87 1.5,-899.57 776.9,-1790.57 1704.7,-1910.29 897.4,-115.86 1523.8,359.66 1529.9,1257.76" /></g><g
         transform="scale(1.16366)"
         id="g252"><path
           id="path254"
           style="fill:#ffda9f;fill-opacity:1;fill-rule:nonzero;stroke:none"
           d="m 16294,3260.84 c 6,881.71 -635.2,1590.08 -1491.2,1825.2 -873.5,239.93 -1598.9,-346.93 -1597.6,-1202.07 1.4,-859.11 741.9,-1709.96 1627.9,-1824.26 856.9,-110.59 1455,343.49 1460.9,1201.13" /></g><g
         transform="scale(1.07115)"
         id="g256"><path
           id="path258"
           style="fill:#ffb93e;fill-opacity:1;fill-rule:nonzero;stroke:none"
           d="m 16007.6,4103.45 272.1,1024.32 c 20.3,76.18 -39.1,166.09 -121.7,184.01 -100.8,21.94 -239.6,45.37 -387,50.41 -170.6,5.8 -314,-8.58 -413.1,-23.89 -76.8,-11.86 -107.5,-98.03 -62.2,-174.4 l 628,-1058.67 c 22.4,-37.91 74,-39.03 83.9,-1.78" /></g><g
         transform="scale(1.14857)"
         id="g260"><path
           id="path262"
           style="fill:#ffb93e;fill-opacity:1;fill-rule:nonzero;stroke:none"
           d="m 15148.4,3533.61 951.7,-594.83 c 70.8,-44.22 151.7,-16.89 165.6,56.25 17.1,89.15 34.3,214.09 34.3,353.31 0,161.15 -17.7,302.89 -34.8,402.58 -13.4,77.32 -93.7,134.78 -162.6,116.5 l -955.3,-254.15 c -34.1,-9.14 -33.6,-58.07 1.1,-79.66" /></g><g
         transform="scale(1.1361)"
         id="g264"><path
           id="path266"
           style="fill:#ffb93e;fill-opacity:1;fill-rule:nonzero;stroke:none"
           d="m 15255.3,3751.17 951.6,253.15 c 70.7,18.83 93.1,104.39 45.6,175.43 -58,86.61 -142.7,202.79 -247.4,317.31 -121.1,132.47 -237,235.19 -321.1,303.85 -65.1,53.07 -150.8,37.76 -173.6,-31.08 l -315.5,-953.96 c -11.3,-34.15 25.9,-73.94 60.4,-64.7" /></g><g
         transform="scale(1.13412)"
         id="g268"><path
           id="path270"
           style="fill:#ffb93e;fill-opacity:1;fill-rule:nonzero;stroke:none"
           d="M 15190.2,3489.06 15485,2424.62 c 22,-79.18 107.8,-131.12 176,-106.34 83.1,30.33 194.3,78.03 303.1,146.81 125.7,79.62 222.2,164.01 286.2,227.14 49.7,49.02 30.5,142.4 -38.7,189.13 l -960,647.91 c -34.4,23.19 -72,-1.5 -61.4,-40.21" /></g><g
         transform="scale(1.04225)"
         id="g272"><path
           id="path274"
           style="fill:#ffb93e;fill-opacity:1;fill-rule:nonzero;stroke:none"
           d="m 16274.5,4185.56 -700.7,1037.75 c -52.2,77.23 -153.1,98.34 -207,42.98 -65.6,-67.45 -150.4,-165.6 -224.5,-285.63 -85.7,-138.93 -142.1,-270.76 -176.7,-366.23 -26.9,-73.97 28.4,-167.81 111.8,-190.07 l 1155.8,-307.98 c 41.4,-11.04 66.8,31.47 41.3,69.18" /></g><g
         transform="scale(1.04208)"
         id="g276"><path
           id="path278"
           style="fill:#ffb93e;fill-opacity:1;fill-rule:nonzero;stroke:none"
           d="m 16235.6,4022.15 -1141.8,198.54 c -85,14.78 -146.5,-53.45 -125.8,-139.91 25.1,-105.46 66.4,-249.98 129.9,-402.08 73.6,-175.99 154.5,-322.33 215.7,-423 47.5,-78.11 147.1,-102.87 201.8,-50.19 l 757.4,730.08 c 27.2,26.2 4.3,79.36 -37.2,86.56" /></g><g
         transform="scale(1.07115)"
         id="g280"><path
           id="path282"
           style="fill:#ffb93e;fill-opacity:1;fill-rule:nonzero;stroke:none"
           d="m 15894.8,3740.75 -599,-819.39 c -44.6,-60.97 -13.1,-160.12 64.7,-203.25 95,-52.46 227.6,-118.84 375,-171.68 170.5,-61.24 319.9,-95.6 424.8,-114.46 81.4,-14.75 139.7,51.63 118,134.25 L 15979,3711.54 c -10.7,41.07 -62.4,58.9 -84.2,29.21" /></g><path
         id="path284"
         style="fill:#2c3a64;fill-opacity:1;fill-rule:nonzero;stroke:none"
         d="m 14403.9,9500.6 c 4.8,19.5 -425.5,-194.6 -447.4,-218.8 -201.8,-223.9 -144.3,-516 -28.8,-518.9 74.1,-1.7 59.8,-124.9 59.8,-124.9 l 825.2,349.1 c 0,0 -99.4,579.4 -408.8,513.5" /><path
         id="path286"
         style="fill:#2c3a64;fill-opacity:1;fill-rule:nonzero;stroke:none"
         d="m 14505.5,9455.4 c 0,0 29.5,321.4 -329.7,321.4 0,0 108.8,-29.5 165.1,-88.5 0,0 -229.1,134.4 -478.4,-72.2 -249.3,-206.7 -94.4,-724.9 -170.2,-823.4 -75.8,-98.4 -371,-118.1 -334.9,-436.2 36.1,-318.2 936.9,-716.7 879.1,-980 0,0 353,519 100.6,755.8 0,0 123,-115.9 135.6,-253.7 0,0 33.4,269 -137.8,355.1 -151.5,76.1 -275.5,354.5 -262.4,404.3 13.1,49.8 433,817.4 433,817.4" /><path
         id="path288"
         style="fill:#ed985f;fill-opacity:1;fill-rule:nonzero;stroke:none"
         d="m 14179.3,7943 c -55.3,266.7 -401.2,349.4 -564.8,131.6 -29.4,-39.2 -50.1,-85.5 -56.9,-140.1 -37.3,-302.8 446.7,-1535.9 516.1,-1647.5 126.2,-203.3 869.3,-900.1 869.3,-900.1 l 137,83 c 0,0 -527.2,892.4 -608.8,975.9 -94.3,96.6 -186.7,990.8 -291.9,1497.2" /><path
         id="path290"
         style="fill:#ed985f;fill-opacity:1;fill-rule:nonzero;stroke:none"
         d="m 14890.9,5469.6 c 0,0 199.9,131.2 275.6,122.7 75.6,-8.4 294.6,-71.4 297.3,-103.6 2.7,-32.2 -244,-52.3 -260.6,-69.9 -16.5,-17.6 -184,-129.4 -244.8,-94.4 -60.7,35.1 -67.5,145.2 -67.5,145.2" /><path
         id="path292"
         style="fill:#f99746;fill-opacity:1;fill-rule:nonzero;stroke:none"
         d="m 13496.6,2504.5 -178.6,26.2 c 0,0 -600.4,477.1 -689.8,1367.5 -9.1,90.6 -11,182.6 -4.3,275.3 0.8,10.7 -0.4,21.3 -6.2,30.3 0,0.1 -0.1,0.2 -0.2,0.3 -19.2,29.5 -67.1,103.3 -131.8,208.2 -63.9,103.4 -173.1,298.9 -293.3,518.3 -216.5,395.1 -468.5,867.6 -555,1018.1 -275.5,479.6 -142.7,802.1 -142.7,802.1 0,0 768.5,76 979.1,260.2 l 75.8,-116.9 c 0,0 166.6,-737.1 158.7,-740.5 8.2,-25.1 16.5,-50.6 25,-76.6 131.4,-405.6 282.5,-912.5 364.9,-1325.4 46.4,-232.3 70.9,-434.7 57.7,-572.6 -4.5,-47.3 1,-120 13.6,-209.7 74.4,-529.1 327.1,-1464.8 327.1,-1464.8" /><path
         id="path294"
         style="fill:#233862;fill-opacity:1;fill-rule:nonzero;stroke:none"
         d="m 13871.2,2278.5 h -745 c 0,0 -17.9,113.6 21,199.7 37.3,82.7 90.5,85.3 6.8,214.9 47.3,-48.8 199.5,-68.9 307.2,-54.4 13.2,-21.4 85.1,-165 129.2,-196.7 48.7,-34.9 265.8,-22.5 280.8,-163.5" /><path
         id="path296"
         style="fill:#ed7d2b;fill-opacity:1;fill-rule:nonzero;stroke:none"
         d="m 12733.3,6077 c -65.1,-358.9 -218.8,-956.3 -540.9,-1146.4 -216.5,395.1 -468.5,867.6 -555,1018.1 -275.5,479.6 -142.7,802.1 -142.7,802.1 0,0 768.5,76 979.1,260.2 l 75.8,-116.9 c 0,0 166.6,-737.1 158.7,-740.5 8.2,-25.1 16.5,-50.6 25,-76.6" /><path
         id="path298"
         style="fill:#2a4e96;fill-opacity:1;fill-rule:nonzero;stroke:none"
         d="m 14099.6,8108.5 c 0,0 105.4,-109.6 153.5,-240.8 0,0 -168.1,-482.5 -560.8,-543.1 0,0 310.7,784.1 407.3,783.9" /><path
         id="path300"
         style="fill:#f99746;fill-opacity:1;fill-rule:nonzero;stroke:none"
         d="m 12210.8,6695.4 2.5,139.3 c -277.6,-35 -957.3,331.8 -957.3,331.8 0,0 -290.4,-193.2 -330.2,-744.8 -19.4,-269.3 -142.1,-1408.1 -155.7,-1748.1 -5,-123.3 -6.6,-211.2 -7.2,-246.4 0.1,-0.1 0.1,-0.2 0.1,-0.3 -0.2,-10.7 -5.2,-20.2 -11.8,-28.7 -57.5,-73 -107.3,-150.4 -150.5,-230.6 -423.6,-788.2 -202.1,-1859.1 -202.1,-1859.1 l 98.4,25 c 0,0 358.2,1110.2 592.3,1590.4 39.8,81.5 75.9,144.8 106.1,181.5 88,106.9 180.8,288.5 272.3,507 172.9,413.1 340.8,958.2 460.6,1380.3 8.4,-1.5 282.5,702.7 282.5,702.7" /><path
         id="path302"
         style="fill:#ffb27d;fill-opacity:1;fill-rule:nonzero;stroke:none"
         d="m 13835.4,7625.4 c -453.9,104.2 -163.9,741.9 -137.6,730.7 62.9,12.8 201,123.2 324.5,338.8 l 16.7,-14.4 278.8,-244.4 c 0,0 -64.5,-95.1 -118.7,-188.2 -42.3,-72.9 -78.3,-144.7 -72.6,-169.3 22.4,-17.7 -170.1,-481 -291.1,-453.2" /><path
         id="path304"
         style="fill:#ed985f;fill-opacity:1;fill-rule:nonzero;stroke:none"
         d="m 14317.8,8436 c 0,0 -64.5,-94.9 -118.7,-188.1 -173.3,106.8 -173.5,321.3 -160.1,432.5 l 278.8,-244.4" /><path
         id="path306"
         style="fill:#ffb27d;fill-opacity:1;fill-rule:nonzero;stroke:none"
         d="m 14325.5,8313.6 c 0,0 -420.8,234.2 -271,494 149.9,259.8 196.5,465 471.5,326.5 275,-138.6 269.6,-267.5 240.6,-366.4 -28.9,-98.9 -327.8,-508.3 -441.1,-454.1" /><path
         id="path308"
         style="fill:#2c3a64;fill-opacity:1;fill-rule:nonzero;stroke:none"
         d="m 14837.7,8919.2 c -19.2,115.4 -77.8,126.4 -118.7,118.7 -155.4,257 -409.3,156.7 -409.3,156.7 -135.6,-170.2 -331.7,-199.2 -331.7,-199.2 0,0 48.9,-90.9 250.1,-147.1 61.4,-17.2 131.2,-6.8 198.4,15.8 -139.5,-77.8 -285.5,-107.6 -285.5,-107.6 265.1,-24.3 517.4,218.1 543.5,244 12.3,-37.5 33.7,-116.2 20.9,-173.7 -17.5,-78.1 -86.8,-219.6 -44.5,-237.9 0,0 205.7,157.3 176.8,330.3" /><path
         id="path310"
         style="fill:#233862;fill-opacity:1;fill-rule:nonzero;stroke:none"
         d="m 10991.1,2278.5 h -745 c 0,0 -17.9,113.6 21,199.7 37.3,82.7 95.7,120.2 81.7,220.2 47.4,-48.7 124.5,-103.3 232.2,-88.8 13.2,-21.4 85.2,-135.9 129.3,-167.6 48.7,-34.9 265.8,-22.5 280.8,-163.5" /><path
         id="path312"
         style="fill:#2a4e96;fill-opacity:1;fill-rule:nonzero;stroke:none"
         d="m 13888.8,7119.8 c -95.9,-33.5 -230.4,-51.8 -368.1,-66.7 -195.9,-21.4 -398.1,-36 -504.1,-78.3 -38.6,-15.4 -64.5,-34.4 -72.5,-58.8 -46,-138.1 -248.4,-351.2 -248.4,-351.2 -1297.2,59.1 -1439.7,601.7 -1439.7,601.7 872.9,1014.9 2350.7,1308.7 2350.7,1308.7 0,0 105.5,44.8 371.4,-166.5 177.4,-141 154,-195.2 154,-195.2 0,0 38.8,-895.3 -243.3,-993.7" /><path
         id="path314"
         style="fill:#1e3d70;fill-opacity:1;fill-rule:nonzero;stroke:none"
         d="m 13520.7,7053.1 c -195.9,-21.4 -398.1,-36 -504.1,-78.3 -43.3,647 262.1,1133.7 262.1,1133.7 0,0 199.1,-810.6 242,-1055.4" /><path
         id="path316"
         style="fill:#ffb27d;fill-opacity:1;fill-rule:nonzero;stroke:none"
         d="m 13722.4,8233.7 c 0,0 -491,-48.6 -530.4,-367.6 -39.3,-319 470.7,-1618.4 543.8,-1736.1 133,-214.2 916.1,-948.4 916.1,-948.4 l 144.3,87.4 c 0,0 -555.4,940.4 -641.5,1028.4 -135,138.1 -266.1,1825.7 -432.3,1936.3" /><path
         id="path318"
         style="fill:#2a4e96;fill-opacity:1;fill-rule:nonzero;stroke:none"
         d="m 13206.2,7674.2 c 1.3,-7.3 453.1,-147.6 743.9,0 0,0 62.2,670.9 -284.9,634.5 -347.2,-36.4 -552.7,-145.8 -561.5,-312 -8.7,-166.2 102.5,-322.5 102.5,-322.5" /><path
         id="path320"
         style="fill:#ffb27d;fill-opacity:1;fill-rule:nonzero;stroke:none"
         d="m 14607.3,5274.8 c 0,0 176.1,161.8 252.1,165.6 76.1,3.9 302.4,-23 310.2,-54.4 7.8,-31.3 -232.4,-90.9 -245.9,-111 -13.5,-20 -160.8,-157.4 -226.4,-132.5 -65.6,24.8 -90,132.3 -90,132.3" /><g
         transform="scale(1.75031)"
         id="g322"><path
           id="path324"
           style="fill:#2e3552;fill-opacity:1;fill-rule:nonzero;stroke:none"
           d="M 16282.5,1267.03 H 831.22 c -9.65,0 -17.55,7.89 -17.55,17.55 v 6 c 0,9.65 7.9,17.53 17.55,17.53 H 16282.5 c 9.6,0 17.5,-7.88 17.5,-17.53 v -6 c 0,-9.66 -7.9,-17.55 -17.5,-17.55" /></g></g></g></svg>