<?xml version="1.0" encoding="UTF-8" standalone="no"?>
<svg
   xmlns:dc="http://purl.org/dc/elements/1.1/"
   xmlns:cc="http://creativecommons.org/ns#"
   xmlns:rdf="http://www.w3.org/1999/02/22-rdf-syntax-ns#"
   xmlns:svg="http://www.w3.org/2000/svg"
   xmlns="http://www.w3.org/2000/svg"
   viewBox="0 0 4266.6665 2666.6667"
   height="2666.6667"
   width="4266.6665"
   xml:space="preserve"
   id="svg2"
   version="1.1"><metadata
     id="metadata8"><rdf:RDF><cc:Work
         rdf:about=""><dc:format>image/svg+xml</dc:format><dc:type
           rdf:resource="http://purl.org/dc/dcmitype/StillImage" /></cc:Work></rdf:RDF></metadata><defs
     id="defs6" /><g
     transform="matrix(1.3333333,0,0,-1.3333333,0,2666.6667)"
     id="g10"><g
       transform="scale(0.1)"
       id="g12"><g
         transform="scale(1.96319)"
         id="g14"><path
           id="path16"
           style="fill:#ffffff;fill-opacity:0;fill-rule:nonzero;stroke:none"
           d="M 16300,0 H 0 V 10187.5 H 16300 V 0" /></g><g
         transform="scale(1.81248)"
         id="g18"><path
           id="path20"
           style="fill:#ebf3fa;fill-opacity:1;fill-rule:nonzero;stroke:none"
           d="m 3022.44,1310.14 c 0,0 -1501.05,681.88 -806.86,2999.1 333.21,1112.18 1339.36,1138.71 2548.36,2412 746.01,785.68 266.06,3186.91 3940.55,3013.29 4582.21,-216.51 5779.91,-3776.09 5799.71,-3938.12 68.7,-562.53 359.6,-906.7 677.3,-1229.68 96.8,-98.48 196.1,-194.87 292.2,-294.96 11.8,-12.19 23.6,-24.55 35.3,-36.91 120.4,-127.5 234.9,-261.9 332.3,-414.29 322.9,-505 458.7,-1208.18 3.2,-2517.27 l -12822.06,6.84" /></g><path
         id="path22"
         style="fill:#b6d1f8;fill-opacity:1;fill-rule:nonzero;stroke:none"
         d="M 14641.4,2417.2 H 11150 v 9460.1 h 3491.4 V 2417.2" /><path
         id="path24"
         style="fill:#dfebfd;fill-opacity:1;fill-rule:nonzero;stroke:none"
         d="m 5325.05,8446.5 c 376.16,859.4 1845.76,354.1 1845.76,354.1 0,0 792.41,-1720.5 1085.38,-1802.3 292.98,-81.9 -390.27,1603.2 -390.27,1603.2 586.77,-30.3 1955.02,-959.2 1955.02,-959.2 0,0 -366.07,-1814.7 -61.96,-1821.9 304.12,-7.2 242.12,1623.3 242.12,1623.3 534.7,-251.4 959.8,-982.4 959.8,-982.4 494.4,-1160.9 -1021.94,-1735.9 -1021.94,-1735.9 0,0 -113.29,-631.6 169.94,-1417.7 h 0.1 c 0,0 68.3,-147.6 124.2,-389.3 l -152.6,22.7 c -6.4,42.8 -14.2,84.4 -23.8,124.7 l -0.2,0.7 -0.4,1.7 c -6.9,25.2 -17,61 -29.6,104.6 v 0.2 l -0.1,0.2 c -33,98.2 -54.44,170.4 -67.11,222 l -0.08,0.5 c -96.96,307.3 -242.52,710.6 -365.07,809 0,0 20.43,21.2 43.11,65.1 -13.75,-20.8 -28.08,-42.4 -43.11,-65.1 -344.72,-520.8 -1664.74,-419.3 -2370.16,-161.5 -705.41,257.9 -357.6,415.8 83.92,690.4 441.52,274.7 1249.4,64.4 1511.45,158.9 262.04,94.4 -72.99,277.9 -563.67,312.9 -490.7,35.1 -805.62,-413.9 -1600.42,-371.6 -794.79,42.3 -1171.98,1605.4 -1171.98,1605.4 516.05,-248.7 1530.83,-94.9 1595.98,86.1 65.15,181.1 -1374.35,376.7 -1589.9,466.1 -215.55,89.4 -540.58,595.6 -164.41,1455.1" /><g
         transform="scale(1.51362)"
         id="g26"><path
           id="path28"
           style="fill:#dfebfd;fill-opacity:1;fill-rule:nonzero;stroke:none"
           d="m 16044.7,8834.36 c -255.4,583.38 -1252.9,240.36 -1252.9,240.36 0,0 -538,-1167.81 -736.8,-1223.38 -198.9,-55.56 264.9,1088.25 264.9,1088.25 -398.3,-20.57 -1327.1,-651.11 -1327.1,-651.11 0,0 248.5,-1231.77 42.1,-1236.67 -206.4,-4.9 -164.4,1101.89 -164.4,1101.89 -362.9,-170.67 -651.4,-666.86 -651.4,-666.86 -335.6,-788.06 693.7,-1178.32 693.7,-1178.32 0,0 76.9,-428.71 -115.5,-962.33 v 0 c 0,0 -46.4,-100.16 -84.3,-264.27 l 103.6,15.4 c 4.3,29.07 9.7,57.28 16.1,84.63 l 0.2,0.46 0.2,1.19 c 4.7,17.11 11.5,41.36 20.1,71.02 v 0.13 l 0.1,0.14 c 22.4,66.66 37,115.62 45.6,150.7 v 0.33 c 65.8,208.57 164.6,482.35 247.8,549.08 0,0 -13.9,14.47 -29.3,44.26 9.4,-14.14 19.1,-28.8 29.3,-44.26 234,-353.46 1130.1,-284.55 1608.9,-109.54 478.8,175.01 242.8,282.24 -57,468.61 -299.7,186.44 -848.1,43.74 -1025.9,107.82 -177.9,64.09 49.5,188.66 382.5,212.45 333.2,23.8 547,-280.96 1086.5,-252.22 539.5,28.67 795.5,1089.69 795.5,1089.69 -350.3,-168.78 -1039.1,-64.38 -1083.4,58.5 -44.2,122.87 932.9,255.68 1079.3,316.36 146.2,60.67 366.9,404.31 111.6,987.69" /></g><path
         id="path30"
         style="fill:#82b378;fill-opacity:1;fill-rule:nonzero;stroke:none"
         d="m 6657.46,3967.9 c 0,0 -1993.62,-82.9 -2432,-1080.2 0,0 -80.71,-225.3 234.85,-262.2 315.56,-36.9 1273.41,1156 2197.15,1266.4 v 76" /><path
         id="path32"
         style="fill:#82b378;fill-opacity:1;fill-rule:nonzero;stroke:none"
         d="m 6657.46,4049.1 c 0,0 -1095.62,986.4 -1931.46,640.1 -835.83,-346.4 584.96,-372.2 1009.03,-444.3 424.07,-72.1 922.43,-277 922.43,-277 v 81.2" /><path
         id="path34"
         style="fill:#82b378;fill-opacity:1;fill-rule:nonzero;stroke:none"
         d="m 6629.22,3814.1 c 0,0 -998.5,-337.7 -829.07,-877.6 169.43,-540 829.07,877.6 829.07,877.6" /><path
         id="path36"
         style="fill:#f99746;fill-opacity:1;fill-rule:nonzero;stroke:none"
         d="m 14559.7,2730.5 v 0 c -21.3,-183.1 -164.5,-322.2 -332,-322.5 l -6964.86,-15.8 c -485.23,56.4 -831.41,539.8 -769.29,1074.3 l 43.58,374.9 c 65.98,567.5 541.6,982.9 1056.94,923 L 14340.5,3077.5 c 143.8,-36 238,-185.1 219.2,-347" /><path
         id="path38"
         style="fill:#ed7d2b;fill-opacity:1;fill-rule:nonzero;stroke:none"
         d="m 7717.32,3642.5 -56.29,-484.4 c -1.73,-14.8 -15.3,-25.6 -30.15,-23.8 l -9.25,1.1 c -14.86,1.7 -25.59,15.2 -23.87,30.1 l 56.3,484.3 c 1.72,14.9 15.29,25.6 30.14,23.9 l 9.25,-1.1 c 14.86,-1.7 25.6,-15.3 23.87,-30.1" /><path
         id="path40"
         style="fill:#ed7d2b;fill-opacity:1;fill-rule:nonzero;stroke:none"
         d="m 8149.86,3160.6 -56.3,-484.3 c -1.72,-14.8 -15.29,-25.6 -30.14,-23.8 l -9.25,1 c -14.85,1.8 -25.6,15.3 -23.87,30.2 l 56.3,484.3 c 1.73,14.9 15.29,25.6 30.15,23.9 l 9.25,-1.1 c 14.85,-1.7 25.59,-15.3 23.86,-30.2" /><path
         id="path42"
         style="fill:#ed7d2b;fill-opacity:1;fill-rule:nonzero;stroke:none"
         d="m 9519.19,3642.5 -56.3,-484.4 c -1.73,-14.8 -15.29,-25.6 -30.15,-23.8 l -9.24,1.1 c -14.86,1.7 -25.6,15.2 -23.88,30.1 l 56.3,484.3 c 1.73,14.9 15.3,25.6 30.15,23.9 l 9.25,-1.1 c 14.86,-1.7 25.59,-15.3 23.87,-30.1" /><path
         id="path44"
         style="fill:#ed7d2b;fill-opacity:1;fill-rule:nonzero;stroke:none"
         d="m 9707.61,3141.8 -56.3,-484.3 c -1.73,-14.9 -15.29,-25.6 -30.15,-23.9 l -9.25,1.1 c -14.85,1.7 -25.59,15.3 -23.86,30.1 l 56.3,484.4 c 1.72,14.8 15.29,25.6 30.14,23.8 l 9.25,-1 c 14.85,-1.8 25.6,-15.3 23.87,-30.2" /><path
         id="path46"
         style="fill:#ed7d2b;fill-opacity:1;fill-rule:nonzero;stroke:none"
         d="m 10116,3782.7 -56.3,-484.4 c -1.8,-14.8 -15.3,-25.5 -30.2,-23.8 l -9.2,1 c -14.9,1.8 -25.63,15.3 -23.9,30.2 l 56.3,484.3 c 1.7,14.9 15.3,25.6 30.1,23.9 l 9.3,-1.1 c 14.9,-1.7 25.6,-15.3 23.9,-30.1" /><path
         id="path48"
         style="fill:#ed7d2b;fill-opacity:1;fill-rule:nonzero;stroke:none"
         d="m 10898.4,3600.4 -35.7,-307.2 c -1.4,-12 -12.4,-20.7 -24.4,-19.3 l -19.5,2.3 c -12.1,1.3 -20.8,12.3 -19.4,24.4 l 35.7,307.1 c 1.4,12.1 12.4,20.8 24.4,19.4 l 19.6,-2.3 c 12,-1.4 20.7,-12.4 19.3,-24.4" /><path
         id="path50"
         style="fill:#ed7d2b;fill-opacity:1;fill-rule:nonzero;stroke:none"
         d="m 10997.2,3151.9 -35.7,-307.2 c -1.4,-12.1 -12.3,-20.7 -24.4,-19.3 l -19.5,2.2 c -12,1.4 -20.7,12.4 -19.3,24.4 l 35.7,307.2 c 1.4,12 12.4,20.7 24.4,19.3 l 19.5,-2.2 c 12,-1.4 20.7,-12.4 19.3,-24.4" /><path
         id="path52"
         style="fill:#ed7d2b;fill-opacity:1;fill-rule:nonzero;stroke:none"
         d="m 11370.4,3617.1 -40.6,-349.2 c -1.5,-12.7 -13.1,-22 -25.9,-20.5 l -16.8,2 c -12.8,1.4 -22.1,13.1 -20.6,25.9 l 40.6,349.2 c 1.5,12.7 13.2,22 25.9,20.5 l 16.9,-2 c 12.7,-1.4 22,-13.1 20.5,-25.9" /><path
         id="path54"
         style="fill:#ed7d2b;fill-opacity:1;fill-rule:nonzero;stroke:none"
         d="m 11818.1,3218.8 -40.6,-349.2 c -1.5,-12.8 -13.1,-22 -25.9,-20.5 l -16.8,1.9 c -12.8,1.5 -22,13.2 -20.6,26 l 40.6,349.1 c 1.5,12.8 13.2,22 26,20.6 l 16.8,-2 c 12.8,-1.5 22,-13.1 20.5,-25.9" /><path
         id="path56"
         style="fill:#ed7d2b;fill-opacity:1;fill-rule:nonzero;stroke:none"
         d="m 12167.6,3389.8 -40.6,-349.2 c -1.5,-12.7 -13.1,-22 -25.9,-20.5 l -16.8,2 c -12.8,1.4 -22,13.1 -20.5,25.9 l 40.6,349.2 c 1.4,12.7 13.1,22 25.9,20.5 l 16.8,-2 c 12.8,-1.5 22,-13.1 20.5,-25.9" /><path
         id="path58"
         style="fill:#ed7d2b;fill-opacity:1;fill-rule:nonzero;stroke:none"
         d="m 12306.9,2919.4 -40.6,-349.1 c -1.4,-12.8 -13.1,-22 -25.9,-20.6 l -16.8,2 c -12.8,1.5 -22,13.1 -20.5,25.9 l 40.6,349.2 c 1.4,12.8 13.1,22 25.9,20.5 l 16.8,-1.9 c 12.8,-1.5 22,-13.2 20.5,-26" /><path
         id="path60"
         style="fill:#ed7d2b;fill-opacity:1;fill-rule:nonzero;stroke:none"
         d="m 11964.3,2725.1 -18.8,-161.7 c -1,-9 -9.3,-15.5 -18.3,-14.5 l -30.5,3.6 c -9,1 -15.5,9.3 -14.4,18.3 l 18.7,161.7 c 1.1,9 9.3,15.5 18.4,14.5 l 30.4,-3.5 c 9,-1.1 15.6,-9.3 14.5,-18.4" /><path
         id="path62"
         style="fill:#ed7d2b;fill-opacity:1;fill-rule:nonzero;stroke:none"
         d="m 11678,3509.8 -18.8,-161.7 c -1.1,-9.1 -9.3,-15.6 -18.3,-14.5 l -30.5,3.5 c -9,1.1 -15.5,9.3 -14.5,18.3 l 18.8,161.7 c 1,9.1 9.3,15.6 18.3,14.5 l 30.5,-3.5 c 9,-1.1 15.5,-9.3 14.5,-18.3" /><path
         id="path64"
         style="fill:#ed7d2b;fill-opacity:1;fill-rule:nonzero;stroke:none"
         d="m 11453.2,2961.1 -40.6,-349.2 c -1.5,-12.8 -13.1,-22 -25.9,-20.5 l -16.8,1.9 c -12.8,1.5 -22,13.2 -20.5,25.9 l 40.6,349.2 c 1.4,12.8 13.1,22 25.9,20.5 l 16.8,-1.9 c 12.8,-1.5 22,-13.2 20.5,-25.9" /><path
         id="path66"
         style="fill:#ed7d2b;fill-opacity:1;fill-rule:nonzero;stroke:none"
         d="m 10552.8,2940.1 -35.7,-307.2 c -1.4,-12 -12.4,-20.7 -24.4,-19.3 l -19.6,2.2 c -12,1.4 -20.7,12.4 -19.3,24.4 l 35.7,307.2 c 1.4,12.1 12.4,20.7 24.4,19.3 l 19.6,-2.2 c 12,-1.4 20.7,-12.4 19.3,-24.4" /><path
         id="path68"
         style="fill:#ed7d2b;fill-opacity:1;fill-rule:nonzero;stroke:none"
         d="M 7400.61,3359.2 7321.88,2682 c -2.02,-17.4 -17.91,-30 -35.31,-28 -17.4,2.1 -29.97,17.9 -27.95,35.3 l 78.72,677.3 c 2.03,17.4 17.91,29.9 35.31,27.9 17.4,-2 29.98,-17.9 27.96,-35.3" /><path
         id="path70"
         style="fill:#ed7d2b;fill-opacity:1;fill-rule:nonzero;stroke:none"
         d="m 8079.73,4196.7 -35.95,-309.3 c -1.41,-12.1 -12.48,-20.9 -24.6,-19.5 l -19.19,2.3 c -12.12,1.4 -20.88,12.5 -19.48,24.6 l 35.95,309.2 c 1.41,12.1 12.48,20.9 24.6,19.5 l 19.19,-2.2 c 12.12,-1.4 20.89,-12.5 19.48,-24.6" /><path
         id="path72"
         style="fill:#ed7d2b;fill-opacity:1;fill-rule:nonzero;stroke:none"
         d="m 8830.85,4196.7 -35.95,-309.3 c -1.4,-12.1 -12.47,-20.9 -24.6,-19.5 l -19.19,2.3 c -12.12,1.4 -20.88,12.5 -19.47,24.6 l 35.95,309.2 c 1.4,12.1 12.47,20.9 24.59,19.5 l 19.2,-2.2 c 12.12,-1.4 20.88,-12.5 19.47,-24.6" /><path
         id="path74"
         style="fill:#ed7d2b;fill-opacity:1;fill-rule:nonzero;stroke:none"
         d="m 8506.53,3695.1 -35.94,-309.2 c -1.42,-12.1 -12.48,-20.9 -24.6,-19.5 l -19.2,2.2 c -12.12,1.4 -20.88,12.5 -19.47,24.6 l 35.95,309.3 c 1.41,12.1 12.47,20.9 24.6,19.5 l 19.19,-2.3 c 12.11,-1.4 20.88,-12.5 19.47,-24.6" /><path
         id="path76"
         style="fill:#ed7d2b;fill-opacity:1;fill-rule:nonzero;stroke:none"
         d="m 6950.44,4196.7 -35.95,-309.3 c -1.41,-12.1 -12.48,-20.9 -24.6,-19.5 l -19.19,2.3 c -12.12,1.4 -20.89,12.5 -19.47,24.6 l 35.94,309.2 c 1.41,12.1 12.48,20.9 24.6,19.5 l 19.19,-2.2 c 12.12,-1.4 20.89,-12.5 19.48,-24.6" /><path
         id="path78"
         style="fill:#ed7d2b;fill-opacity:1;fill-rule:nonzero;stroke:none"
         d="M 6950.44,3455.2 6914.49,3146 c -1.41,-12.2 -12.48,-20.9 -24.6,-19.5 l -19.19,2.2 c -12.12,1.4 -20.89,12.5 -19.47,24.6 l 35.94,309.3 c 1.41,12.1 12.48,20.8 24.6,19.4 l 19.19,-2.2 c 12.12,-1.4 20.89,-12.5 19.48,-24.6" /><path
         id="path80"
         style="fill:#ed7d2b;fill-opacity:1;fill-rule:nonzero;stroke:none"
         d="M 7283.53,4027.8 7232.98,3593 c -1.64,-14.2 -14.54,-24.4 -28.68,-22.7 l -11.87,1.4 c -14.13,1.6 -24.35,14.5 -22.71,28.6 l 50.54,434.8 c 1.65,14.2 14.55,24.4 28.69,22.8 l 11.87,-1.4 c 14.13,-1.7 24.35,-14.6 22.71,-28.7" /><path
         id="path82"
         style="fill:#ed7d2b;fill-opacity:1;fill-rule:nonzero;stroke:none"
         d="m 7622.81,4568.9 -50.55,-434.8 c -1.64,-14.1 -14.55,-24.3 -28.68,-22.7 l -11.88,1.4 c -14.13,1.6 -24.35,14.5 -22.71,28.7 l 50.55,434.8 c 1.64,14.1 14.55,24.3 28.68,22.7 l 11.88,-1.4 c 14.13,-1.6 24.35,-14.5 22.71,-28.7" /><path
         id="path84"
         style="fill:#ed7d2b;fill-opacity:1;fill-rule:nonzero;stroke:none"
         d="m 8749.05,3237.4 -59.8,-514.4 c -1.77,-15.3 -15.72,-26.3 -31,-24.6 l -7.71,0.9 c -15.28,1.8 -26.33,15.7 -24.55,31 l 59.8,514.5 c 1.78,15.2 15.73,26.3 31.01,24.5 l 7.71,-0.9 c 15.28,-1.7 26.32,-15.7 24.54,-31" /><path
         id="path86"
         style="fill:#ed7d2b;fill-opacity:1;fill-rule:nonzero;stroke:none"
         d="m 9250.64,4052.4 -78.72,-677.2 c -2.03,-17.4 -17.92,-30 -35.31,-28 -17.4,2.1 -29.98,18 -27.96,35.3 l 78.72,677.3 c 2.03,17.4 17.92,30 35.32,27.9 17.39,-2 29.97,-17.9 27.95,-35.3" /><path
         id="path88"
         style="fill:#c2dbfd;fill-opacity:1;fill-rule:nonzero;stroke:none"
         d="m 14641.4,11877.3 c 0,-334.2 -781.6,-605.2 -1745.7,-605.2 -964.1,0 -1745.7,271 -1745.7,605.2 0,334.2 781.6,605.1 1745.7,605.1 964.1,0 1745.7,-270.9 1745.7,-605.1" /><g
         transform="scale(1.16761)"
         id="g90"><path
           id="path92"
           style="fill:#f2c5a0;fill-opacity:1;fill-rule:nonzero;stroke:none"
           d="M 16300,2070.22 H 13309.8 V 11710.6 H 16300 V 2070.22" /></g><g
         transform="scale(1.16761)"
         id="g94"><path
           id="path96"
           style="fill:#f5d1b7;fill-opacity:1;fill-rule:nonzero;stroke:none"
           d="m 16300,11710.6 c 0,-286.2 -669.3,-518.3 -1495.1,-518.3 -825.7,0 -1495.1,232.1 -1495.1,518.3 0,286.2 669.4,518.3 1495.1,518.3 825.8,0 1495.1,-232.1 1495.1,-518.3" /></g><g
         transform="scale(1.40849)"
         id="g98"><path
           id="path100"
           style="fill:#d8e3b7;fill-opacity:1;fill-rule:nonzero;stroke:none"
           d="m 16300,1716.16 h -2041 v 4722.36 h 2041 V 1716.16" /></g><g
         transform="scale(1.40849)"
         id="g102"><path
           id="path104"
           style="fill:#dce9bf;fill-opacity:1;fill-rule:nonzero;stroke:none"
           d="m 16300,6438.52 c 0,-237.27 -456.9,-429.68 -1020.5,-429.68 -563.5,0 -1020.4,192.41 -1020.4,429.68 0,237.28 456.9,429.61 1020.4,429.61 563.6,0 1020.5,-192.33 1020.5,-429.61" /></g><g
         transform="scale(1.66754)"
         id="g106"><path
           id="path108"
           style="fill:#ffa412;fill-opacity:1;fill-rule:nonzero;stroke:none"
           d="M 16300,3696.04 V 1816.63 c 0,-202.7 -164.3,-367.07 -367.1,-367.07 h -3034.7 c -202.7,0 -367.1,164.37 -367.1,367.07 v 352.79 c 86.2,27.95 155.7,102.61 155.7,194.06 0,96.31 -50.2,210.25 -155.7,222.61 v 1089.74 c 32.8,8.76 64,27.11 87.4,52.48 49.6,53.73 41.8,143.5 -3.1,201.79 67.4,81.32 169.1,133.01 282.8,133.01 h 3034.7 c 202.8,0 367.1,-164.31 367.1,-367.07" /></g><g
         transform="scale(1.51353)"
         id="g110"><path
           id="path112"
           style="fill:#ffb93e;fill-opacity:1;fill-rule:nonzero;stroke:none"
           d="M 16300,4152.33 V 1921.27 c 0,-179.06 -145.2,-324.21 -324.2,-324.21 h -2169.6 v 793.11 c 94.9,30.79 171.5,113.04 171.5,213.8 0,106.11 -55.3,231.65 -171.5,245.26 v 244.85 c 37.4,3.64 74.5,15.47 109.3,33.77 107.4,56.69 191.7,175.15 191.7,305.57 0,153.49 -147.7,267.32 -301,278.69 v 337.75 c 36.1,9.65 70.5,29.86 96.3,57.81 54.6,59.2 46,158.11 -3.4,222.33 -6.2,7.99 -12.9,15.39 -20.3,22.13 -21.2,19.63 -46.4,32.44 -72.6,38.79 v 85.63 h 2169.6 c 179,0 324.2,-145.16 324.2,-324.22" /></g><g
         transform="scale(1.40015)"
         id="g114"><path
           id="path116"
           style="fill:#ffa412;fill-opacity:1;fill-rule:nonzero;stroke:none"
           d="m 16300,3630.39 c 0,-140.99 -91.1,-269.04 -207.2,-330.32 -45.8,-24.14 -95.6,-37.93 -145,-37.93 -80.3,0 -153.7,29.86 -209.5,79.14 l -0.3,0.35 c -65.6,58 -107,142.85 -107,237.26 0,174.98 141.8,353.68 316.8,353.68 174.9,0 352.2,-127.34 352.2,-302.18" /></g><g
         transform="scale(1.39553)"
         id="g118"><path
           id="path120"
           style="fill:#ffaf28;fill-opacity:1;fill-rule:nonzero;stroke:none"
           d="m 16000.6,3272.96 c -80.5,0 -154.1,29.95 -210.1,79.39 l -0.3,0.36 v 0 c -44.5,48.87 -71.6,113.86 -71.6,185.09 0,151.92 123.3,307.27 275.2,307.27 152.1,0 306.2,-110.64 306.2,-262.55 0,-111.65 -65.9,-213.97 -153.8,-271.51 v 0 c -46.1,-24.22 -95.9,-38.05 -145.6,-38.05" /></g><g
         transform="scale(1.34797)"
         id="g122"><path
           id="path124"
           style="fill:#ffa412;fill-opacity:1;fill-rule:nonzero;stroke:none"
           d="m 15963.5,4357.59 c -60.2,55.49 -79.2,144.81 -59.6,218.48 7.7,29.15 21.3,55.79 40.8,76.93 31.6,34.35 73.2,53.93 116.2,58.38 h 0.3 c 50.6,5.27 103,-10.46 143.5,-47.62 74.8,-68.77 95.3,-199.71 26.5,-274.49 -68.8,-74.71 -193,-100.45 -267.7,-31.68" /></g><g
         transform="scale(1.34388)"
         id="g126"><path
           id="path128"
           style="fill:#ffaf28;fill-opacity:1;fill-rule:nonzero;stroke:none"
           d="m 16101.1,4382.67 c -34.2,0 -67.3,10.79 -93.5,34.83 -47.7,43.9 -65.4,112.28 -55.4,172.48 7.7,29.24 21.4,55.96 40.9,77.17 31.7,34.45 73.5,54.09 116.6,58.56 h 0.3 c 38.3,-0.23 76.7,-14.22 107.2,-42.19 64.9,-59.76 82.8,-173.53 23,-238.42 -35.7,-38.76 -88.5,-62.43 -139.1,-62.43" /></g><g
         transform="scale(1.46092)"
         id="g130"><path
           id="path132"
           style="fill:#ffa412;fill-opacity:1;fill-rule:nonzero;stroke:none"
           d="m 16224.1,3928.21 c -61.1,-70.3 -162.2,-94.67 -246.6,-74.89 -33.4,7.88 -64.1,22.53 -88.8,44.02 -40.1,34.84 -63.7,81.52 -70.1,130.33 l -0.1,0.27 c -7.6,57.43 8.6,117.67 49.6,164.76 75.8,87.27 224.1,114.93 311.4,39.02 87.2,-75.84 120.5,-216.24 44.6,-303.51" /></g><g
         transform="scale(1.45528)"
         id="g134"><path
           id="path136"
           style="fill:#ffaf28;fill-opacity:1;fill-rule:nonzero;stroke:none"
           d="m 16070.5,3866.21 c -10.5,0 -20.8,0.69 -31,2.06 v 0 c -33.5,7.9 -64.4,22.61 -89.2,44.18 -40.2,34.98 -63.9,81.84 -70.4,130.84 v 0.27 0 c -1,43.71 13.7,87.89 44.6,123.42 39.6,45.49 101.7,72.35 161.5,72.35 39.9,0 78.8,-12.02 109.2,-38.41 75.9,-65.97 104.8,-188.07 38.8,-263.87 -41.2,-47.48 -103.4,-70.84 -163.5,-70.84" /></g><g
         transform="scale(1.46704)"
         id="g138"><path
           id="path140"
           style="fill:#ffa412;fill-opacity:1;fill-rule:nonzero;stroke:none"
           d="m 16248.3,2813.36 c -41.6,-110.63 -151,-184.18 -260.2,-197.95 -43.2,-5.39 -86.2,-1.57 -125.1,13.09 -63,23.72 -111.7,68.84 -140.9,123.99 l -0.2,0.41 c -34.4,64.89 -41.7,143.69 -13.8,217.78 51.7,137.36 215.8,235.65 353.1,183.98 137.2,-51.74 238.8,-204.02 187.1,-341.3" /></g><g
         transform="scale(1.46102)"
         id="g142"><path
           id="path144"
           style="fill:#ffaf28;fill-opacity:1;fill-rule:nonzero;stroke:none"
           d="m 16017,2623.85 c -30.7,0 -60.7,5 -88.7,15.47 -63.2,23.82 -112.1,69.13 -141.4,124.51 l -0.2,0.41 v 0 c -20.4,51.54 -22.6,110.54 -1.5,166.52 36.6,97.26 138.3,172.08 239.2,172.08 22.9,0 45.8,-3.84 67.9,-12.19 119.4,-44.97 207.7,-177.41 162.8,-296.78 -33.1,-87.68 -115,-148.59 -201.2,-167.69 v 0 c -12.4,-1.57 -24.7,-2.33 -36.9,-2.33" /></g><g
         transform="scale(1.42606)"
         id="g146"><path
           id="path148"
           style="fill:#ffa412;fill-opacity:1;fill-rule:nonzero;stroke:none"
           d="m 16284.6,2267.3 c 15.4,-72.29 -17.3,-147.96 -70.1,-192.07 -20.9,-17.38 -44.8,-29.87 -70.2,-35.34 -41.1,-8.76 -82,-1.54 -116,17.68 l -0.2,0.13 c -40,22.51 -70.5,61.5 -80.9,109.89 -19.1,89.69 33.9,196.84 123.6,216.05 89.7,19.14 194.6,-26.72 213.8,-116.34" /></g><g
         transform="scale(1.42393)"
         id="g150"><path
           id="path152"
           style="fill:#ffaf28;fill-opacity:1;fill-rule:nonzero;stroke:none"
           d="m 16133.5,2039.22 c -29,0 -56.9,7.66 -81.3,21.42 l -0.2,0.14 v 0 c -28.1,20.16 -49.1,50.42 -56.9,86.87 -16.5,77.75 29.5,170.73 107.3,187.3 11.8,2.53 23.9,3.79 35.9,3.79 67.7,0 135.4,-38.62 149.5,-104.64 12.2,-57.09 -10.3,-116.72 -49,-155.76 v 0 c -21,-17.42 -44.9,-29.92 -70.3,-35.4 -11.8,-2.46 -23.5,-3.72 -35,-3.72" /></g><g
         transform="scale(1.49912)"
         id="g154"><path
           id="path156"
           style="fill:#ffa412;fill-opacity:1;fill-rule:nonzero;stroke:none"
           d="m 16246.7,3692.51 c 42.8,-43.96 53.3,-111.53 35.8,-165.9 -7,-21.48 -18.3,-40.82 -33.7,-55.9 -25,-24.35 -57,-37.35 -89.3,-38.89 h -0.2 c -38.1,-1.87 -76.8,12.01 -105.4,41.43 -53.2,54.56 -63.3,153.29 -8.8,206.45 54.5,53.1 148.5,67.31 201.6,12.81" /></g><g
         transform="scale(1.49842)"
         id="g158"><path
           id="path160"
           style="fill:#ffaf28;fill-opacity:1;fill-rule:nonzero;stroke:none"
           d="m 16167,3433.42 h -0.2 v 0 c -28.6,1.74 -56.7,13.68 -78.3,35.84 -46,47.19 -54.8,132.81 -7.5,178.86 26.5,25.82 63.8,41.11 99.6,41.11 27.9,0 54.9,-9.28 75,-29.97 33.9,-34.7 44.4,-86.49 34.5,-131 v 0 c -7,-21.49 -18.3,-40.85 -33.7,-55.93 -25.1,-24.36 -57,-37.37 -89.4,-38.91" /></g><g
         transform="scale(1.35402)"
         id="g162"><path
           id="path164"
           style="fill:#ffa412;fill-opacity:1;fill-rule:nonzero;stroke:none"
           d="m 16040.3,2062.01 c -127.7,-10.93 -250.7,61.67 -315.2,161.96 -25.4,39.66 -41.7,83.53 -45.5,128.36 -6.3,72.75 15,141.43 55.3,195.72 l 0.3,0.37 c 47.5,63.88 121,107.9 206.5,115.28 158.4,13.52 331.2,-100.88 344.7,-259.3 13.6,-158.35 -87.9,-328.8 -246.1,-342.39" /></g><g
         transform="scale(1.34629)"
         id="g166"><path
           id="path168"
           style="fill:#ffaf28;fill-opacity:1;fill-rule:nonzero;stroke:none"
           d="m 16051.5,2117.3 c -93.3,0 -181.3,49.55 -236.1,119.44 v 0 c -25.5,39.89 -42,84.01 -45.8,129.1 -0.8,8.32 -1.1,16.56 -1.1,24.66 -0.1,63.95 20.8,123.75 56.8,172.18 l 0.3,0.37 c 40.9,44.12 97.7,73.76 162.4,79.33 7.4,0.59 14.9,0.96 22.4,0.96 131.3,0 266.6,-96.34 277.8,-226.84 11.8,-137.94 -76.5,-286.42 -214.4,-298.23 -7.5,-0.67 -14.9,-0.97 -22.3,-0.97" /></g><g
         transform="scale(1.3171)"
         id="g170"><path
           id="path172"
           style="fill:#ffffff;fill-opacity:1;fill-rule:nonzero;stroke:none"
           d="m 13592.9,5698.79 c -418.3,631.99 -585.5,1997.86 46.5,2416.18 632,418.32 1823.9,-269.3 2242.3,-901.34 418.3,-632 245,-1483.48 -387,-1901.75 -632,-418.34 -1483.4,-245.08 -1901.8,386.91" /></g><g
         transform="scale(1.25949)"
         id="g174"><path
           id="path176"
           style="fill:#f99746;fill-opacity:1;fill-rule:nonzero;stroke:none"
           d="m 14718.9,6345.66 c -244.4,369.12 -143.2,866.46 226,1110.77 369.1,244.38 866.4,143.15 1110.8,-225.97 244.3,-369.2 143.1,-866.46 -226,-1110.84 -369.2,-244.31 -866.5,-143.16 -1110.8,226.04" /></g><g
         transform="scale(1.04354)"
         id="g178"><path
           id="path180"
           style="fill:#99c3ff;fill-opacity:1;fill-rule:nonzero;stroke:none"
           d="m 16270.7,15627 h -199.1 v -199.3 h -36 v 426.7 h 264.4 v -30.7 h -228.4 v -165.9 h 199.1 v -30.8" /></g><g
         transform="scale(1.06228)"
         id="g182"><path
           id="path184"
           style="fill:#99c3ff;fill-opacity:1;fill-rule:nonzero;stroke:none"
           d="m 16154.9,15180.3 c 12.5,0 24,1.5 34.7,4.7 10.7,3.2 20.3,7.5 29,13.1 8.6,5.6 16.1,12.1 22.4,19.4 6.4,7.4 11.5,15.4 15.3,24.1 v 68.5 h -59.1 c -17.6,0 -33.4,-1.6 -47.3,-4.7 -14,-3.2 -25.7,-7.8 -35.3,-13.7 -9.6,-6 -16.9,-13.2 -22,-21.8 -5.1,-8.5 -7.6,-18.1 -7.6,-28.9 0,-8.4 1.6,-16.4 4.9,-23.8 3.2,-7.3 7.9,-13.8 13.9,-19.2 6,-5.5 13.4,-9.8 22,-13 8.7,-3.2 18.4,-4.7 29.1,-4.7 z m 108.3,-24.8 c -1.9,5.4 -3.4,11.9 -4.5,19.7 -1.1,7.8 -1.7,15.7 -2.1,23.8 -5.2,-6.7 -11.4,-13.1 -18.4,-19 -7.2,-6 -15.1,-11.2 -24,-15.6 -8.8,-4.4 -18.5,-7.9 -29,-10.6 -10.6,-2.7 -22.1,-4.1 -34.3,-4.1 -15.2,0 -28.9,2.2 -41.3,6.6 -12.4,4.5 -23,10.7 -31.7,18.6 -8.7,8 -15.5,17.4 -20.3,28.1 -4.8,10.7 -7.2,22.5 -7.2,35.1 0,15.2 3.2,28.9 9.8,41.1 6.5,12.1 15.9,22.5 28.2,31.1 12.3,8.5 27.2,15 44.8,19.5 17.6,4.5 37.3,6.8 59.1,6.8 h 64 v 35.4 c 0,22.3 -6.9,39.8 -20.6,52.6 -13.7,12.7 -33.8,19.1 -60.1,19.1 -12,0 -23.2,-1.6 -33.4,-4.9 -10.1,-3.2 -18.9,-7.8 -26.3,-13.5 -7.4,-5.8 -13.1,-12.5 -17.3,-20 -4.1,-7.6 -6.2,-15.7 -6.2,-24.4 l -34.5,0.3 c 0,11.7 2.9,23.1 8.6,34 5.8,10.9 13.9,20.7 24.3,29.2 10.5,8.6 23.1,15.4 37.8,20.6 14.7,5.2 30.9,7.8 48.8,7.8 16.5,0 31.7,-2.1 45.6,-6.3 13.9,-4.3 25.9,-10.6 35.9,-19 9.9,-8.5 17.8,-19 23.3,-31.7 5.6,-12.7 8.3,-27.5 8.3,-44.4 v -150.8 c 0,-5.4 0.2,-11 0.7,-16.7 0.3,-5.8 0.9,-11.4 1.8,-16.7 0.9,-5.4 1.8,-10.5 3,-15.4 1.2,-4.9 2.5,-9.2 4,-12.9 v -3.4 h -36.8" /></g><g
         transform="scale(1.0757)"
         id="g186"><path
           id="path188"
           style="fill:#99c3ff;fill-opacity:1;fill-rule:nonzero;stroke:none"
           d="m 16230.9,15352.9 v -78.8 h 63.7 v -27.9 h -63.7 v -205 c 0,-10.8 1.1,-19.4 3.3,-26 2.2,-6.5 5.1,-11.6 8.8,-15.3 3.7,-3.7 8,-6.2 12.8,-7.4 4.9,-1.3 9.9,-1.9 15.2,-1.9 5.1,0 10,0.4 14.8,1 4.7,0.7 9,1.3 12.8,1.9 l 1.4,-27.9 c -4.2,-1.5 -9.6,-2.7 -16.4,-3.6 -6.7,-0.8 -13.4,-1.2 -20,-1.2 -9.6,0 -18.6,1.2 -26.8,3.8 -8.3,2.6 -15.4,7 -21.2,13.2 -5.9,6.3 -10.5,14.6 -13.8,24.9 -3.3,10.3 -5,23.2 -5,38.5 v 205 h -56.6 v 27.9 h 56.6 v 78.8 h 34.1" /></g><g
         transform="scale(1.09441)"
         id="g190"><path
           id="path192"
           style="fill:#99c3ff;fill-opacity:1;fill-rule:nonzero;stroke:none"
           d="m 16266.5,14787.4 c 0,6.2 -1.1,12.3 -3.2,18.5 -2.2,6.1 -6.2,11.9 -12.1,17.4 -5.8,5.5 -14.1,10.7 -24.6,15.4 -10.5,4.8 -24.2,8.9 -40.9,12.4 -16.8,3.6 -31.7,7.7 -44.9,12.3 -13.1,4.7 -24.2,10.3 -33.2,16.9 -9.1,6.7 -15.9,14.5 -20.6,23.7 -4.7,9.1 -6.9,19.8 -6.9,32.1 0,11.2 2.4,21.8 7.4,31.9 4.9,10 11.9,18.8 21.2,26.2 9.2,7.5 20.3,13.4 33.5,17.8 13.2,4.4 28,6.6 44.3,6.6 17.6,0 33.2,-2.3 47.1,-6.9 13.9,-4.6 25.6,-10.9 35.2,-19 9.6,-8.1 16.9,-17.7 22,-28.6 5,-11 7.5,-23 7.5,-35.8 h -33.6 c 0,7.8 -1.6,15.4 -5.1,22.9 -3.5,7.4 -8.5,14 -15.1,19.7 -6.6,5.7 -14.8,10.3 -24.5,13.8 -9.9,3.6 -21,5.3 -33.5,5.3 -13.1,0 -24.2,-1.5 -33.4,-4.7 -9.2,-3.2 -16.8,-7.3 -22.6,-12.3 -5.8,-5 -10.1,-10.7 -12.9,-16.9 -2.7,-6.3 -4,-12.5 -4,-18.9 0,-6.7 1,-12.8 3,-18.3 2.1,-5.5 6,-10.6 11.9,-15.4 5.9,-4.7 14.1,-9.1 24.6,-13.1 10.6,-4 24.3,-8 41.3,-11.9 18.2,-4.3 34,-9 47.2,-14.2 13.2,-5.2 24.1,-11.4 32.8,-18.6 8.7,-7.2 15.1,-15.4 19.3,-24.6 4.2,-9.2 6.3,-19.9 6.3,-32 0,-12.5 -2.7,-23.9 -7.9,-34.2 -5.2,-10.4 -12.7,-19.2 -22.3,-26.6 -9.7,-7.3 -21.4,-13.1 -35.2,-17.2 -13.8,-4.1 -29.2,-6.1 -46.2,-6.1 -19.2,0 -36.1,2.5 -50.8,7.4 -14.7,4.9 -27.1,11.6 -37.2,20 -10,8.4 -17.6,18 -22.7,28.9 -5.1,10.9 -7.7,22.2 -7.7,33.9 h 33.5 c 0.8,-11.9 3.8,-21.8 9.2,-29.7 5.5,-7.9 12.1,-14.3 20.2,-19 7.9,-4.8 16.9,-8.2 26.7,-10.2 9.7,-2.1 19.3,-3.1 28.8,-3.1 12.7,0 23.9,1.5 33.6,4.5 9.7,3 17.9,7 24.5,12 6.5,5 11.6,10.8 14.9,17.3 3.3,6.5 5.1,13.3 5.1,20.4" /></g><g
         transform="scale(1.03032)"
         id="g194"><path
           id="path196"
           style="fill:#99c3ff;fill-opacity:1;fill-rule:nonzero;stroke:none"
           d="m 16105.1,15074.5 h -366.5 v 148.2 h 561.4 v -129.2 l -349.7,-650.5 h -193.8 l 348.6,631.5" /></g><g
         transform="scale(1.07207)"
         id="g198"><path
           id="path200"
           style="fill:#99c3ff;fill-opacity:1;fill-rule:nonzero;stroke:none"
           d="m 15734.8,13980.1 99.6,118.8 c 56.8,-51.3 112.4,-81.3 178.8,-81.3 77,0 125.2,37.4 125.2,106 0,64.2 -54.6,101.6 -132.7,101.6 -47.1,0 -89.9,-12.8 -125.3,-27.8 l -95.2,63.2 21.4,369.3 h 460.3 v -144.5 h -319 l -8.6,-129.6 c 29.9,7.5 56.7,12.9 98.5,12.9 145.5,0 262.2,-70.7 262.2,-241.9 0,-158.5 -112.4,-259.1 -284.7,-259.1 -119.9,0 -207.6,42.8 -280.5,112.4" /></g><g
         transform="scale(1.12618)"
         id="g202"><path
           id="path204"
           style="fill:#99c3ff;fill-opacity:1;fill-rule:nonzero;stroke:none"
           d="m 16206,13365.3 c 0,42.2 -23.4,78.9 -59.2,78.9 -37.6,0 -57.3,-35.9 -57.3,-78.9 0,-42.1 23.2,-78.8 59.1,-78.8 37.7,0 57.4,36.7 57.4,78.8 z m -210.7,0 c 0,88.8 61.8,160.5 153.3,160.5 90.5,0 151.4,-70.8 151.4,-160.5 0,-87.8 -61.8,-160.4 -153.2,-160.4 -90.5,0 -151.5,70.8 -151.5,160.4 z m -174.7,320.9 c 0,42.1 -23.4,78.8 -59.1,78.8 -37.7,0 -57.4,-35.8 -57.4,-78.8 0,-42.2 23.3,-78.9 59.1,-78.9 37.7,0 57.4,36.7 57.4,78.9 z m 310.1,153.2 h 106.6 l -458,-627.3 h -106.6 z m -520.7,-153.2 c 0,88.7 61.8,160.4 153.2,160.4 90.5,0 151.5,-70.8 151.5,-160.4 0,-87.9 -61.9,-160.4 -153.2,-160.4 -90.6,0 -151.5,70.8 -151.5,160.4" /></g><path
         id="path206"
         style="fill:#99c3ff;fill-opacity:1;fill-rule:nonzero;stroke:none"
         d="m 11918.8,14569.8 h 114.1 c 19.7,0 36.8,2.5 51.1,7.5 14.2,5 25.8,11.9 34.8,20.8 9,8.9 15.6,19.3 19.9,31.3 4.3,12.1 6.4,25 6.4,38.9 0,13.6 -2.1,26.6 -6.4,39 -4.3,12.3 -10.9,23.1 -19.9,32.4 -9,9.3 -20.6,16.6 -34.8,22 -14.3,5.4 -31.4,8.1 -51.1,8.1 h -114.1 z m 0,-31.8 v -181.4 h -37.6 v 445.3 h 151.7 c 24.4,0 46,-3.2 64.7,-9.7 18.6,-6.6 34.3,-15.7 46.9,-27.4 12.6,-11.7 22.2,-25.8 28.6,-42.1 6.4,-16.3 9.6,-34.2 9.6,-53.8 0,-20.6 -3.2,-39 -9.6,-55.2 -6.4,-16.2 -15.9,-29.9 -28.4,-41.1 -12.6,-11.3 -28.2,-19.8 -47,-25.7 -18.8,-6 -40.4,-8.9 -64.8,-8.9 h -114.1" /><path
         id="path208"
         style="fill:#99c3ff;fill-opacity:1;fill-rule:nonzero;stroke:none"
         d="m 12411.2,14656.4 c -7.7,1.4 -16,2.1 -24.7,2.1 -12.5,0 -23.7,-1.8 -33.7,-5.5 -10,-3.7 -18.8,-8.8 -26.4,-15.4 -7.7,-6.7 -14.1,-14.5 -19.3,-23.6 -5.2,-9.1 -9.3,-19.1 -12.4,-30.1 v -227.3 h -36.4 v 331 h 35.8 l 0.6,-52.7 c 9,18.2 21.1,32.5 36.5,43 15.4,10.5 34.3,15.8 56.8,15.8 4.5,0 9.1,-0.4 13.7,-1.3 4.7,-0.8 8.2,-1.7 10.4,-2.7 l -0.9,-33.3" /><path
         id="path210"
         style="fill:#99c3ff;fill-opacity:1;fill-rule:nonzero;stroke:none"
         d="m 12479.4,14516.9 c 0,-18.2 2.5,-35.5 7.4,-51.9 4.9,-16.4 12,-30.8 21.4,-43.1 9.4,-12.3 21,-22.2 34.8,-29.5 13.9,-7.3 29.8,-11 47.8,-11 17.9,0 33.8,3.7 47.5,11 13.8,7.3 25.4,17.2 34.7,29.5 9.4,12.3 16.6,26.7 21.5,43.1 4.8,16.4 7.3,33.7 7.3,51.9 v 10.1 c 0,17.7 -2.5,34.8 -7.3,51.2 -4.9,16.4 -12.1,30.9 -21.5,43.3 -9.3,12.4 -21,22.4 -35,29.8 -14,7.5 -29.9,11.2 -47.9,11.2 -17.7,0 -33.4,-3.7 -47.2,-11.2 -13.8,-7.4 -25.3,-17.4 -34.7,-29.8 -9.4,-12.4 -16.5,-26.9 -21.4,-43.3 -4.9,-16.4 -7.4,-33.5 -7.4,-51.2 z m -36.7,10.1 c 0,24 3.5,46.3 10.6,66.7 7,20.3 16.9,37.9 29.8,52.7 12.8,14.8 28.3,26.4 46.5,34.7 18.1,8.4 38.3,12.6 60.5,12.6 22.7,0 43.1,-4.2 61.4,-12.6 18.2,-8.3 33.8,-19.9 46.6,-34.7 12.9,-14.8 22.8,-32.4 29.7,-52.7 6.9,-20.4 10.4,-42.7 10.4,-66.7 v -10.1 c 0,-24.1 -3.5,-46.3 -10.4,-66.7 -6.9,-20.4 -16.8,-38 -29.7,-52.8 -12.8,-14.7 -28.3,-26.3 -46.5,-34.5 -18.1,-8.3 -38.4,-12.4 -60.8,-12.4 -22.5,0 -42.8,4.1 -60.9,12.4 -18.2,8.2 -33.7,19.8 -46.6,34.5 -13,14.8 -23,32.4 -30,52.8 -7.1,20.4 -10.6,42.6 -10.6,66.7 v 10.1" /><path
         id="path212"
         style="fill:#99c3ff;fill-opacity:1;fill-rule:nonzero;stroke:none"
         d="m 12870.6,14772.3 v -84.7 h 68.5 v -30 h -68.5 v -220.5 c 0,-11.7 1.2,-21 3.5,-28 2.4,-7.1 5.5,-12.6 9.5,-16.6 4,-3.9 8.6,-6.6 13.8,-7.9 5.2,-1.3 10.6,-2 16.4,-2 5.5,0 10.8,0.4 15.9,1.1 5.1,0.7 9.6,1.4 13.7,2 l 1.6,-30 c -4.5,-1.6 -10.4,-2.9 -17.6,-3.8 -7.3,-1 -14.5,-1.4 -21.6,-1.4 -10.4,0 -20,1.4 -28.9,4.1 -8.9,2.8 -16.5,7.5 -22.8,14.2 -6.3,6.8 -11.3,15.7 -14.8,26.8 -3.6,11.1 -5.4,24.9 -5.4,41.5 v 220.5 h -60.8 v 30 h 60.8 v 84.7 h 36.7" /><path
         id="path214"
         style="fill:#99c3ff;fill-opacity:1;fill-rule:nonzero;stroke:none"
         d="m 13136.4,14662.5 c -13.8,0 -26.7,-2.7 -38.5,-8 -11.8,-5.3 -22.3,-12.8 -31.4,-22.6 -9,-9.8 -16.5,-21.6 -22.3,-35.3 -5.8,-13.8 -9.7,-29 -11.8,-45.8 h 198.5 v 4 c -0.4,13.9 -2.6,27.3 -6.7,40.2 -4.1,13 -10,24.4 -17.9,34.4 -7.8,10 -17.6,18 -29.2,24 -11.6,6.1 -25.2,9.1 -40.7,9.1 z m 6.8,-312 c -21.7,0 -41.5,4 -59.7,12.1 -18.1,8 -33.8,19.2 -46.9,33.6 -13.2,14.4 -23.4,31.5 -30.8,51.2 -7.3,19.8 -11,41.5 -11,65.2 v 13.2 c 0,25.4 3.8,48.5 11.5,69.2 7.6,20.7 18,38.4 31,52.9 13.1,14.6 28.1,25.9 45.1,33.8 17.1,8 35.1,12 54,12 21,0 39.7,-3.8 56,-11.3 16.3,-7.6 30,-18.1 41.1,-31.5 11.2,-13.5 19.6,-29.5 25.3,-48.1 5.7,-18.5 8.5,-38.8 8.5,-60.8 v -22.4 h -236.1 v -7 c 0,-18.2 2.8,-35.2 8.3,-51.2 5.5,-16 13.2,-30 23.2,-41.8 10,-11.8 21.9,-21.1 35.8,-28 13.9,-6.8 29.3,-10.2 46.2,-10.2 19.6,0 36.8,3.5 51.8,10.7 15,7.1 28.6,18.5 40.9,34.3 l 22.9,-17.5 c -5.5,-7.9 -11.9,-15.5 -19.1,-22.6 -7.3,-7.2 -15.7,-13.4 -25.2,-18.7 -9.6,-5.3 -20.4,-9.5 -32.5,-12.5 -12,-3.1 -25.5,-4.6 -40.3,-4.6" /><path
         id="path216"
         style="fill:#99c3ff;fill-opacity:1;fill-rule:nonzero;stroke:none"
         d="m 13379.6,14356.6 h -36.7 v 331 h 36.7 z m -43.1,426.7 c 0,6.9 2.2,12.8 6.7,17.6 4.5,4.8 10.6,7.2 18.3,7.2 7.8,0 14,-2.4 18.5,-7.2 4.6,-4.8 6.9,-10.7 6.9,-17.6 0,-6.9 -2.3,-12.7 -6.9,-17.4 -4.5,-4.7 -10.7,-7.1 -18.5,-7.1 -7.7,0 -13.8,2.4 -18.3,7.1 -4.5,4.7 -6.7,10.5 -6.7,17.4" /><path
         id="path218"
         style="fill:#99c3ff;fill-opacity:1;fill-rule:nonzero;stroke:none"
         d="m 13513.9,14687.6 1.2,-56.6 c 5.7,9.3 12.3,17.9 19.7,25.7 7.5,7.7 15.8,14.3 24.9,19.8 9.2,5.6 19.1,9.8 29.7,12.7 10.6,3 21.8,4.5 33.7,4.5 16.5,0 31.3,-2.3 44.3,-6.8 13.1,-4.4 24.1,-11.6 33.2,-21.4 9.1,-9.8 16,-22.3 20.8,-37.7 4.8,-15.4 7.2,-34 7.2,-55.9 v -215.3 h -36.4 v 215.6 c 0,17.2 -1.9,31.4 -5.5,42.9 -3.7,11.4 -8.9,20.6 -15.6,27.5 -6.8,6.9 -15,11.9 -24.6,14.8 -9.7,3 -20.5,4.5 -32.3,4.5 -13.1,0 -24.9,-2.2 -35.5,-6.6 -10.6,-4.4 -20,-10.3 -28.1,-17.6 -8.2,-7.3 -15.2,-15.8 -21.1,-25.2 -6,-9.5 -10.6,-19.3 -14.1,-29.2 v -226.7 h -36.4 v 331 h 34.9" /><path
         id="path220"
         style="fill:#99c3ff;fill-opacity:1;fill-rule:nonzero;stroke:none"
         d="m 11638.2,13212.2 271.5,222.6 c 101.3,83.8 140.9,128.1 140.9,195.7 0,68.7 -45.4,106 -109.5,106 -62.9,0 -106,-35 -166.6,-109.5 l -125.8,101.3 c 80.4,109.5 158.4,169 304.1,169 168.9,0 280.7,-99.1 280.7,-254 0,-136.3 -69.9,-203.9 -214.3,-315.7 l -132.8,-102.5 h 355.3 v -155 h -603.5 v 142.1" /><path
         id="path222"
         style="fill:#99c3ff;fill-opacity:1;fill-rule:nonzero;stroke:none"
         d="m 12910.4,13477.9 c 0,147.9 -72.3,259.8 -179.4,259.8 -107.2,0 -177.1,-108.4 -177.1,-259.8 0,-149.2 71.1,-259.8 179.4,-259.8 108.4,0 177.1,109.5 177.1,259.8 z m -540.6,0 c 0,236.5 146.8,421.7 363.5,421.7 215.5,0 361.1,-182.9 361.1,-421.7 0,-236.5 -145.6,-421.8 -363.4,-421.8 -217.9,0 -361.2,182.9 -361.2,421.8" /><path
         id="path224"
         style="fill:#99c3ff;fill-opacity:1;fill-rule:nonzero;stroke:none"
         d="m 13865.5,13240.8 c 0,47.5 -26.2,88.8 -66.6,88.8 -42.4,0 -64.6,-40.3 -64.6,-88.8 0,-47.4 26.3,-88.8 66.7,-88.8 42.3,0 64.5,41.4 64.5,88.8 z m -237.1,0 c 0,99.9 69.6,180.7 172.6,180.7 101.9,0 170.5,-79.7 170.5,-180.7 0,-98.9 -69.6,-180.6 -172.6,-180.6 -101.9,0 -170.5,79.7 -170.5,180.6 z m -196.8,361.4 c 0,47.4 -26.3,88.8 -66.7,88.8 -42.3,0 -64.5,-40.4 -64.5,-88.8 0,-47.5 26.2,-88.9 66.6,-88.9 42.4,0 64.6,41.4 64.6,88.9 z m 349.2,172.5 h 120.1 l -515.8,-706.5 H 13265 Z m -586.4,-172.5 c 0,99.9 69.6,180.6 172.6,180.6 101.9,0 170.5,-79.7 170.5,-180.6 0,-99 -69.6,-180.7 -172.6,-180.7 -101.9,0 -170.5,79.7 -170.5,180.7" /><g
         transform="scale(1.28901)"
         id="g226"><path
           id="path228"
           style="fill:#99c3ff;fill-opacity:1;fill-rule:nonzero;stroke:none"
           d="m 16300,8880.93 c -1.9,-17.56 -6,-33.3 -12.3,-47.21 -6.3,-13.93 -14.9,-25.72 -25.6,-35.36 -10.6,-9.66 -23.4,-17.05 -38.4,-22.19 -14.9,-5.14 -31.9,-7.71 -50.9,-7.71 -19.6,0 -37.3,3.72 -53.3,11.14 -16,7.44 -29.7,18 -41.1,31.69 -11.4,13.68 -20.2,30.09 -26.3,49.23 -6.2,19.15 -9.3,40.34 -9.3,63.6 v 43.42 c 0,23.25 3.1,44.49 9.3,63.71 6.1,19.22 14.9,35.63 26.4,49.24 11.5,13.61 25.4,24.16 41.7,31.67 16.3,7.52 34.5,11.27 54.7,11.27 18.4,0 35,-2.52 49.7,-7.58 14.7,-5.07 27.3,-12.47 37.8,-22.19 10.5,-9.73 19,-21.6 25.4,-35.59 6.4,-14 10.5,-29.86 12.2,-47.58 h -29.4 c -1.8,13.92 -4.9,26.37 -9.5,37.37 -4.6,10.99 -10.8,20.21 -18.7,27.65 -7.7,7.44 -17.3,13.12 -28.4,17.08 -11.1,3.95 -24.2,5.93 -39.1,5.93 -16.1,0 -30.4,-3.12 -43.1,-9.37 -12.7,-6.25 -23.4,-15.07 -32.3,-26.46 -8.9,-11.39 -15.6,-25.12 -20.3,-41.17 -4.6,-16.05 -7,-33.9 -7,-53.51 v -43.89 c 0,-18.98 2.2,-36.5 6.6,-52.55 4.5,-16.07 11,-29.91 19.5,-41.54 8.5,-11.63 19.1,-20.68 31.6,-27.17 12.5,-6.48 26.8,-9.72 42.9,-9.72 30.5,0 53.6,7.31 69.1,21.94 15.5,14.64 25,36.59 28.7,65.85 h 29.4" /></g><g
         transform="scale(1.30932)"
         id="g230"><path
           id="path232"
           style="fill:#99c3ff;fill-opacity:1;fill-rule:nonzero;stroke:none"
           d="m 16182.2,8657.23 c 10.2,0 19.5,1.29 28.2,3.85 8.6,2.57 16.4,6.11 23.5,10.63 7,4.52 13,9.78 18.2,15.77 5.1,6 9.3,12.49 12.4,19.5 v 55.6 h -47.9 c -14.4,0 -27.2,-1.28 -38.4,-3.85 -11.3,-2.57 -20.9,-6.27 -28.7,-11.09 -7.7,-4.84 -13.7,-10.72 -17.8,-17.64 -4.2,-6.94 -6.2,-14.77 -6.2,-23.49 0,-6.84 1.3,-13.27 4,-19.26 2.6,-5.99 6.4,-11.21 11.3,-15.65 4.8,-4.44 10.8,-7.95 17.8,-10.52 7.1,-2.56 14.9,-3.85 23.6,-3.85 z m 87.9,-20.09 c -1.6,4.35 -2.8,9.69 -3.6,16 -0.9,6.31 -1.5,12.73 -1.8,19.28 -4.2,-5.46 -9.2,-10.6 -15,-15.42 -5.7,-4.83 -12.2,-9.05 -19.4,-12.62 -7.1,-3.58 -15,-6.46 -23.6,-8.65 -8.5,-2.17 -17.7,-3.26 -27.8,-3.26 -12.2,0 -23.4,1.79 -33.5,5.37 -10,3.58 -18.5,8.6 -25.6,15.06 -7.1,6.47 -12.6,14.06 -16.5,22.78 -3.9,8.72 -5.8,18.23 -5.8,28.5 0,12.31 2.6,23.4 7.9,33.29 5.3,9.89 12.9,18.3 22.9,25.23 9.9,6.94 22.1,12.22 36.3,15.89 14.3,3.66 30.2,5.48 48,5.48 h 51.9 v 28.73 c 0,18.07 -5.6,32.29 -16.7,42.65 -11.2,10.35 -27.4,15.53 -48.8,15.53 -9.7,0 -18.8,-1.33 -27,-3.97 -8.3,-2.65 -15.4,-6.31 -21.4,-10.99 -6,-4.67 -10.7,-10.08 -14,-16.23 -3.4,-6.16 -5.1,-12.73 -5.1,-19.74 l -28,0.24 c 0,9.49 2.4,18.69 7,27.56 4.7,8.88 11.2,16.78 19.7,23.71 8.6,6.93 18.7,12.5 30.6,16.7 12,4.21 25.2,6.31 39.7,6.31 13.4,0 25.7,-1.72 36.9,-5.14 11.4,-3.42 21.1,-8.57 29.2,-15.42 8,-6.84 14.4,-15.41 18.9,-25.69 4.5,-10.28 6.8,-22.28 6.8,-35.97 v -122.41 c 0,-4.37 0.1,-8.88 0.4,-13.56 0.4,-4.67 0.9,-9.19 1.6,-13.55 0.7,-4.36 1.5,-8.52 2.4,-12.5 0.9,-3.96 2,-7.44 3.3,-10.38 v -2.81 h -29.9" /></g><g
         transform="scale(1.32412)"
         id="g234"><path
           id="path236"
           style="fill:#99c3ff;fill-opacity:1;fill-rule:nonzero;stroke:none"
           d="m 16299.3,8766.94 c -5.9,1.09 -12.1,1.63 -18.7,1.63 -9.4,0 -17.9,-1.39 -25.5,-4.16 -7.4,-2.78 -14.2,-6.66 -19.9,-11.67 -5.8,-5 -10.6,-10.94 -14.6,-17.79 -3.9,-6.85 -7,-14.43 -9.3,-22.74 v -171.64 h -27.5 v 249.94 h 27 l 0.5,-39.74 c 6.8,13.71 16,24.53 27.6,32.46 11.6,7.93 25.9,11.9 42.8,11.9 3.4,0 6.9,-0.31 10.4,-0.93 3.6,-0.62 6.2,-1.31 7.9,-2.07 l -0.7,-25.19" /></g><g
         transform="scale(1.34396)"
         id="g238"><path
           id="path240"
           style="fill:#99c3ff;fill-opacity:1;fill-rule:nonzero;stroke:none"
           d="m 16272.7,8539.93 c 0,14.26 -1.4,27.61 -4.1,40.05 -2.8,12.45 -7.1,23.21 -12.9,32.32 -5.8,9.11 -13.3,16.27 -22.4,21.51 -9.1,5.24 -20.1,7.85 -32.8,7.85 -10.3,0 -19.4,-1.41 -27.3,-4.21 -7.9,-2.81 -14.7,-6.56 -20.5,-11.26 -5.8,-4.71 -10.6,-10.1 -14.5,-16.17 -4,-6.06 -7.2,-12.37 -9.6,-18.88 v -111.06 c 2.9,-6.53 6.5,-12.64 10.8,-18.32 4.3,-5.7 9.5,-10.63 15.4,-14.8 5.9,-4.17 12.7,-7.43 20.3,-9.79 7.7,-2.35 16.3,-3.52 25.9,-3.52 12.2,0 23,2.57 32,7.74 9,5.15 16.5,12.29 22.4,21.39 5.9,9.11 10.2,19.83 13.1,32.2 2.8,12.37 4.2,25.75 4.2,40.17 z m 27.3,-4.78 c 0,-18.51 -2.1,-35.42 -6.2,-50.75 -4.2,-15.33 -10.3,-28.49 -18.4,-39.49 -8.1,-11 -17.9,-19.57 -29.6,-25.72 -11.7,-6.13 -25,-9.21 -39.8,-9.21 -18.1,0 -33.5,3.42 -46.3,10.25 -12.8,6.82 -23.3,16.15 -31.6,27.99 l -1.1,-33.69 h -25.4 v 349.57 h 27 v -139.05 c 8.2,12.74 18.6,22.64 31.2,29.7 12.6,7.05 27.8,10.58 45.7,10.58 15,0 28.4,-2.96 40.1,-8.88 11.7,-5.91 21.6,-14.34 29.7,-25.26 8.1,-10.92 14.3,-24.08 18.5,-39.49 4.1,-15.4 6.2,-32.65 6.2,-51.77 v -4.78" /></g><g
         transform="scale(1.36332)"
         id="g242"><path
           id="path244"
           style="fill:#99c3ff;fill-opacity:1;fill-rule:nonzero;stroke:none"
           d="m 16273.1,8356.72 c 0,4.93 -0.8,9.87 -2.6,14.81 -1.7,4.93 -4.9,9.61 -9.6,14.03 -4.8,4.4 -11.3,8.51 -19.8,12.34 -8.4,3.8 -19.4,7.13 -32.9,9.98 -13.4,2.84 -25.4,6.12 -36,9.87 -10.5,3.74 -19.4,8.26 -26.7,13.57 -7.2,5.31 -12.7,11.63 -16.4,18.96 -3.7,7.33 -5.7,15.93 -5.7,25.8 0,8.97 2,17.5 6,25.57 3.9,8.08 9.7,15.11 17.1,21.09 7.4,5.98 16.3,10.74 26.9,14.25 10.5,3.51 22.4,5.27 35.6,5.27 14,0 26.6,-1.83 37.7,-5.5 11.2,-3.66 20.6,-8.74 28.3,-15.25 7.7,-6.51 13.6,-14.17 17.6,-23 4,-8.83 6.1,-18.4 6.1,-28.71 h -26.9 c 0,6.28 -1.4,12.41 -4.2,18.4 -2.7,5.97 -6.8,11.24 -12.1,15.82 -5.3,4.55 -11.9,8.26 -19.8,11.1 -7.8,2.84 -16.8,4.26 -26.7,4.26 -10.5,0 -19.5,-1.27 -26.9,-3.82 -7.4,-2.54 -13.5,-5.83 -18.2,-9.86 -4.7,-4.05 -8.1,-8.57 -10.2,-13.58 -2.2,-5.02 -3.3,-10.06 -3.3,-15.15 0,-5.37 0.8,-10.28 2.5,-14.69 1.6,-4.41 4.8,-8.52 9.5,-12.34 4.7,-3.81 11.3,-7.32 19.7,-10.54 8.5,-3.22 19.5,-6.4 33.1,-9.54 14.7,-3.43 27.3,-7.25 37.9,-11.44 10.7,-4.19 19.5,-9.16 26.4,-14.91 6.9,-5.77 12.1,-12.35 15.5,-19.75 3.3,-7.4 5,-15.97 5,-25.69 0,-10.02 -2.1,-19.18 -6.2,-27.48 -4.2,-8.31 -10.2,-15.41 -18,-21.32 -7.8,-5.91 -17.2,-10.5 -28.2,-13.8 -11.1,-3.28 -23.4,-4.93 -37.1,-4.93 -15.4,0 -29,1.98 -40.8,5.95 -11.9,3.96 -21.8,9.3 -29.8,16.04 -8.2,6.73 -14.3,14.46 -18.4,23.22 -4.1,8.75 -6.1,17.83 -6.1,27.26 h 26.9 c 0.6,-9.58 3.1,-17.55 7.4,-23.89 4.3,-6.36 9.8,-11.45 16.1,-15.27 6.5,-3.8 13.6,-6.54 21.5,-8.18 7.8,-1.65 15.6,-2.47 23.2,-2.47 10.2,0 19.2,1.2 26.9,3.58 7.8,2.4 14.3,5.62 19.7,9.66 5.3,4.03 9.3,8.67 11.9,13.9 2.8,5.24 4.1,10.71 4.1,16.38" /></g><g
         transform="scale(1.30867)"
         id="g246"><path
           id="path248"
           style="fill:#99c3ff;fill-opacity:1;fill-rule:nonzero;stroke:none"
           d="m 15808.4,7839.83 86.5,103.34 c 49.4,-44.68 97.8,-70.76 155.5,-70.76 67.1,0 109,32.6 109,92.18 0,55.86 -47.5,88.44 -115.5,88.44 -40.9,0 -78.2,-11.17 -108.8,-24.2 l -83,54.93 18.7,321.2 h 400.3 v -125.69 h -277.4 l -7.5,-112.65 c 26.1,6.52 49.3,11.17 85.6,11.17 126.6,0 228.2,-61.44 228.2,-210.41 0,-137.79 -97.8,-225.3 -247.7,-225.3 -104.3,0 -180.6,37.23 -243.9,97.75" /></g><g
         transform="scale(1.36279)"
         id="g250"><path
           id="path252"
           style="fill:#99c3ff;fill-opacity:1;fill-rule:nonzero;stroke:none"
           d="m 16222.2,7570.17 c 0,34.8 -19.2,65.17 -48.9,65.17 -31.1,0 -47.4,-29.63 -47.4,-65.17 0,-34.81 19.3,-65.18 48.9,-65.18 31.1,0 47.4,30.37 47.4,65.18 z m -174,0 c 0,73.31 51.1,132.56 126.6,132.56 74.8,0 125.2,-58.5 125.2,-132.56 0,-72.58 -51.1,-132.58 -126.7,-132.58 -74.8,0 -125.1,58.52 -125.1,132.58 z m -144.4,265.12 c 0,34.82 -19.3,65.18 -48.9,65.18 -31.1,0 -47.4,-29.62 -47.4,-65.18 0,-34.8 19.2,-65.16 48.9,-65.16 31.1,0 47.4,30.36 47.4,65.16 z m 256.2,126.65 h 88.1 l -378.4,-518.42 h -88.1 z m -430.3,-126.65 c 0,73.32 51.1,132.58 126.7,132.58 74.7,0 125.1,-58.52 125.1,-132.58 0,-72.58 -51.1,-132.56 -126.6,-132.56 -74.8,0 -125.2,58.5 -125.2,132.56" /></g><g
         transform="scale(1.6841)"
         id="g254"><path
           id="path256"
           style="fill:#2e3552;fill-opacity:1;fill-rule:nonzero;stroke:none"
           d="m 16077.7,5154.63 c -155.3,-361.38 -421,-778.34 -784.6,-906.12 -26.9,-9.45 -55.6,-13.42 -83.9,-10.52 -51.8,5.35 -100.8,21.56 -135.4,47.21 -47.4,35.03 -67.7,87.7 -30.9,153.91 194.4,350.22 172.4,717.54 -35.8,779.17 -150.1,44.54 -397.1,-245.29 -402.1,-632.86 -1.1,-89.6 -66.7,-135.38 -151.3,-129.27 -52.1,3.92 -111.5,27.44 -167.4,72.74 -5,4.1 -9.4,9.03 -13,14.49 -200.4,303.72 -229.3,788.67 -205.4,1191.26 30.4,511.55 447.8,1078.82 1068.3,1079.35 94.8,0.08 242.1,14.6 308.4,-3.71 58.9,-16.23 185.2,-104.17 265.5,-148.86 589.9,-328.56 566,-1045.18 367.6,-1506.79" /></g><g
         transform="scale(1.66894)"
         id="g258"><path
           id="path260"
           style="fill:#f99746;fill-opacity:1;fill-rule:nonzero;stroke:none"
           d="m 16300,5775.95 c 0,-2.76 0,-5.52 -0.1,-8.09 -0.4,-201.75 -48.1,-403.01 -120.8,-571.98 -17,-39.49 -35.4,-79.57 -55.1,-119.96 l -0.1,-0.12 c -2.2,-4.79 -4.6,-9.65 -7,-14.5 -59.5,-120.19 -130.7,-241.77 -213.4,-351.9 v -0.18 c -3.6,-4.79 -7.2,-9.47 -10.8,-14.2 -29.7,-38.77 -60.9,-76.04 -93.4,-111.21 -7.6,-8.21 -15.3,-16.3 -23,-24.27 l -0.1,-0.12 c -104.8,-107.97 -223.6,-194.37 -355.7,-241.29 -27.8,-9.88 -57.5,-13.84 -86.8,-10.54 -49,5.51 -95.2,21.09 -127.9,45.42 -46,33.97 -65.6,84.96 -30,149.19 188.5,339.5 167.2,695.59 -34.7,755.39 -145.5,43.14 -385,-237.81 -389.7,-613.62 -1.2,-86.82 -64.7,-131.22 -146.8,-125.23 -38.5,2.88 -81.1,16.78 -123.2,42.72 -29.6,18.22 -53.9,43.86 -71.7,73.7 -58.8,98.69 -100.9,214.63 -129.8,339.38 14,-29.48 39.3,-78.5 73.7,-125.95 51.8,-71.42 107.4,-115.82 163.5,-131.28 22.1,-6.11 44.1,-7.73 66.1,-4.73 63.9,8.44 123.6,68.36 177.3,178.07 39.6,80.77 61.1,160.22 61.3,160.88 l -11.4,3.24 c -0.9,-3.12 -85.3,-311.28 -228.8,-330.45 -178.5,-23.67 -301.6,279.22 -302.9,282.27 l -5.4,-2.21 c -10.2,47.33 -18.6,95.63 -25.2,144.82 -0.6,3.89 -1.2,7.49 -1.7,11.44 l 0.1,0.24 c -17.7,133.32 -23.9,271.38 -22.7,405.41 l 0.1,0.18 c -0.1,2.58 0,5.28 0,7.85 0.8,62.5 3.2,124.09 6.6,183.89 11.8,197.55 82.3,400.37 200.9,572.47 v 0.13 c 1.6,2.23 3.1,4.33 4.7,6.57 93.1,133.06 215,247.3 360.8,326 3.9,2.24 8.1,4.34 12.2,6.5 41.4,21.59 84.8,40.4 130,56.04 5.5,1.89 11.2,3.79 17,5.55 16.9,5.62 34.1,10.49 51.5,15.09 h 0.1 c 161.5,42.3 343.6,43.79 541.2,-10.76 221.2,-61.04 384.9,-161.21 501.8,-284.99 l 0.2,-0.14 c 15.2,-16.11 29.7,-32.69 43.3,-49.54 3.2,-3.86 6.2,-7.65 9.2,-11.57 28,-35.67 52.6,-72.96 74.1,-111.53 1.3,-2.52 2.7,-4.88 4,-7.31 83,-152.22 117.9,-323.65 118.5,-494.77" /></g><g
         transform="scale(1.59179)"
         id="g262"><path
           id="path264"
           style="fill:#efefef;fill-opacity:1;fill-rule:nonzero;stroke:none"
           d="m 15948,4533.71 c -56.3,32.99 -91.6,125.33 -47.5,201.48 204.1,352.3 185,699.27 -26.6,761.91 -152.6,45.23 -402.6,-234.02 -407.6,-627.98 -1.2,-91.09 -63.1,-174.14 -201.4,-150.89 l 47.3,19.72 c 0,0 80.1,11.75 103.9,96.43 21,74.38 42,850.31 470.3,741.94 413.6,-104.67 181.7,-610.76 130.1,-703.49 -51.5,-92.72 -103.6,-233.45 -68.5,-339.12" /></g><g
         transform="scale(1.51629)"
         id="g266"><path
           id="path268"
           style="fill:#979aa9;fill-opacity:1;fill-rule:nonzero;stroke:none"
           d="m 16286.6,7334.2 v 0 c 0.1,0.05 0.1,0.08 0.2,0.12 -0.1,-0.04 -0.1,-0.07 -0.2,-0.11 v 0 m 8.9,4.8 c 1.5,0.78 3,1.57 4.5,2.38 0,0 0,-0.01 0,-0.02 v 0 c -1.5,-0.8 -3,-1.59 -4.5,-2.36" /></g><g
         transform="scale(1.56105)"
         id="g270"><path
           id="path272"
           style="fill:#fccba3;fill-opacity:1;fill-rule:nonzero;stroke:none"
           d="m 16253.4,6104.81 -12.5,1.72 c 0.5,4.36 59.1,442.32 -58.6,644.37 -129.1,221.44 -305.9,339.24 -362.7,373.01 0,0 0,0 0,0 0.1,0.04 0.1,0.07 0.2,0.11 2.8,1.57 5.6,3.04 8.5,4.55 1.4,0.76 2.9,1.52 4.3,2.29 v 0.01 c 64,-39.06 235,-157.75 360.7,-373.63 50.5,-86.47 75.9,-222.76 75.6,-404.78 -0.2,-135.17 -15.3,-246.57 -15.5,-247.65" /></g><g
         transform="scale(1.6568)"
         id="g274"><path
           id="path276"
           style="fill:#979aa9;fill-opacity:1;fill-rule:nonzero;stroke:none"
           d="m 16300,6316.64 v 0 c -1.3,2.45 -2.7,4.84 -4,7.36 v 0 c 1.3,-2.51 2.7,-4.87 4,-7.36 v 0" /></g><g
         transform="scale(1.6568)"
         id="g278"><path
           id="path280"
           style="fill:#fccba3;fill-opacity:1;fill-rule:nonzero;stroke:none"
           d="m 15500.9,5733.93 -11.2,4.59 c 0.7,1.75 76.5,185.11 213.3,347.58 142.6,169.43 300.6,256.24 463.1,256.24 42.1,0 84.5,-5.83 127.1,-17.58 l 2.8,-0.76 c 1.3,-2.52 2.7,-4.91 4,-7.36 v 0 l -1.7,-5.75 -8.4,2.34 c -42.9,11.82 -84.2,17.22 -124,17.22 -416.2,0 -662.4,-590 -665,-596.52" /></g><g
         transform="scale(1.4781)"
         id="g282"><path
           id="path284"
           style="fill:#979aa9;fill-opacity:1;fill-rule:nonzero;stroke:none"
           d="m 16294.7,7148.07 v 0.07 c 0.2,0.3 0.4,0.6 0.6,0.91 -0.2,-0.29 -0.4,-0.59 -0.6,-0.88 v -0.1 m 2.3,3.36 c 1,1.38 1.9,2.75 2.9,4.19 l 0.1,0.01 c 0,-0.03 0,-0.03 -0.1,-0.05 -1,-1.41 -1.9,-2.78 -2.9,-4.15" /></g><g
         transform="scale(1.55142)"
         id="g286"><path
           id="path288"
           style="fill:#fccba3;fill-opacity:1;fill-rule:nonzero;stroke:none"
           d="m 16287.2,6158.31 c -0.2,4.64 -19.2,464.63 -229.9,581.03 -111.9,61.84 -253,76.51 -361.7,76.51 -97.2,0 -168.4,-11.7 -169.8,-11.94 l -1.2,6.32 v 0.05 0.1 c 0.2,0.28 0.4,0.56 0.6,0.84 0.6,0.76 1.1,1.52 1.6,2.27 1,1.3 1.9,2.61 2.9,3.95 0,0.02 0,0.02 0,0.04 19.6,2.88 83.5,11.19 165.8,11.19 110.4,0 253.9,-14.95 368.1,-78.04 91.4,-50.49 158.9,-165.68 200.8,-342.3 31,-130.65 35.5,-248.35 35.6,-249.57 l -12.8,-0.45" /></g><g
         transform="scale(1.66894)"
         id="g290"><path
           id="path292"
           style="fill:#979aa9;fill-opacity:1;fill-rule:nonzero;stroke:none"
           d="m 16300,5772.65 c 0,1.08 0,2.22 0,3.24 v 0 c 0,-1.08 0,-2.16 0,-3.24" /></g><g
         transform="scale(1.66894)"
         id="g294"><path
           id="path296"
           style="fill:#fccba3;fill-opacity:1;fill-rule:nonzero;stroke:none"
           d="m 15412.1,5649.28 -9.8,6.89 c 1.5,2.22 214.5,226.13 485.1,258.43 21.3,2.51 42.4,3.83 63.2,3.83 127.3,0 244.6,-47.81 349.4,-142.54 0,-1.02 0,-2.16 0,-3.24 0,-1.62 -0.1,-3.24 -0.1,-4.73 l -3.9,-4.38 c -103.6,95.03 -219.7,142.91 -345.9,142.91 -12.5,0 -25.1,-0.48 -37.9,-1.44 -274.5,-20.55 -498.3,-253.4 -500.1,-255.73" /></g><g
         transform="scale(1.54761)"
         id="g298"><path
           id="path300"
           style="fill:#fccba3;fill-opacity:1;fill-rule:nonzero;stroke:none"
           d="m 16269.4,6076.45 c -129.7,121.8 -309.6,141.64 -454.1,157.66 -119.5,13.25 -213.8,23.65 -238.9,86.85 -28.7,72.05 -5.7,166.11 56.1,228.67 31.1,31.48 89.6,72.44 183.8,72.44 44.2,0 96.4,-9.03 157.3,-32.33 311.2,-119.26 326.3,-459.01 326.4,-462.44 l -12.9,-0.45 c -0.1,3.36 -15,334.74 -318.1,450.88 -59.2,22.66 -109.7,31.43 -152.5,31.43 -89.8,0 -145.3,-38.72 -174.9,-68.57 -57.3,-58.08 -79.8,-148.49 -53.3,-214.92 22.3,-56.02 113.2,-66.03 228.4,-78.76 146.5,-16.22 328.7,-36.38 461.5,-161.09 l -8.8,-9.37" /></g><g
         transform="scale(1.6534)"
         id="g302"><path
           id="path304"
           style="fill:#fccba3;fill-opacity:1;fill-rule:nonzero;stroke:none"
           d="m 16146.3,5435.23 c -14.9,0 -30.8,2.66 -47.8,7.38 -38.4,10.58 -82.2,31.33 -131.3,54.49 -99.8,47.24 -220.7,104.39 -356.2,104.39 -22.3,0 -44.9,-1.51 -67.9,-4.9 l -1.7,11.92 c 23.6,3.45 46.9,5.08 69.7,5.08 138,0 260.3,-57.82 361.3,-105.6 69.5,-32.84 128.4,-60.73 173.7,-60.73 16.5,0 31.2,3.69 43.9,12.16 51.2,33.69 97.2,99.37 85,170.08 -9.1,52.92 -54.5,124.4 -217.8,164.93 -39.6,9.86 -77.6,14.09 -113.6,14.09 -231.7,0 -381.2,-176.36 -382.9,-178.42 l -9.2,7.68 c 1.7,2.12 154.8,182.78 392.1,182.78 36.9,0 75.8,-4.36 116.5,-14.46 169.9,-42.27 217.1,-118.12 226.8,-174.55 13.1,-76.02 -35.9,-146.3 -90.2,-182.17 -15,-9.92 -31.8,-14.15 -50.4,-14.15" /></g><g
         transform="scale(1.45637)"
         id="g306"><path
           id="path308"
           style="fill:#979aa9;fill-opacity:1;fill-rule:nonzero;stroke:none"
           d="m 16299.9,6378.86 v 0 c 0,0.41 0,0.82 0,1.23 0,-0.41 0,-0.82 0,-1.17 v -0.06 m 0.1,7.75 c 0,0.42 0,0.9 0,1.31 v 0 0 c 0,-0.48 0,-0.89 0,-1.31" /></g><g
         transform="scale(1.54691)"
         id="g310"><path
           id="path312"
           style="fill:#fccba3;fill-opacity:1;fill-rule:nonzero;stroke:none"
           d="m 15350.2,6000.72 -4.4,4.66 0.1,0.12 v 0.07 c 0,0.32 0,0.71 0,1.1 0,2 0.1,4.07 0.1,6.14 0,0.39 0,0.78 0,1.23 v 0 c 108.1,95.54 253.8,126.96 398.7,126.96 276.9,0 551,-114.74 555.3,-116.49 l -5,-11.96 c -4.2,1.88 -276.8,115.85 -550.5,115.85 -144.1,0 -288.4,-31.55 -394.3,-127.68" /></g><g
         transform="scale(1.45869)"
         id="g314"><path
           id="path316"
           style="fill:#979aa9;fill-opacity:1;fill-rule:nonzero;stroke:none"
           d="m 16300,5903.09 c -0.1,0.48 -0.1,0.89 -0.2,1.37 l 0.1,0.28 v 0 0 l -0.1,-0.28 c 0.1,-0.48 0.1,-0.89 0.2,-1.37" /></g><g
         transform="scale(1.5466)"
         id="g318"><path
           id="path320"
           style="fill:#fccba3;fill-opacity:1;fill-rule:nonzero;stroke:none"
           d="m 15381,5554.05 -5.9,2.46 c -0.5,3.75 -1.1,7.24 -1.6,11.05 0,0.46 -0.1,0.84 -0.2,1.3 l 0.2,0.25 h -0.1 c 162.5,371.21 572.7,422.93 788.7,422.93 82,0 136,-7.43 137.9,-7.69 l -1.9,-12.67 c -1.9,0.25 -55.3,7.56 -136.2,7.56 -214.9,0 -624.3,-51.73 -780.9,-425.19" /></g><g
         transform="scale(1.55463)"
         id="g322"><path
           id="path324"
           style="fill:#fccba3;fill-opacity:1;fill-rule:nonzero;stroke:none"
           d="m 15641.5,5348.73 c -0.8,0 -1.6,0.06 -2.4,0.06 -5.8,0.19 -11.4,1.03 -16.9,2.57 -23.9,6.57 -44.8,25.28 -57.9,52.49 -26,53.84 -25.1,149.75 55.4,257.56 164,219.66 596.8,223.46 623.7,223.46 0.7,0 1.1,0 1.2,0 l -0.1,-12.8 c -0.1,0 -0.5,0 -1.2,0 -25.4,0 -452.9,-3.48 -613.4,-218.32 -77,-103.24 -78.4,-193.87 -54.1,-244.3 14.3,-29.65 37.5,-47.02 63.7,-47.86 0.7,-0.06 1.3,-0.06 2,-0.06 31.4,0 62,23.67 86.1,66.83 97.6,174.19 362.3,416.95 572.1,416.95 0.1,0 0.2,0 0.3,0 v -12.8 c -0.1,0 -0.2,0 -0.3,0 -205.2,0 -464.9,-238.97 -560.9,-410.39 -26.5,-47.41 -61,-73.39 -97.3,-73.39" /></g><g
         transform="scale(1.64881)"
         id="g326"><path
           id="path328"
           style="fill:#979aa9;fill-opacity:1;fill-rule:nonzero;stroke:none"
           d="m 16300,6467.57 c -0.2,0.24 -0.4,0.48 -0.5,0.73 0.1,-0.25 0.3,-0.49 0.5,-0.73 v 0 m -5.1,6.48 c -1.4,1.74 -2.8,3.48 -4.2,5.23 0,-0.01 0,-0.01 0,-0.02 1.4,-1.74 2.8,-3.47 4.2,-5.21 m -1173.4,333.98 v 0 c 3.2,1.11 6.5,2.22 9.8,3.3 -3.3,-1.08 -6.6,-2.19 -9.8,-3.3 0,0 0,0 0,0" /></g><g
         transform="scale(1.64881)"
         id="g330"><path
           id="path332"
           style="fill:#fccba3;fill-opacity:1;fill-rule:nonzero;stroke:none"
           d="m 15708.3,6285.15 c -21.5,0 -42.5,2.77 -62.8,8.35 -5.1,1.42 -10.1,3.06 -15.1,4.82 -80.9,28.57 -145.8,100.9 -192.8,215.24 -73.7,178.52 -244.6,265.07 -316.1,294.47 0,0 0,0 0,0 3.2,1.11 6.5,2.22 9.8,3.3 2.5,0.79 5,1.56 7.4,2.3 79.2,-34.49 238.9,-123.08 310,-295.48 45.7,-111 108.2,-181.17 185.7,-208.42 23.6,-8.31 48.3,-12.44 74,-12.44 47.4,0 97.7,14.09 148.9,42.03 24.9,13.65 50.2,28.31 74.8,42.56 100.3,58.01 196.3,113.69 283.2,113.69 26,0 51.2,-4.96 75.4,-16.29 1.4,-1.75 2.8,-3.49 4.2,-5.23 1.5,-1.91 3,-3.82 4.6,-5.75 0.1,-0.25 0.3,-0.49 0.5,-0.73 l -3,-5.19 c -25.8,14.64 -53.1,20.94 -81.7,20.94 -84,0 -178.5,-54.71 -277.2,-111.86 -24.6,-14.25 -50,-28.99 -75.1,-42.73 -53,-28.96 -105.3,-43.58 -154.7,-43.58" /></g><g
         transform="scale(1.65023)"
         id="g334"><path
           id="path336"
           style="fill:#979aa9;fill-opacity:1;fill-rule:nonzero;stroke:none"
           d="m 16299.6,5118.67 v 0 0 c 0.2,0.3 0.3,0.55 0.4,0.85 -0.1,-0.3 -0.2,-0.61 -0.4,-0.85" /></g><g
         transform="scale(1.65091)"
         id="g338"><path
           id="path340"
           style="fill:#fccba3;fill-opacity:1;fill-rule:nonzero;stroke:none"
           d="m 16292.9,5116.56 c -131.6,352.47 -740.2,439.7 -746.5,440.54 l 1.7,12.06 c 6.1,-0.85 609.7,-87.29 751.9,-437.82 l -0.1,-0.12 c -2,-4.61 -4.4,-9.15 -6.6,-13.81 -0.1,-0.3 -0.3,-0.55 -0.4,-0.85 v 0" /></g><g
         transform="scale(1.62834)"
         id="g342"><path
           id="path344"
           style="fill:#979aa9;fill-opacity:1;fill-rule:nonzero;stroke:none"
           d="m 16294.8,4819.87 c 1.1,1.47 2.3,2.94 3.4,4.42 -1.1,-1.48 -2.2,-2.95 -3.4,-4.42 m 5.1,6.81 v 0.13 h 0.1 v 0 l -0.1,-0.13" /></g><g
         transform="scale(1.63449)"
         id="g346"><path
           id="path348"
           style="fill:#fccba3;fill-opacity:1;fill-rule:nonzero;stroke:none"
           d="m 16227.6,4794.03 -2.9,0.43 c 74.3,522.18 -536.3,781.65 -542.6,784.22 l 4.8,11.2 c 6.1,-2.57 613.1,-260.33 551.8,-781.23 h -0.1 v -0.12 0 c -0.5,-0.79 -1.1,-1.59 -1.7,-2.38 -1.1,-1.47 -2.2,-2.94 -3.3,-4.41 -2,-2.57 -4,-5.14 -6,-7.71" /></g><g
         transform="scale(1.60885)"
         id="g350"><path
           id="path352"
           style="fill:#fccba3;fill-opacity:1;fill-rule:nonzero;stroke:none"
           d="m 16150.9,4882.75 c -6.8,0 -13.5,0.87 -19.9,2.61 -5.3,1.49 -10.5,3.55 -15.4,6.28 -31.3,17.53 -47.8,56.63 -46.3,110.27 5.3,189.88 -91.8,517.01 -262.2,618.52 l 6.3,10.62 c 174.3,-103.8 273.7,-436.58 268.2,-629.52 -1.3,-48.73 12.8,-83.97 40,-99.07 9.1,-5.04 19.1,-7.53 29.5,-7.53 15.2,0 31.4,5.29 47.2,15.67 45.1,29.77 88.8,105.67 76.1,229.48 -27.3,264.35 -397.9,483.45 -401.7,485.63 l 6.3,10.69 c 3.7,-2.24 379.7,-224.45 407.6,-495.08 13.4,-129.28 -33.3,-209.28 -81.6,-241.04 -17.6,-11.62 -36.3,-17.53 -54.1,-17.53" /></g><g
         transform="scale(1.61531)"
         id="g354"><path
           id="path356"
           style="fill:#979aa9;fill-opacity:1;fill-rule:nonzero;stroke:none"
           d="m 16299.9,4710.73 c 0,0.06 0,0.06 0,0.06 l 0.1,0.12 -0.1,-0.12 c 0,0 0,0 0,-0.06" /></g><g
         transform="scale(1.61767)"
         id="g358"><path
           id="path360"
           style="fill:#fccba3;fill-opacity:1;fill-rule:nonzero;stroke:none"
           d="m 15990.3,4595.81 c -20.6,0 -39.9,2.47 -57.8,7.42 -22.6,6.24 -43,16.44 -60.9,30.72 -52.2,41.36 -73.3,125.93 -63,251.54 0.6,6.43 1.2,12.79 1.8,19.1 7.1,17.99 14,37.46 20.7,57.92 -17.2,-102.18 -28.2,-258.33 48.1,-318.91 32.2,-25.53 70.4,-35.55 110.5,-35.55 141,0 304.9,123.7 307,125.3 l 3.3,-4.2 c -7.9,-8.59 -15.8,-16.87 -23.7,-25.1 v 0 l -0.1,-0.12 c 0,0 0,0 0,-0.06 -28.2,-18.86 -75.4,-47.79 -129.3,-70.91 -57.8,-24.72 -110.5,-37.15 -156.6,-37.15" /></g><g
         transform="scale(1.57315)"
         id="g362"><path
           id="path364"
           style="fill:#f7f7f7;fill-opacity:1;fill-rule:nonzero;stroke:none"
           d="m 16257.9,5043.39 c 9.3,86.77 29.7,159.62 29.9,160.32 l 12.2,-3.37 c -0.3,-1.14 -11.6,-41.38 -20.9,-97.39 -6.8,-21.03 -14,-41.06 -21.2,-59.56" /></g><g
         transform="scale(1.64341)"
         id="g366"><path
           id="path368"
           style="fill:#fccba2;fill-opacity:1;fill-rule:nonzero;stroke:none"
           d="m 16300,6551.03 c -97.5,81.91 -304.4,112.99 -421.3,30.68 -82.2,-57.92 -316.1,-756.57 -316.1,-756.57 l -65.6,18.13 c 0,0 184.3,672.05 69.8,837.05 -80,115.33 -318.3,170 -326,171.01 164,43.01 348.8,44.49 549.6,-10.91 224.7,-62 390.9,-163.72 509.6,-289.39" /></g><g
         transform="scale(1.58383)"
         id="g370"><path
           id="path372"
           style="fill:#ffffff;fill-opacity:1;fill-rule:nonzero;stroke:none"
           d="m 15856,5905.98 c 31.5,113.97 149.3,180.83 263.2,149.39 113.9,-31.45 180.8,-149.26 149.4,-263.22 -31.4,-113.91 -149.3,-180.77 -263.2,-149.32 -113.9,31.44 -180.8,149.25 -149.4,263.15" /></g><g
         transform="scale(1.5785)"
         id="g374"><path
           id="path376"
           style="fill:#efefef;fill-opacity:1;fill-rule:nonzero;stroke:none"
           d="m 15957.5,5912.78 c 24.3,87.87 115.1,139.43 203,115.17 87.9,-24.2 139.5,-115.11 115.2,-202.98 -24.2,-87.87 -115.1,-139.43 -203,-115.17 -87.9,24.2 -139.4,115.11 -115.2,202.98" /></g><g
         transform="scale(1.6136)"
         id="g378"><path
           id="path380"
           style="fill:#ebf3fa;fill-opacity:1;fill-rule:nonzero;stroke:none"
           d="m 16236.9,1499.01 h -986 v 1049.21 h 986.6 c 34.5,0 62.5,-27.95 62.5,-62.47 V 1562.1 c 0,-34.83 -28.3,-63.09 -63.1,-63.09" /></g><g
         transform="scale(1.54891)"
         id="g382"><path
           id="path384"
           style="fill:#ffffff;fill-opacity:1;fill-rule:nonzero;stroke:none"
           d="m 16240.7,1561.61 h -965 c -37.9,0 -68.7,30.8 -68.7,68.76 v 949.18 c 0,41.45 33.6,75.08 75.1,75.08 h 954.2 c 35.2,0 63.7,-28.53 63.7,-63.72 v -970.03 c 0,-32.73 -26.5,-59.27 -59.3,-59.27" /></g><g
         transform="scale(1.48114)"
         id="g386"><path
           id="path388"
           style="fill:#699dee;fill-opacity:1;fill-rule:nonzero;stroke:none"
           d="m 16283.5,2450.54 c 0,5.34 -0.9,10.06 -2.7,14.18 -1.7,4.19 -4.6,7.97 -8.8,11.41 -4.1,3.45 -9.6,6.55 -16.4,9.39 -6.7,2.9 -15.2,5.74 -25.3,8.57 -9.9,2.77 -18.7,5.81 -26.6,9.05 -7.8,3.24 -14.4,7.02 -20,11.41 -5.4,4.39 -9.6,9.38 -12.7,15.12 -2.9,5.67 -4.4,12.36 -4.4,20.05 0,7.5 1.6,14.32 4.8,20.46 3.2,6.14 7.7,11.41 13.5,15.87 5.8,4.39 12.7,7.83 20.7,10.26 8,2.5 16.8,3.71 26.3,3.71 10.3,0 19.6,-1.55 27.8,-4.59 8.2,-3.04 15.3,-7.15 21.1,-12.42 5.8,-5.27 10.2,-11.41 13.3,-18.43 3.2,-7.09 4.8,-14.65 4.8,-22.76 h -16.7 c 0,6.35 -1,12.23 -3.3,17.62 -2.3,5.34 -5.5,10 -9.8,13.98 -4.2,3.92 -9.5,6.95 -15.8,9.18 -6.2,2.23 -13.3,3.38 -21.4,3.38 -7.9,0 -15,-1.01 -21.2,-2.91 -6,-1.88 -11.1,-4.52 -15.1,-7.76 -4.1,-3.24 -7.2,-7.02 -9.3,-11.41 -2.1,-4.39 -3.1,-8.98 -3.1,-13.91 0,-4.66 0.8,-8.91 2.6,-12.82 1.7,-3.92 4.6,-7.57 8.7,-10.94 4.2,-3.31 9.5,-6.42 16.2,-9.32 6.7,-2.9 15,-5.67 24.8,-8.24 10.2,-2.83 19.3,-5.94 27.4,-9.38 8,-3.38 14.8,-7.36 20.3,-11.95 5.5,-4.59 9.7,-9.86 12.5,-15.87 2.9,-5.94 4.3,-12.82 4.3,-20.66 0,-7.96 -1.6,-15.05 -5,-21.33 -3.3,-6.28 -8,-11.62 -13.9,-16 -5.9,-4.39 -13,-7.7 -21.2,-10.06 -8.2,-2.3 -17.1,-3.45 -26.7,-3.45 -5.8,0 -11.7,0.48 -17.5,1.49 -5.8,0.94 -11.4,2.43 -16.8,4.46 -5.4,2.02 -10.4,4.59 -15.2,7.69 -4.6,3.11 -8.7,6.82 -12.1,11.14 -3.5,4.32 -6.2,9.32 -8.2,14.86 -1.9,5.6 -3,11.81 -3,18.63 h 16.5 c 0,-8.17 1.7,-15.12 5.1,-20.8 3.4,-5.6 7.7,-10.19 13.1,-13.7 5.3,-3.44 11.3,-5.94 18,-7.56 6.7,-1.55 13.4,-2.3 20.1,-2.3 7.5,0 14.4,0.88 20.6,2.64 6.2,1.69 11.6,4.18 16,7.36 4.3,3.24 7.7,7.08 10.1,11.61 2.3,4.45 3.6,9.52 3.6,15.05" /></g><g
         transform="scale(1.49391)"
         id="g390"><path
           id="path392"
           style="fill:#699dee;fill-opacity:1;fill-rule:nonzero;stroke:none"
           d="m 16284.3,2400.27 c -4.4,-6.56 -10.5,-11.64 -17.9,-15.33 -7.5,-3.68 -16.7,-5.49 -27.8,-5.49 -7.1,0 -13.4,1.01 -19.2,3.02 -5.8,1.94 -10.7,5.08 -14.9,9.44 -4.1,4.35 -7.3,9.9 -9.6,16.8 -2.2,6.82 -3.3,15.12 -3.3,24.96 v 91.84 h 15.8 v -92.1 c 0,-7.7 0.8,-14.13 2.6,-19.21 1.8,-5.16 4.1,-9.24 7.1,-12.32 3,-3.15 6.5,-5.36 10.6,-6.63 4,-1.34 8.2,-2.01 12.8,-2.01 6.3,0 12,0.67 16.8,2.15 4.9,1.4 9,3.34 12.6,5.95 3.5,2.55 6.5,5.56 8.7,8.97 2.3,3.48 4.1,7.3 5.5,11.45 v 103.75 h 15.9 v -143.38 h -15.4 l -0.3,18.14" /></g><g
         transform="scale(1.50771)"
         id="g394"><path
           id="path396"
           style="fill:#699dee;fill-opacity:1;fill-rule:nonzero;stroke:none"
           d="m 16201.4,2429.92 c 0,-8.29 0.8,-16.05 2.4,-23.15 1.7,-7.16 4.2,-13.33 7.7,-18.64 3.3,-5.24 7.7,-9.35 12.9,-12.33 5.2,-2.99 11.4,-4.45 18.6,-4.45 5.4,0 10.3,0.67 14.6,1.99 4.3,1.26 8.2,3.12 11.5,5.44 3.4,2.32 6.2,5.04 8.7,8.23 2.4,3.11 4.6,6.56 6.3,10.34 v 66.06 c -1.5,3.72 -3.4,7.23 -5.7,10.62 -2.3,3.31 -5.1,6.3 -8.4,8.88 -3.3,2.59 -7.1,4.64 -11.5,6.17 -4.4,1.53 -9.5,2.32 -15.3,2.32 -7.2,0 -13.5,-1.52 -18.7,-4.51 -5.3,-3.05 -9.7,-7.16 -13,-12.4 -3.5,-5.31 -6,-11.48 -7.7,-18.7 -1.6,-7.17 -2.4,-14.86 -2.4,-23.09 z m -15.9,2.78 c 0,11.01 1.2,20.96 3.7,29.85 2.5,8.89 6.1,16.51 10.8,22.82 4.8,6.3 10.5,11.14 17.3,14.59 6.8,3.38 14.4,5.1 23.1,5.1 10.1,0 18.8,-2.05 26.1,-6.1 7.2,-4.11 13.3,-9.75 18,-17.04 l 0.8,20.49 h 14.7 V 2362.8 c 0,-9.22 -1.4,-17.45 -4.1,-24.74 -2.7,-7.3 -6.5,-13.54 -11.5,-18.57 -5,-5.11 -10.9,-9.03 -17.9,-11.75 -7,-2.71 -14.9,-4.04 -23.5,-4.04 -4.5,0 -9.1,0.53 -13.7,1.53 -4.6,0.99 -9.1,2.51 -13.5,4.51 -4.3,1.99 -8.4,4.51 -12.2,7.56 -3.9,2.98 -7.3,6.56 -10.1,10.68 l 8.7,9.48 c 5.8,-7.1 12,-12.27 18.5,-15.59 6.4,-3.25 13.5,-4.91 21.2,-4.91 6.8,0 12.7,1.07 18,3.06 5.1,2.12 9.6,5.04 13.2,8.95 3.6,3.91 6.3,8.62 8.2,14.19 1.9,5.57 2.8,11.87 2.8,18.97 v 16.59 c -4.7,-6.57 -10.8,-11.75 -18,-15.46 -7.3,-3.71 -16,-5.57 -26,-5.57 -8.5,0 -16.1,1.79 -22.9,5.3 -6.7,3.59 -12.4,8.49 -17.2,14.86 -4.7,6.37 -8.3,13.93 -10.8,22.82 -2.5,8.82 -3.7,18.57 -3.7,29.25 v 2.78" /></g><g
         transform="scale(1.52135)"
         id="g398"><path
           id="path400"
           style="fill:#699dee;fill-opacity:1;fill-rule:nonzero;stroke:none"
           d="m 16234.4,2350.35 c 5.6,0 10.8,0.72 15.6,2.1 4.9,1.45 9.2,3.42 13.1,5.98 4,2.5 7.3,5.39 10.2,8.74 2.8,3.36 5.1,6.97 6.9,10.92 v 30.96 h -26.7 c -8,0 -15.1,-0.73 -21.4,-2.17 -6.3,-1.38 -11.6,-3.49 -16,-6.18 -4.3,-2.7 -7.6,-5.98 -9.9,-9.8 -2.3,-3.87 -3.5,-8.21 -3.5,-13.08 0,-3.81 0.8,-7.43 2.3,-10.78 1.5,-3.35 3.5,-6.24 6.3,-8.67 2.7,-2.5 6,-4.47 10,-5.92 3.8,-1.38 8.2,-2.1 13.1,-2.1 z m 48.9,-11.18 c -0.8,2.37 -1.5,5.39 -2,8.88 -0.5,3.55 -0.8,7.1 -1,10.78 -2.3,-3.09 -5.1,-5.92 -8.3,-8.61 -3.2,-2.7 -6.8,-5.07 -10.8,-7.04 -4,-2.03 -8.4,-3.61 -13.1,-4.8 -4.8,-1.24 -10,-1.84 -15.5,-1.84 -6.9,0 -13.1,0.99 -18.7,2.96 -5.6,2.04 -10.4,4.8 -14.3,8.42 -4,3.61 -7.1,7.82 -9.2,12.68 -2.2,4.86 -3.3,10.19 -3.3,15.91 0,6.83 1.5,13.01 4.4,18.53 3,5.53 7.3,10.19 12.8,14.07 5.6,3.88 12.3,6.84 20.2,8.88 8,2.03 16.9,3.02 26.8,3.02 h 28.9 v 16.04 c 0,10.05 -3.1,17.94 -9.3,23.72 -6.2,5.79 -15.3,8.68 -27.2,8.68 -5.4,0 -10.5,-0.72 -15,-2.23 -4.7,-1.45 -8.6,-3.49 -12,-6.12 -3.3,-2.56 -5.9,-5.58 -7.7,-9 -1.9,-3.49 -2.9,-7.1 -2.9,-11.04 l -15.6,0.13 c 0,5.32 1.3,10.45 3.9,15.38 2.6,4.93 6.3,9.33 11,13.21 4.7,3.88 10.4,6.97 17,9.34 6.7,2.3 14,3.48 22.1,3.48 7.5,0 14.4,-0.99 20.7,-2.89 6.3,-1.91 11.7,-4.74 16.1,-8.55 4.6,-3.81 8.1,-8.61 10.6,-14.33 2.5,-5.72 3.8,-12.42 3.8,-20.05 v -68.22 c 0,-2.44 0.1,-4.93 0.2,-7.57 0.2,-2.56 0.5,-5.12 0.9,-7.55 0.4,-2.43 0.8,-4.74 1.4,-6.97 0.5,-2.17 1.1,-4.14 1.8,-5.79 v -1.51 h -16.7" /></g><g
         transform="scale(1.53093)"
         id="g402"><path
           id="path404"
           style="fill:#699dee;fill-opacity:1;fill-rule:nonzero;stroke:none"
           d="m 16299.6,2451.25 c -3.3,0.65 -6.7,0.92 -10.4,0.92 -5.3,0 -10,-0.79 -14.3,-2.29 -4.2,-1.57 -7.9,-3.79 -11.1,-6.53 -3.3,-2.81 -6,-6.14 -8.2,-10 -2.2,-3.85 -3.9,-8.09 -5.2,-12.73 v -96.09 h -15.5 v 139.92 h 15.2 l 0.3,-22.21 c 3.7,7.64 8.9,13.72 15.4,18.16 6.5,4.44 14.5,6.66 24,6.66 1.9,0 3.9,-0.2 5.8,-0.52 2,-0.33 3.5,-0.72 4.4,-1.18 l -0.4,-14.11" /></g><g
         transform="scale(1.49449)"
         id="g406"><path
           id="path408"
           style="fill:#699dee;fill-opacity:1;fill-rule:nonzero;stroke:none"
           d="m 16211,2024.37 c 0,71.53 -34.9,125.59 -86.8,125.59 -51.8,0 -85.6,-52.39 -85.6,-125.59 0,-72.13 34.4,-125.66 86.8,-125.66 52.4,0 85.6,52.99 85.6,125.66 z m -261.4,0 c 0,114.35 71,203.95 175.8,203.95 104.2,0 174.6,-88.46 174.6,-203.95 0,-114.35 -70.4,-203.95 -175.8,-203.95 -105.3,0 -174.6,88.46 -174.6,203.95" /></g><g
         transform="scale(1.52934)"
         id="g410"><path
           id="path412"
           style="fill:#699dee;fill-opacity:1;fill-rule:nonzero;stroke:none"
           d="m 16255.1,1857.14 c 0,20.08 -11.1,37.6 -28.2,37.6 -18,0 -27.3,-17.06 -27.3,-37.6 0,-20.07 11.1,-37.59 28.1,-37.59 18,0 27.4,17.52 27.4,37.59 z m -100.4,0 c 0,42.31 29.4,76.51 73,76.51 43.2,0 72.3,-33.81 72.3,-76.51 0,-41.91 -29.5,-76.5 -73.1,-76.5 -43.2,0 -72.2,33.74 -72.2,76.5 z m -83.4,152.95 c 0,20.14 -11.1,37.66 -28.1,37.66 -18,0 -27.4,-17.13 -27.4,-37.66 0,-20.08 11.1,-37.6 28.2,-37.6 17.9,0 27.3,17.52 27.3,37.6 z m 147.9,73.1 h 50.9 l -218.4,-299.15 h -50.8 z m -248.3,-73.1 c 0,42.3 29.5,76.5 73.1,76.5 43.2,0 72.2,-33.74 72.2,-76.5 0,-41.85 -29.5,-76.44 -73,-76.44 -43.2,0 -72.3,33.74 -72.3,76.44" /></g><g
         transform="scale(1.19269)"
         id="g414"><path
           id="path416"
           style="fill:#ea8e50;fill-opacity:1;fill-rule:nonzero;stroke:none"
           d="m 15992,5706.5 68.2,-55.42 c 0,0 186.5,66.9 228.6,-154.7 0,0 11.2,-94.4 -48.7,-94.65 -59.7,-0.17 -35.1,10.39 -119.8,7.88 -84.7,-2.52 -154.9,42.17 -167.3,110.92 l -40.5,58.27 79.5,127.7" /></g><g
         transform="scale(1.17358)"
         id="g418"><path
           id="path420"
           style="fill:#1e3d70;fill-opacity:1;fill-rule:nonzero;stroke:none"
           d="m 16244.7,5678.71 c 55.3,57.69 50.8,100.29 50.8,100.29 0,0 -640,524.04 -704.9,566.73 -44.2,29.06 -515.6,446.92 -735.9,701.7 -109.3,126.37 -244.7,77.29 -399.6,32.89 l -127.5,-36.64 c -154,-44.14 -194.1,-259.55 -67.7,-364.27 355.9,-294.74 948,-626.29 1058.7,-695.99 275,-172.98 813.4,-378.59 813.4,-378.59 0,0 65.2,24.29 112.7,73.88" /></g><g
         transform="scale(1.26734)"
         id="g422"><path
           id="path424"
           style="fill:#233862;fill-opacity:1;fill-rule:nonzero;stroke:none"
           d="m 15719.2,2277.36 c 0,0 143.7,-107.78 364.2,-50.81 0,0 177.6,40.48 216.6,-48.13 0,0 -272.5,-138.4 -341.4,-176.28 -52,-28.56 -106.2,-73.62 -144.6,-108.42 -30.4,-27.53 -77.6,-23.82 -103.5,7.98 -12,14.75 -25.7,32.27 -40.7,52.7 -42.1,56.89 -139.9,240.82 -139.9,240.82 l 189.3,82.14" /></g><g
         transform="scale(1.22875)"
         id="g426"><path
           id="path428"
           style="fill:#2b478b;fill-opacity:1;fill-rule:nonzero;stroke:none"
           d="m 16300,2405.38 c 0,0 -90.3,-208.27 -298.8,-170.01 0,0 -425.6,351.41 -717.4,716.41 -94.8,118.58 -175.5,238.54 -222.9,348.33 -193.6,448.17 -716,1116.5 -1048.1,1455.22 l 831,300.55 c 0,0 266.1,-535.34 620.3,-1193.01 255.1,-473.89 556,-1011.19 835.9,-1457.49" /></g><g
         transform="scale(1.16574)"
         id="g430"><path
           id="path432"
           style="fill:#233862;fill-opacity:1;fill-rule:nonzero;stroke:none"
           d="m 16300,4071.68 -190.1,-960.34 c -99.9,124.98 -184.9,251.43 -235,367.15 -203.9,472.4 -754.6,1176.85 -1104.7,1533.88 l 876,316.8 c 0,0 280.5,-564.28 653.8,-1257.49" /></g><g
         transform="scale(1.13774)"
         id="g434"><path
           id="path436"
           style="fill:#233862;fill-opacity:1;fill-rule:nonzero;stroke:none"
           d="m 15967.5,2406.26 c 0,0 -9.8,-179.48 207.8,-203.48 0,0 124.3,-0.61 124.7,-114.87 l -632.5,-2.03 c 0,0 -18.4,46.15 -22.7,144.77 -3.5,75.85 73.4,273.96 73.4,273.96 l 249.3,-98.35" /></g><g
         transform="scale(1.15369)"
         id="g438"><path
           id="path440"
           style="fill:#2b478b;fill-opacity:1;fill-rule:nonzero;stroke:none"
           d="m 15519.3,5384.82 c 0,0 394.2,-433.22 644.5,-1213.67 136.2,-424.64 -249.6,-1492.35 -324.8,-1863.33 0,0 -258.8,-21.93 -435.7,46.46 0,0 -13.4,766.15 90.1,1356.69 57.9,330.51 -519.1,706.87 -771.3,1304.08 -171.5,406.26 37.1,399.33 293.6,409.12 l 503.6,-39.35" /></g><g
         transform="scale(1.06621)"
         id="g442"><path
           id="path444"
           style="fill:#ffb07b;fill-opacity:1;fill-rule:nonzero;stroke:none"
           d="m 16300,7918.01 c -237.4,-134.03 -723.3,-10.41 -723.3,-10.41 0,0 197.3,225.56 107.7,588.91 l 186.3,-94.64 200.2,-101.67 c 0,0 12.9,-64.15 21.9,-179.42 2.4,-29.64 4.4,-62.84 5.8,-99.04 121.9,-36.95 201.4,-103.73 201.4,-103.73" /></g><g
         transform="scale(1.12315)"
         id="g446"><path
           id="path448"
           style="fill:#2a4e96;fill-opacity:1;fill-rule:nonzero;stroke:none"
           d="m 16300,5554.3 c 0,-39.62 -45.7,-58.58 -55.4,-60.54 -90.8,-16.56 -344.5,-115.3 -573.2,-137.92 -192.5,-20.21 -371.2,-1.07 -567.5,38.38 -26,5.25 -87,21.72 -91.4,46.56 -5.4,27.25 -757.2,1532.75 -172.8,2179.5 13.7,15.14 129.1,-12.19 234.6,-37.22 97.5,-23.05 186.9,-10.23 266.7,21.82 l 98.9,-52.08 c 121.6,-67.67 351.4,-308.25 378.4,-497 13.6,-95.98 68.6,-167.12 84.4,-251.53 5.9,-31.25 12,-61.79 18.1,-91.53 11.9,-58.31 24.3,-113.78 37,-166.58 34.4,-142.73 70.6,-265.68 106.3,-371.81 37.9,-112.72 75.1,-206.57 108.3,-284.92 43.1,-101.76 79.5,-177.8 102.3,-235.94 16,-41.05 25.3,-73.19 25.3,-99.19" /></g><g
         transform="scale(1.12141)"
         id="g450"><path
           id="path452"
           style="fill:#1e3d70;fill-opacity:1;fill-rule:nonzero;stroke:none"
           d="m 16300,5662.27 c -1063,500.8 -1431.2,1462.45 -1431.2,1462.45 0,0 863.7,-318.53 1076.7,-401.55 12,-58.4 24.4,-113.96 37.1,-166.84 34.5,-142.95 70.7,-266.09 106.4,-372.39 38,-112.89 75.3,-206.89 108.5,-285.36 43.2,-101.92 79.7,-178.08 102.5,-236.31" /></g><g
         transform="scale(1.05266)"
         id="g454"><path
           id="path456"
           style="fill:#ea8e50;fill-opacity:1;fill-rule:nonzero;stroke:none"
           d="m 16300,8225.33 c -236.4,-13.2 -390.2,181.92 -390.2,181.92 0,0 107,59.28 165.2,102.79 l 202.8,-102.98 c 0,0 13.1,-64.97 22.2,-181.73" /></g><g
         transform="scale(1.06493)"
         id="g458"><path
           id="path460"
           style="fill:#ffb07b;fill-opacity:1;fill-rule:nonzero;stroke:none"
           d="m 16211.9,8370.53 c 0,0 -354.1,-254.1 -508.9,-31.17 -154.9,223.02 -304.8,340.3 -85.3,511.96 219.5,171.65 322.9,117.47 392.8,55.59 69.8,-61.79 289.5,-464.54 201.4,-536.38" /></g><g
         transform="scale(1.04928)"
         id="g462"><path
           id="path464"
           style="fill:#233862;fill-opacity:1;fill-rule:nonzero;stroke:none"
           d="m 16287.1,9244.13 c -12.8,86.92 -41.9,148.1 -41.9,148.1 0,0 -22.5,-93.4 -193.3,-80.53 -170.7,12.96 -441.2,-16.78 -531.5,-211.29 -5.7,-12.39 -10.8,-25.16 -15.3,-38.22 -16.3,43.18 -20.3,107.79 -20.3,107.79 -32.4,-83.77 0,-188.51 0,-188.51 v 0 c -0.5,-3.05 -0.9,-6.1 -1.4,-9.15 -37.6,-31.83 -69.2,-130.85 -69.2,-130.85 11.3,27.55 39,45.56 63.8,56.71 -0.8,-151.34 60.6,-299.35 168.4,-343.47 157.5,-64.43 156.3,-15.25 314.7,-120.37 0,0 42.5,52.8 13.5,88.15 -28.9,35.45 -138.4,87.01 -77.3,138.58 61.2,51.55 83.8,-6.49 106.3,28.97 22.6,35.45 -90.2,138.47 54.8,235.11 145,96.64 241.6,231.96 228.7,318.98" /></g><g
         transform="scale(1.20482)"
         id="g466"><path
           id="path468"
           style="fill:#ffc299;fill-opacity:1;fill-rule:nonzero;stroke:none"
           d="m 15771.2,5388.1 c 0,0 167.4,-56.44 263.9,-54.12 96.5,2.33 264.2,103.84 264.6,110.97 0.3,7.14 -75.4,50.88 -185.3,37.02 -109.9,-13.86 -132.3,2.58 -98.1,16.27 38.4,15.36 65.8,38.35 56.4,52.95 -5.1,8.14 -60.4,-9.38 -79.1,-15.68 -18.9,-6.23 -65.9,10.95 -105.1,-17.27 -26.1,-18.84 -123.9,-32.95 -123.9,-32.95 l 6.6,-97.19" /></g><g
         transform="scale(1.1738)"
         id="g470"><path
           id="path472"
           style="fill:#2a4e96;fill-opacity:1;fill-rule:nonzero;stroke:none"
           d="m 16255.9,5586.28 c 30.3,85.45 44.1,124.21 44.1,124.21 0,0 -676.5,523.6 -745.3,568.24 -46.7,30.42 -513.6,361.31 -743.8,622.6 -114.1,129.66 -290.4,185.72 -458.5,146.01 l -138.4,-32.71 c -167.1,-39.44 -216.3,-253.53 -83.2,-361.98 375,-305.42 1003.4,-654.8 1120.8,-727.81 291.4,-181.21 931.9,-429.29 931.9,-429.29 0,0 48.6,23.69 72.4,90.73" /></g><path
         id="path474"
         style="fill:#ed985f;fill-opacity:1;fill-rule:nonzero;stroke:none"
         d="m 12296.1,7529.8 c -61.7,-54.5 -225.2,132.7 -247.7,157.6 -1.2,2.4 -2.4,3.6 -2.4,3.6 l 49.8,138.6 c 0,0 214.5,8.3 250,-27.2 35.6,-35.6 17.8,-214.5 -49.7,-272.6" /><path
         id="path476"
         style="fill:#ed985f;fill-opacity:1;fill-rule:nonzero;stroke:none"
         d="m 12095.8,7829.6 -21.3,-143.4 c 0,0 -9.5,0 -26.1,1.2 -52.1,3.6 -178.9,10.7 -322.3,26.1 -215.7,21.3 -471.7,59.3 -573.6,122.1 -155.2,94.7 -410,385.1 -575.9,675.4 -4.7,7.1 -8.3,14.2 -11.8,21.3 -86.5,154.1 -147,307 -151.7,429 -3.6,74.7 4.7,138.7 20.1,194.3 20.2,73.5 53.4,131.6 87.7,175.4 4.8,7.1 9.5,14.2 16.6,20.2 56.9,67.5 112.6,95.9 112.6,95.9 28.4,11.9 59.2,-2.3 91.2,-36.7 v -1.2 c 26.1,-27.2 54.5,-68.7 81.8,-120.8 1.2,-1.2 2.4,-2.4 2.4,-3.6 5.9,-10.7 11.8,-22.5 18.9,-35.5 2.4,-2.4 3.6,-6 4.8,-8.3 13,-27.3 26,-55.7 39.1,-85.4 145.7,-317.5 301,-798.6 430.1,-942 55.7,-61.6 310.5,-182.5 513.1,-272.6 145.8,-64 264.3,-111.4 264.3,-111.4" /><g
         transform="scale(1.00105)"
         id="g478"><path
           id="path480"
           style="fill:#82b378;fill-opacity:1;fill-rule:nonzero;stroke:none"
           d="m 14201.5,7656.47 c -4.6,13.98 -9.4,27.97 -14.5,41.95 -282.8,781.08 -1176,1188.56 -1960.4,894.87 -777.7,-291.3 -1181.2,-1149.1 -902.1,-1926.78 1.3,-3.7 2.7,-7.39 4,-10.99 150.3,-408.77 160.7,-854.2 37,-1273.07 -138.3,-468.21 -132.1,-982.57 51.3,-1475.05 447.7,-1202.04 1797,-1820.59 3013.9,-1382.05 1228.4,442.64 1869.3,1788.62 1431.7,3007.75 -178.8,498.07 -509.9,897.95 -922.9,1166.77 -348.1,226.66 -608.4,563.21 -738,956.6" /></g><path
         id="path482"
         style="fill:#cee085;fill-opacity:1;fill-rule:nonzero;stroke:none"
         d="m 14117.8,7572.3 c -4.3,13.1 -8.9,26.2 -13.6,39.3 -264.7,731.2 -1089.9,1116.6 -1811.1,846.3 -715,-268 -1082.3,-1067.3 -821,-1795.2 1.2,-3.5 2.5,-6.9 3.7,-10.3 140.6,-382.7 152.6,-798.9 40.8,-1189.5 -125,-436.6 -116.5,-917.2 55,-1378.2 418.8,-1125.4 1665.5,-1710.3 2784.3,-1307.1 1129.6,407.1 1713,1661.1 1303.4,2802.4 -167.3,466.2 -474.5,841.5 -856.5,1094.8 -322,213.6 -563.6,529.3 -685,897.5" /><path
         id="path484"
         style="fill:#f99746;fill-opacity:1;fill-rule:nonzero;stroke:none"
         d="m 14788.3,5091.7 c 207.9,-579.3 -93.1,-1217.4 -672.4,-1425.4 -31.2,-11.1 -62.4,-20.8 -93.7,-29.1 -552.9,-145.7 -1135,153.4 -1331.7,701.5 -131.2,365.5 -59.8,754.3 156.2,1043.8 126.4,169.4 302.4,304.9 516.2,381.6 579.3,208 1217.5,-93.1 1425.4,-672.4" /><path
         id="path486"
         style="fill:#ed7d2b;fill-opacity:1;fill-rule:nonzero;stroke:none"
         d="m 14178.6,4681.2 c 131.2,-365.6 59.8,-754.6 -156.4,-1044 -552.9,-145.7 -1135,153.4 -1331.7,701.5 -131.2,365.5 -59.8,754.3 156.2,1043.8 552.9,146.1 1135.1,-153 1331.9,-701.3" /><path
         id="path488"
         style="fill:#2b478b;fill-opacity:1;fill-rule:nonzero;stroke:none"
         d="M 10543.6,2665.3 10387,2607 c 0,0 -680.11,943.3 -763.85,1773.2 -14.96,148.2 -9.97,291.7 22.38,424.3 0,0 -6.65,38 -18.28,105.1 -5.37,31.3 -12.03,69 -19.56,112.2 -22.12,126.7 -52.55,300.1 -87.32,497.5 -80.03,454.2 -183.71,1034.8 -264.25,1461.7 l 42.19,13.5 456.52,147.3 94.34,299.7 339.93,89.5 c 0,0 75.9,-148.6 143.8,-850.3 12.5,-92 23.9,-193.6 32.5,-303.6 26.5,-336 28.4,-752.7 -32.4,-1229.2 -15.5,-122 -35.2,-247.9 -59.7,-377.3 -17.9,-94.8 -20.5,-224.1 -13,-372.5 34.3,-678.4 283.3,-1732.8 283.3,-1732.8" /><path
         id="path490"
         style="fill:#233862;fill-opacity:1;fill-rule:nonzero;stroke:none"
         d="M 10365.4,6377.1 9627.25,4909.6 c -5.37,31.3 -12.03,69 -19.56,112.2 -22.12,126.7 -52.55,300.1 -87.32,497.5 -80.03,454.2 -183.71,1034.8 -264.25,1461.7 l 42.19,13.5 456.52,147.3 94.34,299.7 339.93,89.5 c 0,0 75.9,-148.6 143.8,-850.3 12.5,-92 23.9,-193.6 32.5,-303.6" /><path
         id="path492"
         style="fill:#2b478b;fill-opacity:1;fill-rule:nonzero;stroke:none"
         d="m 10040.7,7342.6 -17.1,146.6 c -286.31,-76.1 -1051.21,212.5 -1051.21,212.5 0,0 -277.34,-243.8 -240.93,-828.2 17.78,-285.2 50.24,-1497.3 84.15,-1855.9 12.25,-130 22.99,-222.5 27.37,-259.5 l 0.09,-0.3 c 1.34,-11.3 -2.59,-21.9 -8.32,-31.8 -49.92,-84.7 -91.25,-172.9 -125.16,-263.2 -332.8,-886.8 51.26,-1979 51.26,-1979 l 99.67,40.2 c 0,0 218.55,1215.4 396.14,1752.4 30.15,91.1 59.04,162.6 85.53,205.4 77.2,124.6 148.86,328.2 213.9,570.4 122.92,457.9 221.86,1053.5 287.71,1513.2 9.08,-0.4 196.9,777.2 196.9,777.2" /><path
         id="path494"
         style="fill:#ffb27d;fill-opacity:1;fill-rule:nonzero;stroke:none"
         d="m 10587.6,9120 c -89.9,-41.7 -198.4,-70 -329.7,-77.2 -492.21,-27 -603.94,404.5 -624.26,690.8 70.94,25.7 133.08,23.3 168.87,21.4 34.9,-1.9 71.34,-5.5 101.38,-9.2 60.21,31.4 168.41,184.2 230.91,439.8 l 21.2,-9.9 355.1,-166.9 c 0,0 -37.7,-115.6 -65.6,-226.2 -21.7,-86.5 -37.3,-170.2 -24.2,-193.5 28,-11.4 44.7,-18.6 44.7,-18.6 l 0.1,-0.4 c 3.6,-9 80.8,-205.8 121.5,-450.1" /><path
         id="path496"
         style="fill:#f99746;fill-opacity:1;fill-rule:nonzero;stroke:none"
         d="m 10710.7,8797.1 c -3.7,-9.9 -7.8,-19.5 -12.3,-29.3 -124.6,-268.5 -355.4,-1380.5 -355.4,-1380.5 32.9,-200 -1502.61,39.2 -1506.57,221.3 -54.08,193 191.88,503.1 330.59,658.7 17.38,19.6 32.98,40.5 46.53,62.7 34.26,55.4 56,118.1 62.9,183.5 27.24,258.1 16.88,499.9 19.17,647 h 0.01 c 27.1,20.1 53.31,38.6 77.72,56.3 37.33,27.2 70.31,52.7 94.6,78.5 26.72,28.1 43.47,56.9 45.38,89.3 1.42,24.6 0.64,49.8 -1.91,75 -1.15,11.8 -2.68,23.7 -4.48,35.6 -19.17,124.9 -71.33,238.2 -71.33,238.2 132.06,53.4 366.9,21.6 366.9,21.6 0,0 -0.25,-13.1 -0.38,-34.4 -0.77,-85.8 0,-306 27.48,-347.7 34.39,-51.9 663.49,-279.4 696.69,-208.9 32.8,69.3 -56.8,393.9 -60.2,406.1 l -0.1,0.4 c 210.7,-82.7 286,-152.1 286,-152.1 -127,-82.3 56.9,-360.9 -41.3,-621.3" /><path
         id="path498"
         style="fill:#2c3a64;fill-opacity:1;fill-rule:nonzero;stroke:none"
         d="m 10286.9,11116.8 c -0.7,21.4 -17.3,251.3 -367.5,263.3 0,0 172.2,-20.5 202,-96.2 0,0 -117.3,93.5 -212.78,63.4 -95.5,-30.1 -151.59,-197.4 -152.16,-252.4 -0.56,-55 52.5,-232.5 113.11,-247.5 22.96,-5.8 49.4,-4.2 73.41,-0.1 -16.12,-25.2 -31.93,-53 -47.04,-84 -139.75,-286.9 4.37,-567.2 122.66,-536.3 75.9,19.9 97.4,-109.6 97.4,-109.6 l 737.2,596.8 c 0,0 -270.8,560.3 -566.3,402.6" /><path
         id="path500"
         style="fill:#ed985f;fill-opacity:1;fill-rule:nonzero;stroke:none"
         d="m 10511.1,10008.7 c 0,0 -37.7,-115.5 -65.5,-226.2 -207.6,57.9 -270.7,276.2 -289.6,393.1 l 355.1,-166.9" /><path
         id="path502"
         style="fill:#ffb27d;fill-opacity:1;fill-rule:nonzero;stroke:none"
         d="m 10554.8,9886.4 c 0,0 -496.6,115 -420.3,423.2 76.4,308.1 63.7,530.5 384,470.2 320.3,-60.4 352.6,-193.2 352.1,-302.2 -0.4,-109.1 -184.6,-613.1 -315.8,-591.2" /><path
         id="path504"
         style="fill:#2c3a64;fill-opacity:1;fill-rule:nonzero;stroke:none"
         d="m 10898.6,10652.5 c -53.4,111.7 -116.3,105.8 -155.6,85.9 -233.3,216 -462.2,39.6 -462.2,39.6 -88.1,-212.9 -279.1,-299.8 -279.1,-299.8 0,0 76.3,-78.1 297.5,-76.4 67.5,0.5 135.4,31.5 197.2,74.2 -119.2,-120 -258.9,-193.1 -258.9,-193.1 276.8,53 462.4,373.5 481.4,407.5 23.5,-34.6 68.3,-108.4 72.1,-170.6 5.1,-84.6 -24,-248.9 24.4,-255.1 0,0 163.2,220.3 83.2,387.8" /><path
         id="path506"
         style="fill:#f99746;fill-opacity:1;fill-rule:nonzero;stroke:none"
         d="m 10752,9418.4 c 0,0 119.6,-208.6 137.5,-262.2 0,0 -155.1,5.9 -217.7,-113.4 0,0 -15,347.5 80.2,375.6" /><path
         id="path508"
         style="fill:#ed7d2b;fill-opacity:1;fill-rule:nonzero;stroke:none"
         d="m 9929.58,7760.9 c -302.85,3.2 -559.3,317.7 -716.03,569.1 34.26,55.4 56,118.1 62.9,183.5 27.24,258.1 16.88,499.9 19.17,647 h 0.01 c 27.1,20.1 53.31,38.6 77.72,56.3 37.33,27.2 70.31,52.7 94.6,78.5 248.02,-419.2 872.25,-1538.7 461.63,-1534.4" /><path
         id="path510"
         style="fill:#ffb27d;fill-opacity:1;fill-rule:nonzero;stroke:none"
         d="m 11552.5,7464.7 c -26.3,-20.2 -236.4,-102.3 -316.4,-77.2 -44.7,14.1 -200.2,52.6 -263,68 -24.9,4.7 -114.4,22.2 -114.4,22.2 l 67.5,196.7 c 0,0 2.6,-0.4 8.3,-2.4 25.7,-8.9 75.1,-33.3 139.8,-43 79.8,-11.9 179.3,38.2 231.1,9.8 109.6,-60.1 260.9,0.9 295.8,-31.1 26.2,-24.2 16.8,-92.9 -48.7,-143" /><path
         id="path512"
         style="fill:#ffb27d;fill-opacity:1;fill-rule:nonzero;stroke:none"
         d="m 11074.3,7596.2 -41.5,-151.7 c 0,0 -52.1,9.5 -135,24.9 -24.9,4.7 -39.1,8.3 -39.1,8.3 -66.4,13 -145.8,30.8 -232.3,49.8 h -1.2 c -148.1,35.5 -314,78.2 -453.8,125.6 -98.4,34.3 -183.72,71.1 -241.79,107.8 -5.92,3.6 -10.65,7.1 -16.59,11.9 -138.64,100.7 -303.36,396.9 -431.33,714.5 -17.78,43.9 -34.37,87.7 -50.96,130.4 -59.26,158.8 -106.65,315.2 -135.09,450.3 -17.77,80.5 -29.62,154 -31.99,214.5 -1.19,21.3 -2.38,41.4 -1.19,60.4 2.37,343.6 173.01,391 173.01,391 3.55,1.2 7.11,2.4 11.85,3.6 29.62,4.7 60.43,-15.4 92.43,-54.5 40.29,-48.6 82.96,-128 126.8,-224 67.54,-152.9 138.64,-350.8 205,-547.5 36.74,-107.8 72.28,-215.6 107.83,-315.2 20.15,-60.4 40.32,-117.3 59.22,-169.4 36.8,-99.6 69.9,-180.1 99.6,-231.1 18.9,-33.2 73.4,-79.4 145.7,-131.5 125.6,-91.3 309.3,-201.5 469.3,-291.5 66.4,-38 129.1,-72.3 181.3,-100.8 84.1,-46.2 139.8,-75.8 139.8,-75.8" /><path
         id="path514"
         style="fill:#f99746;fill-opacity:1;fill-rule:nonzero;stroke:none"
         d="m 9666.13,9458.5 c -228.13,62.9 -404.1,-115.2 -404.1,-115.2 2.86,343.1 173.64,390 173.64,390 68.71,28.5 148.33,-90.5 230.46,-274.8" /><path
         id="path516"
         style="fill:#233862;fill-opacity:1;fill-rule:nonzero;stroke:none"
         d="m 9340.28,2402.4 h -788.66 c 0,0 -18.9,120.2 22.3,211.4 39.46,87.5 101.29,127.3 86.49,233.1 50.11,-51.6 131.79,-109.4 245.81,-94 13.96,-22.7 90.17,-143.9 136.84,-177.4 51.53,-37 281.35,-23.8 297.22,-173.1" /><path
         id="path518"
         style="fill:#233862;fill-opacity:1;fill-rule:nonzero;stroke:none"
         d="M 11033.6,2402.4 H 10245 c 0,0 -29.5,125.8 22.3,211.4 45.8,75.7 28.2,118.9 -5.7,181.5 35.7,-14.6 81.9,-27.9 132.8,-25 39.3,2.3 80.9,20.1 117.3,41.3 34,-38.7 179.3,-203.5 224.7,-236.1 51.6,-37 281.4,-23.8 297.2,-173.1" /><path
         id="path520"
         style="fill:#ffb27d;fill-opacity:1;fill-rule:nonzero;stroke:none"
         d="m 11114.8,7608.9 c 0,0 67.5,44 166.9,77.3 62.1,20.9 143.4,43.4 140.9,20.8 -2.6,-22.6 -130.8,-83 -133.3,-93.1 -2.6,-10 -174.5,-5 -174.5,-5" /><g
         transform="scale(1.05974)"
         id="g522"><path
           id="path524"
           style="fill:#f77d48;fill-opacity:1;fill-rule:nonzero;stroke:none"
           d="m 14560.6,4343.06 c 498.1,350.56 947.4,62.85 1298,-435.39 350.5,-498.14 441.4,-1034.41 -56.8,-1384.96 -498.2,-350.57 -1660.7,-339.24 -1903.4,5.65 -191.3,271.96 164,1464.14 662.2,1814.7" /></g><path
         id="path526"
         style="fill:#fbbea3;fill-opacity:1;fill-rule:nonzero;stroke:none"
         d="m 16092.8,4485.9 c -19,-13.3 -86.2,-9.4 -86.2,-9.4 0,0 19,64.6 37.9,78 18.9,13.3 45.1,8.7 58.4,-10.2 13.3,-18.9 8.8,-45.1 -10.1,-58.4" /><path
         id="path528"
         style="fill:#fbbea3;fill-opacity:1;fill-rule:nonzero;stroke:none"
         d="m 16077.9,4245.8 c -18.9,-13.3 -86.1,-9.4 -86.1,-9.4 0,0 19,64.6 37.9,77.9 18.9,13.3 45.1,8.8 58.4,-10.1 13.3,-19 8.8,-45.1 -10.2,-58.4" /><g
         transform="scale(1.00363)"
         id="g530"><path
           id="path532"
           style="fill:#fbbea3;fill-opacity:1;fill-rule:nonzero;stroke:none"
           d="m 16276.6,4125.84 c -18.8,-13.25 -85.9,-9.36 -85.9,-9.36 0,0 18.9,64.36 37.9,77.61 18.8,13.35 44.8,8.77 58.1,-10.06 13.3,-18.83 8.7,-44.94 -10.1,-58.19" /></g><g
         transform="scale(1.00776)"
         id="g534"><path
           id="path536"
           style="fill:#fbbea3;fill-opacity:1;fill-rule:nonzero;stroke:none"
           d="m 16276.7,3754.66 c -18.8,-13.2 -85.5,-9.33 -85.5,-9.33 0,0 18.9,64.11 37.7,77.3 18.7,13.3 44.7,8.74 57.9,-10.02 13.2,-18.75 8.7,-44.75 -10.1,-57.95" /></g><g
         transform="scale(1.02282)"
         id="g538"><path
           id="path540"
           style="fill:#fbbea3;fill-opacity:1;fill-rule:nonzero;stroke:none"
           d="m 16277.1,3577.77 c -18.6,-13 -84.3,-9.19 -84.3,-9.19 0,0 18.6,63.16 37.1,76.26 18.6,13 44.1,8.51 57.1,-9.97 13,-18.48 8.6,-44.1 -9.9,-57.1" /></g><g
         transform="scale(1.02588)"
         id="g542"><path
           id="path544"
           style="fill:#fbbea3;fill-opacity:1;fill-rule:nonzero;stroke:none"
           d="m 16277.1,3279.24 c -18.4,-12.96 -83.9,-9.16 -83.9,-9.16 0,0 18.5,62.97 36.9,75.94 18.4,12.96 44,8.57 56.9,-9.85 13,-18.52 8.6,-43.96 -9.9,-56.93" /></g><g
         transform="scale(1.0394)"
         id="g546"><path
           id="path548"
           style="fill:#fbbea3;fill-opacity:1;fill-rule:nonzero;stroke:none"
           d="m 16277.5,3151.15 c -18.3,-12.8 -82.9,-9.04 -82.9,-9.04 0,0 18.2,62.15 36.4,74.94 18.2,12.89 43.4,8.47 56.2,-9.72 12.8,-18.18 8.5,-43.38 -9.7,-56.18" /></g><path
         id="path550"
         style="fill:#fbbea3;fill-opacity:1;fill-rule:nonzero;stroke:none"
         d="m 15663.9,4348.7 c -22.6,-15.9 -103,-11.2 -103,-11.2 0,0 22.7,77.2 45.3,93.1 22.7,15.9 53.9,10.5 69.8,-12.1 15.9,-22.6 10.5,-53.9 -12.1,-69.8" /><path
         id="path552"
         style="fill:#fbbea3;fill-opacity:1;fill-rule:nonzero;stroke:none"
         d="m 15646.2,4061.8 c -22.6,-15.9 -103,-11.2 -103,-11.2 0,0 22.7,77.2 45.3,93.1 22.7,15.9 53.9,10.5 69.8,-12.2 15.9,-22.6 10.5,-53.8 -12.1,-69.7" /><path
         id="path554"
         style="fill:#fbbea3;fill-opacity:1;fill-rule:nonzero;stroke:none"
         d="m 15954,3936.3 c -22.6,-15.9 -102.9,-11.2 -102.9,-11.2 0,0 22.7,77.2 45.3,93.2 22.6,15.9 53.8,10.4 69.8,-12.2 15.9,-22.6 10.4,-53.8 -12.2,-69.8" /><path
         id="path556"
         style="fill:#fbbea3;fill-opacity:1;fill-rule:nonzero;stroke:none"
         d="m 16034.6,3509.8 c -22.6,-15.9 -103,-11.2 -103,-11.2 0,0 22.7,77.2 45.4,93.1 22.6,15.9 53.8,10.5 69.7,-12.1 15.9,-22.7 10.5,-53.9 -12.1,-69.8" /><g
         transform="scale(1.00343)"
         id="g558"><path
           id="path560"
           style="fill:#fbbea3;fill-opacity:1;fill-rule:nonzero;stroke:none"
           d="m 16272.1,3349.71 c -22.6,-15.84 -102.6,-11.16 -102.6,-11.16 0,0 22.6,76.94 45.1,92.78 22.6,15.85 53.7,10.47 69.6,-12.15 15.8,-22.53 10.4,-53.62 -12.1,-69.47" /></g><g
         transform="scale(1.00709)"
         id="g562"><path
           id="path564"
           style="fill:#fbbea3;fill-opacity:1;fill-rule:nonzero;stroke:none"
           d="m 16272.2,2987.13 c -22.4,-15.78 -102.3,-11.12 -102.3,-11.12 0,0 22.6,76.66 45,92.45 22.5,15.79 53.5,10.42 69.3,-12.02 15.8,-22.54 10.4,-53.52 -12,-69.31" /></g><g
         transform="scale(1.02325)"
         id="g566"><path
           id="path568"
           style="fill:#fbbea3;fill-opacity:1;fill-rule:nonzero;stroke:none"
           d="m 16272.5,2836.27 c -22.1,-15.54 -100.5,-10.95 -100.5,-10.95 0,0 22.2,75.45 44.2,90.99 22.1,15.54 52.6,10.26 68.2,-11.83 15.6,-22.08 10.2,-52.67 -11.9,-68.21" /></g><path
         id="path570"
         style="fill:#fbbea3;fill-opacity:1;fill-rule:nonzero;stroke:none"
         d="m 14912.3,3367.3 c -12.2,-8.6 -55.4,-6.1 -55.4,-6.1 0,0 12.2,41.5 24.4,50.1 12.1,8.6 28.9,5.6 37.5,-6.5 8.5,-12.2 5.6,-29 -6.5,-37.5" /><path
         id="path572"
         style="fill:#fbbea3;fill-opacity:1;fill-rule:nonzero;stroke:none"
         d="m 14902.7,3213 c -12.1,-8.5 -55.3,-6 -55.3,-6 0,0 12.2,41.5 24.4,50.1 12.1,8.5 28.9,5.6 37.5,-6.6 8.5,-12.1 5.6,-28.9 -6.6,-37.5" /><path
         id="path574"
         style="fill:#fbbea3;fill-opacity:1;fill-rule:nonzero;stroke:none"
         d="m 15068.2,3145.6 c -12.1,-8.6 -55.3,-6 -55.3,-6 0,0 12.2,41.5 24.4,50 12.1,8.6 28.9,5.7 37.5,-6.5 8.5,-12.2 5.6,-28.9 -6.6,-37.5" /><path
         id="path576"
         style="fill:#fbbea3;fill-opacity:1;fill-rule:nonzero;stroke:none"
         d="m 15111.5,2916.3 c -12.1,-8.6 -55.3,-6 -55.3,-6 0,0 12.2,41.5 24.4,50 12.1,8.6 28.9,5.7 37.5,-6.5 8.5,-12.2 5.6,-29 -6.6,-37.5" /><path
         id="path578"
         style="fill:#fbbea3;fill-opacity:1;fill-rule:nonzero;stroke:none"
         d="m 15269.2,2836.4 c -12.2,-8.5 -55.4,-6 -55.4,-6 0,0 12.3,41.5 24.4,50 12.2,8.6 29,5.7 37.5,-6.5 8.6,-12.1 5.7,-28.9 -6.5,-37.5" /><path
         id="path580"
         style="fill:#fbbea3;fill-opacity:1;fill-rule:nonzero;stroke:none"
         d="m 15301.2,2646.7 c -12.1,-8.6 -55.3,-6 -55.3,-6 0,0 12.2,41.5 24.4,50 12.1,8.6 28.9,5.7 37.5,-6.5 8.5,-12.1 5.6,-28.9 -6.6,-37.5" /><path
         id="path582"
         style="fill:#fbbea3;fill-opacity:1;fill-rule:nonzero;stroke:none"
         d="m 15442.8,2589.7 c -12.2,-8.6 -55.3,-6 -55.3,-6 0,0 12.2,41.5 24.3,50 12.2,8.6 29,5.6 37.5,-6.5 8.6,-12.2 5.7,-29 -6.5,-37.5" /><path
         id="path584"
         style="fill:#fbbea3;fill-opacity:1;fill-rule:nonzero;stroke:none"
         d="m 15117.7,3672.3 c -15.8,-11.1 -71.7,-7.8 -71.7,-7.8 0,0 15.8,53.7 31.5,64.8 15.8,11.1 37.6,7.3 48.6,-8.4 11.1,-15.8 7.3,-37.5 -8.4,-48.6" /><path
         id="path586"
         style="fill:#fbbea3;fill-opacity:1;fill-rule:nonzero;stroke:none"
         d="m 15105.4,3472.4 c -15.8,-11.1 -71.7,-7.8 -71.7,-7.8 0,0 15.8,53.8 31.5,64.9 15.8,11 37.5,7.3 48.6,-8.5 11.1,-15.7 7.3,-37.5 -8.4,-48.6" /><path
         id="path588"
         style="fill:#fbbea3;fill-opacity:1;fill-rule:nonzero;stroke:none"
         d="m 15319.8,3385 c -15.8,-11 -71.7,-7.8 -71.7,-7.8 0,0 15.8,53.8 31.5,64.9 15.8,11.1 37.6,7.3 48.6,-8.5 11.1,-15.7 7.4,-37.5 -8.4,-48.6" /><path
         id="path590"
         style="fill:#fbbea3;fill-opacity:1;fill-rule:nonzero;stroke:none"
         d="m 15375.9,3087.9 c -15.7,-11.1 -71.7,-7.8 -71.7,-7.8 0,0 15.8,53.8 31.6,64.9 15.7,11.1 37.5,7.3 48.6,-8.5 11.1,-15.7 7.3,-37.5 -8.5,-48.6" /><path
         id="path592"
         style="fill:#fbbea3;fill-opacity:1;fill-rule:nonzero;stroke:none"
         d="m 15580.2,2984.4 c -15.8,-11.1 -71.7,-7.8 -71.7,-7.8 0,0 15.8,53.8 31.5,64.9 15.8,11 37.6,7.3 48.6,-8.5 11.1,-15.7 7.3,-37.5 -8.4,-48.6" /><path
         id="path594"
         style="fill:#fbbea3;fill-opacity:1;fill-rule:nonzero;stroke:none"
         d="m 15621.7,2738.6 c -15.7,-11.1 -71.7,-7.8 -71.7,-7.8 0,0 15.8,53.8 31.6,64.9 15.7,11 37.5,7.3 48.6,-8.5 11.1,-15.7 7.3,-37.5 -8.5,-48.6" /><path
         id="path596"
         style="fill:#fbbea3;fill-opacity:1;fill-rule:nonzero;stroke:none"
         d="m 15805.1,2664.7 c -15.7,-11.1 -71.7,-7.8 -71.7,-7.8 0,0 15.8,53.8 31.6,64.9 15.7,11.1 37.5,7.3 48.6,-8.5 11.1,-15.7 7.3,-37.5 -8.5,-48.6" /><path
         id="path598"
         style="fill:#fbbea3;fill-opacity:1;fill-rule:nonzero;stroke:none"
         d="m 15348.4,3987 c -19.1,-13.5 -87.2,-9.5 -87.2,-9.5 0,0 19.2,65.4 38.4,78.9 19.2,13.5 45.6,8.9 59.1,-10.3 13.5,-19.2 8.9,-45.7 -10.3,-59.1" /><path
         id="path600"
         style="fill:#fbbea3;fill-opacity:1;fill-rule:nonzero;stroke:none"
         d="m 15333.5,3743.8 c -19.2,-13.5 -87.3,-9.5 -87.3,-9.5 0,0 19.2,65.4 38.4,78.9 19.2,13.5 45.7,8.9 59.1,-10.3 13.5,-19.2 8.9,-45.6 -10.2,-59.1" /><path
         id="path602"
         style="fill:#fbbea3;fill-opacity:1;fill-rule:nonzero;stroke:none"
         d="m 15594.3,3637.5 c -19.1,-13.5 -87.2,-9.5 -87.2,-9.5 0,0 19.2,65.4 38.4,78.9 19.2,13.5 45.6,8.9 59.1,-10.3 13.5,-19.1 8.9,-45.6 -10.3,-59.1" /><path
         id="path604"
         style="fill:#fbbea3;fill-opacity:1;fill-rule:nonzero;stroke:none"
         d="m 15662.6,3276 c -19.1,-13.5 -87.2,-9.5 -87.2,-9.5 0,0 19.2,65.4 38.4,78.9 19.1,13.5 45.6,8.9 59.1,-10.3 13.5,-19.1 8.9,-45.6 -10.3,-59.1" /><path
         id="path606"
         style="fill:#fbbea3;fill-opacity:1;fill-rule:nonzero;stroke:none"
         d="m 15911.2,3150.1 c -19.2,-13.5 -87.3,-9.5 -87.3,-9.5 0,0 19.2,65.4 38.4,78.9 19.2,13.5 45.6,8.9 59.1,-10.3 13.5,-19.2 8.9,-45.6 -10.2,-59.1" /><path
         id="path608"
         style="fill:#fbbea3;fill-opacity:1;fill-rule:nonzero;stroke:none"
         d="m 15961.7,2851 c -19.2,-13.5 -87.3,-9.5 -87.3,-9.5 0,0 19.3,65.4 38.4,78.9 19.2,13.5 45.7,8.9 59.2,-10.3 13.4,-19.1 8.8,-45.6 -10.3,-59.1" /><path
         id="path610"
         style="fill:#fbbea3;fill-opacity:1;fill-rule:nonzero;stroke:none"
         d="m 16184.8,2761.1 c -19.1,-13.5 -87.2,-9.5 -87.2,-9.5 0,0 19.2,65.4 38.4,78.9 19.2,13.5 45.6,8.9 59.1,-10.3 13.5,-19.1 8.9,-45.6 -10.3,-59.1" /><g
         transform="scale(1.07642)"
         id="g612"><path
           id="path614"
           style="fill:#649b57;fill-opacity:1;fill-rule:nonzero;stroke:none"
           d="m 15559,3870.6 c 0,0 372.3,297.46 741,145.94 0,0 -38.2,-44.68 -65.6,-63.91 -27.4,-19.32 -289.3,120.03 -664.9,-132.01 l -10.5,49.98" /></g><g
         transform="scale(1.04726)"
         id="g616"><path
           id="path618"
           style="fill:#649b57;fill-opacity:1;fill-rule:nonzero;stroke:none"
           d="m 16042.2,3992.59 c 0,0 -111.8,297.16 -380.3,372.5 0,0 176.5,-172.64 191.4,-225.26 0,0 -72.5,31.14 -191.7,-37.04 0,0 196.6,-41.63 235.9,-155.94 39.5,-114.39 8.2,-325.8 8.2,-325.8 0,0 161.1,75.82 161.5,161 0,0 148.6,-109.72 232.8,-328.58 0,0 -36.2,333.54 -257.8,539.12" /></g><g
         transform="scale(1.83098)"
         id="g620"><path
           id="path622"
           style="fill:#2e3552;fill-opacity:1;fill-rule:nonzero;stroke:none"
           d="M 16282.7,1278.11 H 1633.08 c -9.51,0 -17.29,7.76 -17.29,17.26 v 7.48 c 0,9.51 7.78,17.32 17.29,17.32 H 16282.7 c 9.5,0 17.3,-7.81 17.3,-17.32 v -7.48 c 0,-9.5 -7.8,-17.26 -17.3,-17.26" /></g><path
         id="path624"
         style="fill:#2a4e96;fill-opacity:1;fill-rule:nonzero;stroke:none"
         d="m 15247.1,3001.9 c 0,-319.3 -306.7,-578.1 -685,-578.1 -378.3,0 -685,258.8 -685,578.1 0,319.4 306.7,578.2 685,578.2 378.3,0 685,-258.8 685,-578.2" /><path
         id="path626"
         style="fill:#4673bc;fill-opacity:1;fill-rule:nonzero;stroke:none"
         d="m 15015.9,3210.9 c 0,-82.6 -79.3,-149.5 -177.1,-149.5 -97.8,0 -177.1,66.9 -177.1,149.5 0,82.6 79.3,149.5 177.1,149.5 97.8,0 177.1,-66.9 177.1,-149.5" /></g></g></svg>